<?xml version="1.0" encoding="UTF-8"?>
<svg id="Layer_1" xmlns="http://www.w3.org/2000/svg" version="1.1" viewBox="0 0 403.56 425.27">
  <!-- Generator: Adobe Illustrator 29.8.1, SVG Export Plug-In . SVG Version: 2.1.1 Build 2)  -->
  <path d="M205.71,9.55c.54.16,1.12.24,1.73.24.21,0,.41-.01.61-.02,17.73.21,37.65,5.69,50.78,13.98,19.05,12.02,32.51,32.21,37.9,56.86,5.21,23.79,2.05,48.92-8.67,68.92l-4.33,8.07,9.13-.73,5.24-.42c.38,0,.76,0,1.14,0,21.32,0,43.77,8.5,61.59,23.32,18.37,15.28,29.89,35.31,32.43,56.38,2.78,23.1-.35,45.15-9.06,63.75-9.3,19.86-24.79,34.91-44.81,43.54-10.92,4.71-22.55,7.09-34.56,7.09-21.54,0-43.52-7.8-61.88-21.97l-12.63-9.74,4.8,15.21c4.09,12.95,12.55,33.78,38.67,64.98,1.38,1.64,2.86,3.27,4.3,4.83,1.83,1.99,3.56,3.88,5.03,5.75,1.1,1.41,1.46,2.97.96,4.19-.42,1.02-1.44,1.71-2.88,1.94l-148.15-.03c-1.14-.3-2.01-1.02-2.43-2.02-.27-.64-.55-1.94.49-3.44,1.21-1.74,3.02-3.74,4.77-5.67,1.29-1.42,2.62-2.9,3.79-4.35,19.38-24.01,31.98-48.19,37.45-71.87l3.21-13.89-11.18,8.85c-16.04,12.69-29.18,20.1-42.61,24.03-7.04,2.06-14.4,3.11-21.87,3.11-22.04,0-45.02-9.26-63.05-25.39-18.42-16.49-29.65-37.83-31.62-60.1l-.64-6.99c.04-1.66.01-3.3-.02-4.88-.03-1.79-.07-3.48,0-5.13,1.07-24.07,10.25-46.52,25.87-63.23,15.96-17.07,37.38-26.46,60.32-26.46,3.78,0,7.65.25,11.49.75,3.9.51,7.89,1.4,11.28,2.21l10.29,2.45-4.64-9.51c-3.13-6.42-6.3-13.34-8.31-20.52-12.32-44.08,2.75-87.09,38.39-109.59,14.27-9.01,30.91-13.88,49.46-14.49h2.19M206.82,4.55h-3.39c-18.54.59-36.33,5.33-52.05,15.26-39.29,24.8-52.84,71.11-40.53,115.17,2.08,7.46,5.25,14.44,8.63,21.37-3.88-.92-7.82-1.79-11.79-2.3-4.12-.54-8.17-.79-12.14-.79-51.28,0-88.92,43.31-91.18,94.47-.15,3.45.11,6.94,0,10.39l.66,7.29c4.33,48.94,51.17,90.04,99.66,90.04,7.77,0,15.59-1.06,23.27-3.31,16.47-4.82,31-14.38,44.31-24.91-5.97,25.86-19.96,49.4-36.47,69.85-2.68,3.32-6.44,6.95-8.77,10.31-3.71,5.34-.78,12.19,5.52,13.31l149.02.03c7.41-.9,10.08-8.39,5.51-14.22-2.82-3.59-6.45-7.14-9.43-10.71-15.75-18.81-30.27-39.64-37.74-63.28,18.86,14.55,41.76,23.02,64.93,23.02,12.29,0,24.66-2.38,36.54-7.5,44.88-19.34,62.47-65.86,56.86-112.48-5.65-46.87-52.55-84.1-98.98-84.1-.46,0-.92,0-1.38.01l-5.4.43c23.18-43.26,11.54-105.55-30.97-132.37-14.85-9.37-36.01-14.57-53.51-14.75,0,0,0,0-.01,0-.15,0-.35.02-.54.02-.25,0-.49-.04-.61-.24h0Z"/>
</svg>