<?xml version="1.0" encoding="UTF-8"?>
<svg id="Layer_1" xmlns="http://www.w3.org/2000/svg" version="1.1" viewBox="0 0 373.44 450.03">
  <!-- Generator: Adobe Illustrator 29.8.1, SVG Export Plug-In . SVG Version: 2.1.1 Build 2)  -->
  <path d="M186.64,15.76c.75.18,1.3.34,1.66.55,58.38,70.75,115.91,140.98,171.03,208.77.37,1.23.15,2.56-.61,3.44l-.02.03-.02.03-169.85,204.82c-.71.57-1.56.88-2.44.88-.52,0-1.27-.12-1.98-.64L14.48,227.83l-.52-1.33c0-.16-.01-.31-.02-.45,0-.09-.01-.19-.02-.28.07-.23.18-.56.29-.82L184,16.93c.53-.53,1.44-1.02,2.14-1.18h.5M187.23,10.76h-1.48c-1.97.24-4.17,1.42-5.51,2.87L9.9,222.33c-.3.6-.86,2.14-.95,2.76-.1.72.07,1.59,0,2.33l1.16,2.97,170.75,206.81c1.6,1.4,3.56,2.07,5.52,2.07,2.17,0,4.34-.82,6.04-2.39l170.1-205.13c2.17-2.55,2.53-6.2,1.18-9.23-57.03-70.15-114.39-140.14-171.93-209.87-1.34-1.15-2.88-1.52-4.55-1.91h0Z"/>
</svg>