<?xml version="1.0" encoding="UTF-8"?>
<svg id="Layer_1" xmlns="http://www.w3.org/2000/svg" version="1.1" viewBox="0 0 379.03 437.45">
  <!-- Generator: Adobe Illustrator 29.8.1, SVG Export Plug-In . SVG Version: 2.1.1 Build 2)  -->
  <path d="M188.83,8.64c.41.12.78.21,1.09.28.2.05.47.11.56.14,1.27.47,3.87,3.27,5.12,4.62.34.37.66.71.96,1.03,9.75,10.25,18.96,21.54,27.86,32.46,7.62,9.35,15.51,19.02,23.78,28.1,10.03,11.01,21.27,22.01,33.17,33.65,19.88,19.45,40.44,39.56,56.94,61.44,18.44,24.45,28.79,47.39,31.65,70.15l.84,8.59c-.05,1.83-.02,3.63.02,5.38.04,1.98.08,3.85,0,5.67-1.89,40.87-30.61,75.45-69.85,84.07-5.79,1.27-10.53,1.86-14.91,1.86-7.09,0-13.81-1.57-22.48-5.26-8.15-3.46-16.12-8.08-23.83-12.54-4.83-2.8-9.83-5.69-14.89-8.32l-10.77-5.59,3.7,11.55c3.97,12.4,8.92,27.83,15.69,41.92l.2.42.28.38c5.08,6.89,10.35,13.8,15.45,20.49,8.04,10.54,16.34,21.43,24.03,32.42.65,2.14-.07,3.78-.6,4.59-.99,1.54-2.64,2.51-4.56,2.67H111.33c-2.29-.2-4.14-1.49-4.98-3.46-.82-1.93-.48-4.04.91-5.81,14.02-12.94,25.63-26.29,34.51-39.69,10.55-15.92,17.62-32.45,21.02-49.14l2.12-10.39-9.36,4.97-13.56,7.2c-16.13,7.82-33.83,11.96-51.19,11.96-14.82,0-28.88-3.16-40.66-9.14-12.92-6.56-23.14-16.36-30.4-29.13-10.54-18.56-14.25-45.76-9.68-70.99,6.51-35.93,38.08-74.42,68.1-107.34,8.61-9.44,17.83-18.86,26.74-27.97,12.53-12.81,25.49-26.06,37.19-39.77,5.11-5.99,9.85-12.47,14.43-18.73,3.29-4.5,6.7-9.16,10.17-13.52.32-.41.67-.85,1.04-1.32,3.68-4.67,13.39-16.97,18.9-17.89h2.2M189.69,3.64h-3.39c-8.07.91-18.61,14.92-23.52,21.1-8.33,10.48-15.84,21.97-24.49,32.11-19.9,23.34-43.06,44.87-63.81,67.62-26.28,28.81-62.23,70.67-69.32,109.82-4.34,23.95-1.89,52.98,10.25,74.35,16.24,28.6,45.25,40.8,75.41,40.8,18.26,0,36.94-4.48,53.45-12.5l13.64-7.24c-7.01,34.42-28.99,63.12-54.27,86.38-5.94,7.02-1.49,17.1,7.52,17.72h157.31c7.33-.45,12.2-7.6,9.46-14.57-12.73-18.24-26.72-35.64-39.93-53.56-6.36-13.25-10.95-27.29-15.43-41.28,13.07,6.79,25.49,15.25,39.07,21.03,9.05,3.85,16.42,5.66,24.44,5.66,4.91,0,10.06-.68,15.99-1.98,41.97-9.23,71.79-45.98,73.77-88.73.18-3.8-.13-7.65,0-11.45l-.88-8.98c-8.56-68.57-79.38-120.11-123.03-168.04-17.85-19.6-33.48-41.47-51.72-60.64-2.08-2.19-5.2-5.85-7.96-6.88-.84-.32-1.73-.38-2.54-.74h0Z"/>
</svg>