<?xml version="1.0" encoding="UTF-8"?>
<svg id="Layer_1" xmlns="http://www.w3.org/2000/svg" version="1.1" viewBox="0 0 405.5 382.48">
  <!-- Generator: Adobe Illustrator 29.8.1, SVG Export Plug-In . SVG Version: 2.1.1 Build 2)  -->
  <path d="M294.03,9.67c14.35,0,28.25,3.06,41.34,9.09,18.2,8.39,33.31,21.72,43.71,38.55,10.06,16.29,15.75,35.83,16.47,56.52v7.52c-.17.63-.25,1.35-.2,2.19-.28,22.14-13.16,44.97-27.05,66.36-23.04,35.49-52.43,69.53-75.46,95.22-24.83,27.71-49.98,53.97-74.73,78.06-.88.86-1.78,1.77-2.73,2.73-2.23,2.25-4.54,4.58-6.55,6.18-.32.26-.7.44-1.41.67-.2,0-.39.01-.59.02-.1,0-.2.01-.29.01-.32-.08-1.05-.42-2.04-1.27-3.68-3.16-7.44-7-11.08-10.7-1.94-1.97-3.94-4.01-5.9-5.92-45.76-44.52-79.73-79.57-110.14-113.66-19.66-22.03-37.01-41.97-50.25-62.91-16.28-25.76-21.55-61.66-13.43-91.46,6.08-22.31,19.14-41.53,37.76-55.6,18.07-13.65,40.24-21.17,62.44-21.17,11.65,0,23.15,2.02,34.21,6.01,19.43,7.02,37.69,21.01,51.4,39.41l2.91,3.91,3.98-2.81.46-.32.71-.5.5-.71c9.8-13.96,22.93-25.52,37.98-33.43,14.93-7.85,31.52-11.99,48-12h0M294.03,4.67c-35.08,0-69.09,17.67-90.06,47.56l-.46.32c-13.61-18.26-32.13-33.33-53.71-41.12-11.89-4.29-24-6.31-35.9-6.31C66.26,5.12,21.99,37.44,8.87,85.56c-8.42,30.9-3.06,68.42,14.03,95.45,14.03,22.19,33.24,43.96,50.74,63.57,35.1,39.33,72.63,77.17,110.39,113.91,5.58,5.43,11.37,11.8,17.21,16.83,1.3,1.11,2.99,2.22,4.72,2.46.16.02.32.03.5.03.42,0,.86-.04,1.28-.04.13,0,.26,0,.39.02,1.42-.41,2.66-.84,3.83-1.77,3.14-2.5,6.69-6.35,9.65-9.24,25.72-25.03,51.01-51.58,74.96-78.31,26.82-29.93,54.03-62.11,75.93-95.84,12.95-19.95,27.59-44.76,27.85-69.14,0-.33-.13-.87.2-1.08v-8.66c-1.46-43.09-23.42-81.25-63.09-99.53-14.09-6.49-28.86-9.55-43.44-9.54h0Z"/>
</svg>