<?xml version="1.0" encoding="UTF-8"?>
<svg id="Layer_1" xmlns="http://www.w3.org/2000/svg" version="1.1" viewBox="0 0 1920 1402.09">
  <!-- Generator: Adobe Illustrator 29.8.2, SVG Export Plug-In . SVG Version: 2.1.1 Build 3)  -->
  <defs>
    <style>
      .st0 {
        stroke: #000;
        stroke-miterlimit: 10;
      }
    </style>
  </defs>
  <g>
    <rect class="st0" x="6.01" y="1355.8" width="502.5" height="7.21"/>
    <rect class="st0" x="1411.49" y="1355.8" width="502.5" height="7.21"/>
  </g>
  <g>
    <path class="st0" d="M221.19,954.03c63.96,0,115.47-18.21,154.56-54.63,44.41-42.64,66.61-100.81,66.61-174.55v-119.91h-146.56v119.91c0,32.88-6.23,55.08-18.66,66.63-11.56,10.66-30.21,15.99-55.95,15.99s-43.09-5.33-54.63-15.99c-13.33-12.43-19.98-34.65-19.98-66.63V229.18c0-31.98,6.65-54.18,19.98-66.61,11.55-10.66,29.76-15.99,54.63-15.99s44.39,5.33,55.95,15.99c12.43,11.56,18.66,33.77,18.66,66.61v82.62h146.56v-82.62c0-73.71-22.2-131.91-66.61-174.55C336.66,18.21,285.15,0,221.19,0S107.48,18.21,66.63,54.63C22.2,99.06,0,157.24,0,229.18v495.67c0,71.96,22.2,130.14,66.63,174.55,40.85,36.42,92.38,54.63,154.56,54.63h0Z"/>
    <path class="st0" d="M986,943.37L799.46,10.66h-146.56l-186.54,932.71h149.23l26.65-147.9h167.88l26.65,147.9h149.23,0ZM667.55,648.89l58.63-334.44,58.63,334.44h-117.26Z"/>
    <path class="st0" d="M1385.71,531.64c7.99-5.31,15.1-11.09,21.32-17.31,44.41-40.87,66.63-99.04,66.63-174.55v-99.94c0-74.62-22.22-132.34-66.63-173.21-39.97-37.31-91.49-55.97-154.56-55.97h-221.18v932.71h146.56v-374.42h66.63l75.95,374.42h149.23l-83.96-411.73h0ZM1327.09,339.78c0,31.98-6.67,54.18-19.98,66.61-11.56,10.66-29.77,15.99-54.63,15.99h-74.62V157.24h74.62c24.86,0,43.07,5.33,54.63,15.99,13.32,13.33,19.98,35.54,19.98,66.61v99.94h0Z"/>
    <polygon class="st0" points="1680.16 796.81 1680.16 10.66 1533.6 10.66 1533.6 943.37 1920 943.37 1920 796.81 1680.16 796.81"/>
    <polygon class="st0" points="53.24 1198.59 82.78 1114.09 112.17 1198.59 124.17 1198.59 161.51 1092.87 147.71 1092.87 118.03 1179.15 88.48 1092.87 77.69 1092.87 47.74 1178.31 18.76 1092.87 4.36 1092.87 41.4 1198.59 53.24 1198.59"/>
    <path class="st0" d="M327.5,1092.87v63.43c0,14.3,3.65,25.14,10.95,32.54,7.3,7.4,17.94,11.1,31.94,11.1s24.62-3.7,31.86-11.1c7.25-7.4,10.87-18.24,10.87-32.54v-63.43h-13.8v62.98c0,10.7-2.45,18.67-7.35,23.92s-12.1,7.87-21.59,7.87-16.7-2.62-21.59-7.87c-4.9-5.25-7.35-13.22-7.35-23.92v-62.98h-13.95.01Z"/>
    <polygon class="st0" points="655.3 1104.27 655.3 1092.87 587.82 1092.87 587.82 1198.59 655.3 1198.59 655.3 1187.19 601.31 1187.19 601.31 1150.6 652.15 1150.6 652.15 1139.2 601.31 1139.2 601.31 1104.27 655.3 1104.27"/>
    <polygon class="st0" points="898.37 1175.17 836.29 1092.87 825.64 1092.87 825.64 1198.59 838.54 1198.59 838.54 1115.74 900.92 1198.59 911.41 1198.59 911.41 1092.87 898.37 1092.87 898.37 1175.17"/>
    <path class="st0" d="M1142.41,1196.11c5.95-2.55,10.52-6.1,13.72-10.65s4.8-9.82,4.8-15.82c0-7.3-2.42-13.12-7.27-17.47s-12.27-7.57-22.27-9.67l-15.74-3.15c-6.6-1.4-11.3-3.4-14.1-6-2.8-2.6-4.2-6.2-4.2-10.8,0-3.8,1.02-7.12,3.07-9.97,2.05-2.85,4.95-5.07,8.7-6.67,3.75-1.6,8.17-2.4,13.27-2.4,6.2,0,11.79.92,16.79,2.77s9.7,4.78,14.1,8.77l4.65-10.65c-2.8-2.8-6.05-5.17-9.75-7.12s-7.7-3.4-12-4.35-8.85-1.42-13.65-1.42c-7.7,0-14.47,1.3-20.32,3.9s-10.45,6.27-13.8,11.02c-3.35,4.75-5.02,10.27-5.02,16.57,0,7.7,2.32,13.85,6.97,18.44,4.65,4.6,11.67,7.9,21.07,9.9l15.89,3.3c4.7.9,8.5,2.05,11.4,3.45,2.9,1.4,5,3.1,6.3,5.1s1.95,4.45,1.95,7.35c0,5.2-2.08,9.4-6.22,12.6-4.15,3.2-10.62,4.8-19.42,4.8-4.9,0-9.4-.42-13.5-1.28-4.1-.85-7.95-2.15-11.55-3.9-3.6-1.75-7.05-3.87-10.35-6.37l-4.8,11.1c3.3,2.7,7,4.97,11.1,6.82s8.6,3.25,13.5,4.2,10.1,1.43,15.6,1.43c8.1,0,15.12-1.27,21.07-3.82h.01Z"/>
    <path class="st0" d="M1348.82,1193.34c7.5,4.4,16.5,6.6,26.99,6.6,7.2,0,13.92-1.15,20.17-3.45,6.25-2.3,11.47-5.6,15.67-9.9l-5.1-11.1c-4.6,4.1-9.35,7.1-14.25,9s-10.3,2.85-16.19,2.85c-11.6,0-20.47-3.62-26.62-10.87s-9.22-17.52-9.22-30.82,3.07-23.54,9.22-30.74,15.02-10.8,26.62-10.8c5.9,0,11.3.95,16.19,2.85,4.9,1.9,9.65,4.9,14.25,9l5.1-11.1c-4.2-4.4-9.42-7.72-15.67-9.97s-12.97-3.37-20.17-3.37c-10.5,0-19.49,2.2-26.99,6.6s-13.27,10.65-17.32,18.74c-4.05,8.1-6.07,17.69-6.07,28.79s2.02,20.72,6.07,28.87c4.05,8.15,9.82,14.42,17.32,18.82Z"/>
    <polygon class="st0" points="1580.35 1092.87 1580.35 1198.59 1594.29 1198.59 1594.29 1150.9 1655.47 1150.9 1655.47 1198.59 1669.42 1198.59 1669.42 1092.87 1655.47 1092.87 1655.47 1139.05 1594.29 1139.05 1594.29 1092.87 1580.35 1092.87"/>
    <polygon class="st0" points="1912.34 1104.27 1912.34 1092.87 1844.86 1092.87 1844.86 1198.59 1912.34 1198.59 1912.34 1187.19 1858.35 1187.19 1858.35 1150.6 1909.19 1150.6 1909.19 1139.2 1858.35 1139.2 1858.35 1104.27 1912.34 1104.27"/>
  </g>
  <g>
    <path class="st0" d="M608.61,1369.2c-1.11-.69-2.29-1.21-3.55-1.56,1.4-.4,2.73-.88,3.97-1.47,3.9-1.85,6.86-4.48,8.89-7.89,2.02-3.41,3.03-7.49,3.03-12.23,0-7.25-2.27-12.91-6.8-16.99-4.53-4.08-10.94-6.12-19.24-6.12h-35.55v73.7h19.24v-27.5h5.75c1.18,0,2.23.12,3.14.37.9.25,1.74.66,2.51,1.25s1.43,1.38,1.99,2.35l12.86,23.52h21.01l-11.5-20.91c-1.53-2.93-3.45-5.1-5.75-6.53h0ZM591.36,1355.56h-12.75v-17.88h12.75c3.69,0,6.5.73,8.42,2.2,1.92,1.46,2.88,3.73,2.88,6.8s-.96,5.23-2.88,6.69-4.72,2.19-8.42,2.19h0Z"/>
    <polygon class="st0" points="666.63 1396.64 718.69 1396.64 718.69 1381.8 684.93 1381.8 684.93 1366.64 716.39 1366.64 716.39 1351.79 684.93 1351.79 684.93 1337.79 718.69 1337.79 718.69 1322.94 666.63 1322.94 666.63 1396.64"/>
    <path class="st0" d="M788.64,1322.94l-34.29,73.7h19.03l6.35-14.85h33.09l6.35,14.85h19.24l-34.5-73.7h-15.27ZM796.16,1343.01h.21l10.03,23.94h-20.26l10.02-23.94h0Z"/>
    <polygon class="st0" points="895.58 1322.94 876.35 1322.94 876.35 1396.64 928.31 1396.64 928.31 1380.65 895.58 1380.65 895.58 1322.94"/>
    <polygon class="st0" points="951.1 1338.62 974.41 1338.62 974.41 1396.64 993.65 1396.64 993.65 1338.62 1017.06 1338.62 1017.06 1322.94 951.1 1322.94 951.1 1338.62"/>
    <path class="st0" d="M1116.23,1332.14c-3.31-3.35-7.27-5.92-11.87-7.74-4.6-1.81-9.69-2.72-15.26-2.72s-10.66.92-15.26,2.77-8.57,4.43-11.92,7.74c-3.35,3.31-5.91,7.28-7.68,11.92-1.78,4.64-2.67,9.81-2.67,15.53s.9,10.92,2.72,15.63c1.81,4.7,4.35,8.73,7.63,12.07,3.28,3.35,7.21,5.94,11.81,7.79,4.6,1.85,9.72,2.77,15.37,2.77s10.66-.92,15.26-2.77,8.56-4.44,11.87-7.79c3.31-3.35,5.86-7.35,7.63-12.02,1.78-4.67,2.67-9.9,2.67-15.68s-.89-10.89-2.67-15.53c-1.78-4.63-4.32-8.62-7.63-11.97h0ZM1104.46,1371.55c-1.39,3.28-3.38,5.79-5.96,7.53s-5.68,2.61-9.3,2.61-6.85-.87-9.46-2.61-4.64-4.25-6.06-7.53c-1.43-3.27-2.14-7.21-2.14-11.81s.71-8.54,2.14-11.81c1.43-3.28,3.45-5.77,6.06-7.48,2.61-1.71,5.73-2.56,9.36-2.56s6.74.85,9.36,2.56c2.61,1.71,4.62,4.2,6.01,7.48s2.09,7.21,2.09,11.81-.7,8.54-2.09,11.81h-.01Z"/>
    <path class="st0" d="M1220.61,1369.2c-1.11-.69-2.29-1.21-3.55-1.56,1.4-.4,2.73-.88,3.97-1.47,3.9-1.85,6.86-4.48,8.89-7.89,2.02-3.41,3.03-7.49,3.03-12.23,0-7.25-2.27-12.91-6.8-16.99s-10.94-6.12-19.24-6.12h-35.55v73.7h19.24v-27.5h5.75c1.18,0,2.23.12,3.14.37.9.25,1.74.66,2.51,1.25s1.43,1.38,1.99,2.35l12.86,23.52h21.01l-11.5-20.91c-1.53-2.93-3.45-5.1-5.75-6.53h0ZM1203.36,1355.56h-12.75v-17.88h12.75c3.69,0,6.5.73,8.42,2.2,1.92,1.46,2.88,3.73,2.88,6.8s-.96,5.23-2.88,6.69-4.72,2.19-8.42,2.19h0Z"/>
    <path class="st0" d="M1303.63,1379.62v-39.19h16.63c3.06,0,5.73.48,8.02,1.43,2.29.95,4.06,2.34,5.32,4.16,1.26,1.82,1.89,4.03,1.89,6.62,0,1.9-.34,3.57-1.01,5.01-.67,1.44-1.57,2.65-2.69,3.64s-2.35,1.76-3.69,2.32l9.68,16.01h-13.32l-7.33-13.49h-2.18v13.49h-11.32ZM1314.94,1357.23h4.14c1.55,0,2.77-.28,3.65-.84.89-.56,1.33-1.55,1.33-2.97s-.44-2.43-1.33-2.98c-.89-.55-2.09-.83-3.6-.83h-4.2v7.61h0Z"/>
    <path class="st0" d="M1318.58,1402.09c-23.19,0-42.05-18.86-42.05-42.05s18.86-42.05,42.05-42.05,42.05,18.86,42.05,42.05-18.86,42.05-42.05,42.05ZM1318.58,1328.29c-17.5,0-31.75,14.24-31.75,31.75s14.24,31.75,31.75,31.75,31.75-14.24,31.75-31.75-14.24-31.75-31.75-31.75Z"/>
  </g>
</svg>