<?xml version="1.0" encoding="UTF-8"?>
<svg id="Layer_1" data-name="Layer 1" xmlns="http://www.w3.org/2000/svg" viewBox="0 0 1920 1090.6">
  <g>
    <polygon points="1195.3 218.8 974.4 338.4 974.4 0 1195.3 218.8"/>
    <path d="M717.4,222.2L940.5,0v509.4h-96.1c-70.1,0-126.9-56.8-126.9-126.9v-160.2l-.1-.1Z"/>
    <polygon points="1207.3 250.8 1207.3 509.4 974.4 509.4 974.4 376.9 1207.3 250.8"/>
  </g>
  <g>
    <path d="M540.3,642.8c16.3,8.8,28.8,20.3,37.5,34.5v-43.3h93.7v305.3c0,28.1-5.6,53.6-16.7,76.5-11.1,22.8-28.1,41-51,54.5-22.8,13.5-51.2,20.3-85.2,20.3s-82-10.7-110.2-32.1c-28.1-21.4-44.2-50.3-48.2-86.9h92.6c2.9,11.7,9.9,20.9,20.8,27.7,11,6.8,24.5,10.1,40.6,10.1s34.8-5.6,46.3-16.7c11.5-11.2,17.3-29,17.3-53.4v-43.3c-9.1,14.2-21.8,25.9-37.8,34.8-16.1,9-34.9,13.4-56.5,13.4s-48.1-6.5-68.5-19.5c-20.5-13-36.6-31.4-48.5-55.4-11.9-23.9-17.8-51.6-17.8-83s5.9-59,17.8-82.8c11.9-23.7,28-42,48.5-54.8s43.3-19.2,68.5-19.2,40.5,4.4,56.7,13.2l.1.1ZM558.4,731.6c-13-13.5-28.8-20.3-47.4-20.3s-34.4,6.7-47.4,20-19.5,31.7-19.5,55.1,6.5,41.9,19.5,55.6c13,13.7,28.8,20.6,47.4,20.6s34.4-6.8,47.4-20.3,19.5-32,19.5-55.4-6.5-41.8-19.5-55.4v.1Z"/>
    <path d="M888.1,860.4v79.5h-47.7c-34,0-60.5-8.3-79.5-24.9-19-16.6-28.5-43.8-28.5-81.4v-121.7h-37.3v-77.8h37.3v-55.5h93.7v55.5h61.4v77.8h-61.4v122.8c0,9.1,2.2,15.7,6.6,19.7,4.4,4,11.7,6,21.9,6h33.5Z"/>
    <path d="M917.4,703.6c11.9-23.7,28-42,48.5-54.8s43.3-19.2,68.5-19.2,40.5,4.4,56.7,13.2c16.3,8.8,28.8,20.3,37.5,34.5v-43.3h93.7v305.8h-93.7v-43.3c-9.1,14.2-21.8,25.8-38.1,34.5-16.3,8.8-35.2,13.2-56.7,13.2s-47.5-6.5-68-19.5-36.6-31.4-48.5-55.4c-11.9-23.9-17.8-51.6-17.8-83s5.9-59,17.8-82.8l.1.1ZM1109.2,731.6c-13-13.5-28.8-20.3-47.4-20.3s-34.4,6.7-47.4,20-19.5,31.7-19.5,55.1,6.5,41.9,19.5,55.6c13,13.7,28.8,20.6,47.4,20.6s34.4-6.8,47.4-20.3,19.5-32,19.5-55.4-6.5-41.8-19.5-55.4v.1Z"/>
    <path d="M17.9,703.6c11.9-23.7,28-42,48.5-54.8,20.5-12.8,43.3-19.2,68.5-19.2s40.5,4.4,56.7,13.2c16.3,8.8,28.8,20.3,37.5,34.5v-43.3h93.7v305.8h-93.7v-43.3c-9.1,14.2-21.8,25.8-38.1,34.5-16.3,8.8-35.2,13.2-56.7,13.2s-47.5-6.5-68-19.5-36.6-31.4-48.5-55.4c-11.9-23.9-17.8-51.6-17.8-83s5.9-59,17.8-82.8l.1.1ZM209.7,731.6c-13-13.5-28.8-20.3-47.4-20.3s-34.4,6.7-47.4,20-19.5,31.7-19.5,55.1,6.5,41.9,19.5,55.6c13,13.7,28.8,20.6,47.4,20.6s34.4-6.8,47.4-20.3,19.5-32,19.5-55.4-6.5-41.8-19.5-55.4v.1Z"/>
    <path d="M1540.6,665.5c21.4,23.2,32.1,55.1,32.1,95.6v178.7h-93.2v-166.1c0-20.5-5.3-36.3-15.9-47.7-10.6-11.3-24.9-17-42.7-17s-32.2,5.7-42.7,17c-10.6,11.3-15.9,27.2-15.9,47.7v166.1h-93.7v-305.8h93.7v40.6c9.5-13.5,22.3-24.2,38.4-32.1,16.1-7.8,34.2-11.8,54.3-11.8,35.8,0,64.4,11.6,85.8,34.8h-.2Z"/>
    <path d="M1788.8,642.8c16.3,8.8,28.8,20.3,37.5,34.5v-43.3h93.7v305.3c0,28.1-5.6,53.6-16.7,76.5-11.1,22.8-28.1,41-51,54.5-22.8,13.5-51.2,20.3-85.2,20.3s-82-10.7-110.2-32.1c-28.1-21.4-44.2-50.3-48.2-86.9h92.6c2.9,11.7,9.9,20.9,20.8,27.7,11,6.8,24.5,10.1,40.6,10.1s34.8-5.6,46.3-16.7c11.5-11.2,17.3-29,17.3-53.4v-43.3c-9.1,14.2-21.8,25.9-37.8,34.8-16.1,9-34.9,13.4-56.5,13.4s-48.1-6.5-68.5-19.5c-20.5-13-36.6-31.4-48.5-55.4-11.9-23.9-17.8-51.6-17.8-83s5.9-59,17.8-82.8c11.9-23.7,28-42,48.5-54.8s43.3-19.2,68.5-19.2,40.5,4.4,56.7,13.2l.1.1ZM1806.9,731.6c-13-13.5-28.8-20.3-47.4-20.3s-34.4,6.7-47.4,20-19.5,31.7-19.5,55.1,6.5,41.9,19.5,55.6c13,13.7,28.8,20.6,47.4,20.6s34.4-6.8,47.4-20.3,19.5-32,19.5-55.4-6.5-41.8-19.5-55.4v.1Z"/>
    <g>
      <path d="M733,1047.8v-63.7h26.4c6.8,0,12.1,1.6,15.8,4.8s5.6,7.6,5.6,13.4-.8,7-2.5,9.7c-1.7,2.6-4.1,4.7-7.1,6.1-3,1.4-6.6,2.1-10.6,2.1l1.5-1.3h2.2c2.5,0,4.7.6,6.6,1.9,1.9,1.2,3.5,3.2,4.8,6l9,21.1h-9.3l-8.8-21c-1-2.6-2.5-4.3-4.5-5.1s-4.4-1.2-7.4-1.2h-13.3v27.2h-8.4ZM741.4,1014.1h16.7c4.6,0,8.2-1,10.6-3,2.4-2,3.7-4.9,3.7-8.7s-1.2-6.6-3.7-8.5c-2.4-2-6-2.9-10.6-2.9h-16.7v23.1h0Z"/>
      <path d="M821.1,1047.8v-63.7h41.2v6.9h-33.1v21.1h31v6.9h-31v22h33.1v6.9h-41.2v-.1Z"/>
      <path d="M891.9,1047.8l28.2-63.7h7.3l28.6,63.7h-8.7l-7.9-18.1,3.6,2.2h-38.8l4-2.2-7.9,18.1h-8.6.2ZM923.6,993.5l-14.1,33.4-2.2-1.9h32.8l-1.7,1.9-14.5-33.4h-.4.1Z"/>
      <path d="M990.4,1047.8v-63.7h8.4v56.5h31.7v7.2h-40.1Z"/>
      <path d="M1114.4,1047.8v-63.7h41.2v6.9h-33.1v21.1h31v6.9h-31v22h33.1v6.9h-41.2v-.1Z"/>
      <path d="M1213.2,1048.6c-5.1,0-9.7-.7-13.8-2-4.1-1.3-7.6-3.2-10.7-5.6l2.9-6.7c2.1,1.6,4.2,2.9,6.4,3.9s4.5,1.8,7,2.4c2.5.5,5.2.8,8.2.8,5.2,0,9.1-.9,11.6-2.8s3.7-4.4,3.7-7.5-.9-4.8-2.6-6.2c-1.7-1.4-4.8-2.6-9.1-3.4l-9.7-2c-5.8-1.2-10.2-3.2-13-5.9-2.9-2.7-4.3-6.5-4.3-11.2s1-7.1,3-10,4.8-5.1,8.4-6.6,7.8-2.4,12.6-2.4,8.6.7,12.4,2,7,3.3,9.6,5.9l-2.9,6.4c-2.7-2.5-5.6-4.3-8.7-5.4s-6.6-1.7-10.5-1.7-8.5,1-11.3,3.1c-2.8,2-4.2,4.8-4.2,8.3s.9,5,2.6,6.5c1.7,1.6,4.6,2.8,8.7,3.7l9.7,1.9c6.1,1.2,10.6,3.1,13.5,5.7,2.9,2.6,4.3,6.2,4.3,10.7s-1,6.8-2.9,9.5-4.7,4.9-8.2,6.4-7.8,2.3-12.6,2.3l-.1-.1Z"/>
      <path d="M1288,1047.8v-56.5h-22v-7.1h52.7v7.1h-22.1v56.5h-8.6Z"/>
      <path d="M1339.4,1047.8l28.2-63.7h7.3l28.6,63.7h-8.7l-7.9-18.1,3.6,2.2h-38.8l4-2.2-7.9,18.1h-8.6.2ZM1371.1,993.5l-14.1,33.4-2.2-1.9h32.8l-1.7,1.9-14.5-33.4h-.4.1Z"/>
      <path d="M1446.2,1047.8v-56.5h-22v-7.1h52.7v7.1h-22.1v56.5h-8.6Z"/>
      <path d="M1511.1,1047.8v-63.7h41.2v6.9h-33.1v21.1h31v6.9h-31v22h33.1v6.9h-41.2v-.1Z"/>
    </g>
  </g>
</svg>