<svg width="2691" height="1080" viewBox="0 0 2691 1080" fill="none" xmlns="http://www.w3.org/2000/svg">
<g clip-path="url(#clip0_40_26)">
<path d="M1524.72 415.11C1507.41 408.29 1476.1 430.06 1490.12 447.5C1505.44 466.54 1533.88 436.37 1524.72 415.11Z" fill="black"/>
<path d="M2639.1 858.61C2609.93 838.12 2578.13 822.71 2544.92 810.86L2544 781.5C2579.87 763.16 2608.4 755.44 2625.51 713.3C2647.15 660.04 2617.95 649.15 2612.24 605.22C2607.82 571.3 2622.96 543.37 2586.01 520.25C2546.01 495.23 2471.46 537.5 2455.77 577.83C2450.62 591.08 2451.34 607.23 2446.02 619.41C2440.75 631.49 2422.64 647.74 2415.85 661.95C2388.98 718.07 2415.51 759.32 2470.91 776.46C2489.95 782.35 2506.36 781.47 2524.46 787.08L2526.09 804.57C2480.33 790.26 2432.37 782.11 2385.13 776.76C2385.13 776.76 2381.88 625.75 2380.69 539.33L2387.22 528.62C2390.36 537.73 2426.34 572.65 2419.68 543.77C2415.08 523.86 2360.07 483.72 2351.45 460.33C2348.31 423.09 2346.92 386.2 2346.06 348.79C2345.9 341.81 2343.88 329.7 2344.64 324.9C2345.15 321.73 2361.84 319.7 2354.72 303.26H2278.88C2276.15 303.26 2272.24 310.5 2272.28 314.13C2272.41 324.48 2284.12 322.4 2285.49 327.94C2288.93 341.97 2284.6 362.51 2283.24 376.89L2186.29 245.68C2184.71 243.55 2182.33 242.15 2179.71 241.8L2174.23 241.08C2170.6 240.59 2167 242.18 2164.91 245.19L1925.87 589.37C1911.7 602.71 1897.55 612.42 1886.58 611.79C1832.1 608.65 1882.28 479.33 1840.26 461.12C1792.19 440.31 1767.97 514.39 1748.97 543.04C1732.9 567.28 1663 645.5 1631.64 626.85C1606.87 612.12 1643.61 520.86 1661.63 502.74L1665.85 500.64L1672.84 513.04C1713.52 527.42 1737.77 415.64 1664.22 445.47C1623.86 461.84 1618.08 513.74 1596.78 544.84C1581.44 567.22 1512.92 621.62 1486.23 605.47C1465.38 592.85 1498.04 530.08 1503.29 511.21C1471.29 459.97 1461.86 520.04 1448.66 542.16C1434.44 565.97 1381.27 601.61 1353.27 583.42C1346.13 542.57 1359.74 463.42 1293.57 502.58L1242.47 573.32C1243.93 542.5 1297.27 456.95 1234.57 467.17L1208.07 532.57L1161.18 543.4C1168.2 510.13 1148.59 482.06 1152.19 452.06L1145.66 445.35C1110.04 448.54 1061.34 449.49 1044.59 488.92C1038.55 503.15 1044.77 521.57 1039.28 530.66C1038.15 532.54 1006.74 550.2 1001.46 552.74C975.18 565.36 913.71 587.76 891.52 562.78C854.75 521.39 933.89 379.15 904.67 327.23C874.64 273.88 819.28 362.58 804.27 385.56C742.59 480.04 705.69 589.06 639.25 680.29C669.5 495.24 757.87 313.4 776.06 126.41C780.07 85.2499 785.77 -3.5901 722.77 0.129897C663.35 3.6299 563.54 131.12 528.76 178.58C487.38 235.06 452.36 296.37 414.58 355.26C407.25 279.9 441.87 155.67 376.22 98.5599C351.62 77.1699 283.66 64.6999 288.07 109.47C291.7 146.26 335.74 118.77 354.37 150.35C387 205.69 369.84 373.49 355.58 437.41C337.55 518.26 267.05 617.64 232.03 698.81C220.16 726.33 205.7 760.09 193.41 795.42C136.42 790.52 79.5702 783.84 22.9502 774.67C-3.22981 770.29 -8.74981 806.88 15.4202 811.96C26.2202 813.93 36.3102 815.3 46.9202 816.76C92.0102 822.32 137.2 826.5 182.45 829.66C170.43 871.2 163.41 912.84 168.85 947.36C175.1 987.05 212.95 985.78 236.31 955.42C254.39 931.91 274.19 886.12 292.51 835.43C447.05 841.13 602.07 837.61 756.36 836.63C1118.51 838.3 1502.61 832.27 1864.41 822.49C1884.2 821.68 1938.27 817.83 1956.75 817.79C1966.41 818.09 1976.08 819.18 1985.94 822.47C1986.74 844.11 1988.7 861.31 1992.89 866.54L2001.12 870.64L2384.42 861.53C2394.43 846.05 2385.22 832.21 2384.87 816.84C2384.86 816.18 2384.84 815.54 2384.83 814.88C2426.54 816.55 2468.16 821.94 2508.62 831.69C2515.51 833.36 2522.33 835.21 2529.13 837.14L2534.66 896.68L2547.72 898.56L2545.95 842.28C2553.74 844.83 2561.48 847.52 2569.08 850.55C2654.34 883.84 2723.83 968.2 2604.85 1018.7C2524.82 1050.5 2440.37 1063.39 2354.86 1066.28C2277.96 1069.75 2122.35 1063.3 2166.46 948.41C2170.21 938.79 2175.54 929.19 2181.48 920.89C2190.02 904.91 2167.05 891.68 2157.55 907.26C2140.84 938.84 2130.81 977.3 2144.36 1011.93C2176.2 1085.52 2287.27 1079.88 2355.08 1079.96C2446 1078.23 2562.2 1065.98 2642.77 1021.38C2714.44 980.14 2699.37 901.94 2639.16 858.65H2639.08L2639.1 858.61ZM1764.28 586.72C1764.53 585.12 1764.85 583.37 1765.23 581.56C1765.51 580.19 1765.82 578.8 1766.14 577.41C1767.11 573.22 1768.24 569 1769.2 565.71C1769.84 563.52 1770.42 561.74 1770.83 560.64C1770.96 560.29 1771.12 559.88 1771.32 559.43C1771.7 558.52 1772.2 557.43 1772.8 556.18C1773.4 554.93 1774.11 553.53 1774.92 551.99C1775.73 550.45 1776.6 548.8 1777.57 547.04C1779.99 542.65 1782.88 537.67 1786.06 532.56C1787.33 530.52 1788.65 528.46 1789.99 526.41C1792 523.34 1794.09 520.29 1796.21 517.38C1797.62 515.44 1799.04 513.56 1800.45 511.76C1801.86 509.96 1803.28 508.25 1804.68 506.67C1806.09 505.08 1807.47 503.61 1808.82 502.29C1810.17 500.97 1811.5 499.81 1812.79 498.82C1813.43 498.32 1814.06 497.87 1814.68 497.48C1815.92 496.68 1817.11 496.07 1818.24 495.71C1819.37 495.35 1820.45 495.18 1821.43 495.3C1822.43 495.41 1823.35 495.79 1824.18 496.44C1824.44 496.65 1824.48 497.23 1824.32 498.14C1824.04 499.64 1823.22 502.02 1821.97 505.04C1821.3 506.66 1820.52 508.46 1819.63 510.4C1817.86 514.29 1815.7 518.78 1813.3 523.58C1812.7 524.78 1812.09 526 1811.46 527.23C1810.21 529.7 1808.91 532.22 1807.58 534.79C1806.25 537.34 1804.9 539.91 1803.55 542.49C1802.2 545.07 1800.83 547.61 1799.48 550.12C1798.13 552.63 1796.8 555.09 1795.5 557.47C1788.35 570.56 1782.27 581.18 1780.68 583.38C1779.89 584.48 1779.13 585.63 1778.35 586.73C1777.57 587.85 1776.79 588.94 1775.93 589.95C1773.1 593.3 1769.7 595.68 1764.29 594.76C1763.5 593.87 1763.63 590.77 1764.24 586.76L1764.29 586.72H1764.28ZM1122.33 482.05C1122.79 481.63 1123.3 481.25 1123.85 480.91C1124.95 480.21 1126.23 479.66 1127.52 479.27C1128.81 478.88 1130.12 478.63 1131.3 478.55C1131.89 478.51 1132.46 478.51 1132.97 478.55C1133.48 478.59 1133.96 478.67 1134.35 478.79C1134.74 478.91 1135.09 479.08 1135.34 479.29C1136.98 480.64 1140.19 510.05 1139.98 515.69C1138.51 555.26 1125.09 548.88 1092.62 543.42C1088.6 539.53 1116.62 487.34 1122.33 482.08V482.05ZM1122.58 564.84L1101.13 597.09C1090.14 602.58 1084.09 587.96 1083.8 579.92C1082.74 550.77 1102.66 561.89 1122.58 564.85V564.84ZM1084.07 479.3C1078.43 489.87 1074.7 503.79 1062.73 509.2C1058.37 500.4 1077.13 472.72 1084.07 479.3ZM204.9 936.79C198.84 932.77 198.79 928.52 198.16 921.99C197.82 918.49 197.81 914.49 198.09 910.03C198.37 905.58 198.94 900.66 199.77 895.38C200.32 891.85 201.01 888.15 201.78 884.29C202.56 880.43 203.45 876.42 204.43 872.28C205.91 866.05 207.61 859.53 209.52 852.75C210.78 848.23 212.14 843.6 213.55 838.9C214.26 836.55 215 834.16 215.74 831.76C227.84 832.47 239.96 833.1 252.06 833.68C231.7 891.47 212.82 936.57 204.88 936.8L204.9 936.79ZM296.97 693.92C294.7 701.69 292.31 709.68 289.85 717.78C289.04 720.49 288.21 723.21 287.37 725.94C284.02 736.86 280.55 747.98 277 759.11C272.57 773.03 268.02 786.94 263.47 800.54C262.69 800.49 261.93 800.43 261.16 800.38C249.75 799.67 238.35 798.91 226.94 798.07C228.61 793.3 230.33 788.49 232.08 783.67C234.71 776.43 237.43 769.15 240.2 761.86C242.05 757.01 243.93 752.15 245.82 747.31C246.77 744.89 247.73 742.47 248.68 740.07C250.6 735.25 252.53 730.46 254.48 725.71C257.4 718.59 260.31 711.54 263.24 704.65C281.76 660.94 300.05 622.84 311.77 603.19C313.16 600.86 314.24 597.92 315.78 595.45C316.54 594.21 317.42 593.08 318.53 592.2C319.62 591.32 320.92 590.69 322.52 590.45C322.38 593.26 321.78 597.28 320.84 602.36C320.37 604.9 319.79 607.7 319.13 610.73C318.47 613.77 317.72 617.04 316.9 620.52C316.48 622.27 316.05 624.07 315.6 625.91C314.69 629.6 313.71 633.51 312.66 637.59C311.61 641.68 310.48 645.93 309.28 650.36C308.08 654.79 306.84 659.37 305.52 664.09C304.21 668.81 302.84 673.67 301.41 678.65C299.99 683.63 298.51 688.72 296.99 693.89V693.92H296.98H296.97ZM1986.58 715.93C1986.54 719.33 1986.47 723.04 1986.4 726.98C1986.03 746.66 1985.35 772.2 1985.43 796.14C1975.82 800.69 1965.99 802.68 1956.15 803.79C1948.99 804.55 1931.31 804.78 1913.14 804.83H1876.28C1872.67 804.83 1869.54 804.83 1867.08 804.86C1865.86 804.86 1864.79 804.89 1863.93 804.9C1858.87 804.9 1853.31 804.91 1847.35 804.94C1841.39 804.97 1834.98 805.01 1828.22 805.06C1824.84 805.09 1821.36 805.11 1817.81 805.14C1792.92 805.35 1763.92 805.68 1733.41 806.06C1724.7 806.17 1715.85 806.28 1706.94 806.4C1701.93 806.47 1696.9 806.53 1691.85 806.6C1681.77 806.73 1671.65 806.86 1661.59 807.01C1636.41 807.35 1611.54 807.69 1588.29 808.01C1583.64 808.08 1579.05 808.13 1574.54 808.19C1561.02 808.37 1548.18 808.53 1536.31 808.68C1528.4 808.77 1520.92 808.86 1513.96 808.94C1510.48 808.98 1507.13 809.02 1503.92 809.05C1500.71 809.08 1497.64 809.12 1494.72 809.14C1465.05 809.69 1435 810.14 1404.64 810.49C1374.28 810.86 1343.64 811.12 1312.79 811.32C1127.69 812.5 935.36 810.98 756.32 809.28C680.97 808.87 605.48 809.16 530.01 808.6C492.27 808.32 454.54 807.82 416.84 806.93C379.14 806.04 341.45 804.74 303.82 802.86C324.41 741.81 341.99 679.06 351.3 642.77C371.76 562.91 377.07 476.49 415.95 403.75C428.79 379.74 444.99 353.3 462.21 326.86C469.6 315.52 477.16 304.19 484.73 293.04C492.3 281.9 499.87 270.94 507.27 260.35C514.66 249.77 521.87 239.56 528.7 229.93C577.08 161.78 632.93 85.3399 706.26 43.7899C728.47 41.7499 725.66 104.17 724.64 117.88C723.79 129.54 722.59 141.24 721.08 152.99C719.57 164.74 717.74 176.54 715.65 188.38C704.18 253.48 684.73 319.7 664.78 385.79C661.15 397.81 657.51 409.82 653.9 421.82C650.29 433.82 646.7 445.82 643.19 457.79C639.68 469.76 636.24 481.72 632.93 493.64C629.61 505.57 626.41 517.46 623.38 529.33C615.78 559 609.21 588.45 604.38 617.57C602.45 629.23 600.78 640.82 599.44 652.35C598.1 663.88 597.09 675.36 596.43 686.77C592.32 758.61 616.8 787.23 662.34 718.45C682.05 688.7 698.88 655.62 714.67 621.25C718.18 613.62 721.62 605.91 725.05 598.16C728.48 590.41 731.86 582.63 735.22 574.82C738.6 567.01 741.95 559.2 745.31 551.36C746.99 547.44 748.67 543.54 750.37 539.63C753.75 531.81 757.14 524.02 760.57 516.25C762.28 512.37 764.01 508.5 765.75 504.63C772.69 489.18 779.81 473.92 787.27 459.03C791 451.58 794.81 444.22 798.74 436.98C800.7 433.35 802.68 429.77 804.71 426.2C810.75 415.52 817.06 405.11 823.69 395.06C830.31 385.01 837.26 375.31 844.61 366.05C855.08 352.83 880.43 317.94 889.64 346.51C898.65 374.46 871.53 453.19 867.09 486.87C864.49 506.66 863.96 523.11 865.21 536.69C865.53 540.08 865.95 543.3 866.48 546.34C866.74 547.86 867.03 549.34 867.36 550.77C867.99 553.63 868.74 556.33 869.58 558.86C872.52 567.73 876.68 574.59 881.85 579.75C883.33 581.22 884.89 582.56 886.53 583.76C888.99 585.56 891.63 587.07 894.43 588.29C898.16 589.93 902.17 591.09 906.44 591.8C909.63 592.34 912.97 592.63 916.43 592.71C924.5 592.88 933.24 591.86 942.45 589.91C945.08 589.36 947.75 588.73 950.45 588.03C981.53 580.03 1017.05 563.12 1049.85 547.71C1043.92 584.62 1056.89 646.42 1106.24 627.72C1141.48 614.36 1140.75 575.09 1157.07 562.88C1166.57 555.77 1189.65 555.74 1201.72 551.91C1205.06 578.34 1181.27 611.73 1206.78 632.65C1224.52 637.67 1232.17 625.03 1241.68 613.24C1250.31 602.54 1257.28 590.44 1264.11 578.22C1266.38 574.15 1268.66 570.06 1270.96 566.01C1272.12 563.99 1273.29 561.96 1274.47 559.97C1276.84 555.96 1279.28 552.02 1281.84 548.17C1283.13 546.25 1284.44 544.36 1285.8 542.49C1289.87 536.91 1294.3 531.6 1299.28 526.75C1300.94 525.13 1302.67 523.57 1304.46 522.05C1313.82 534.42 1309.16 550.85 1312.73 565.07C1326.29 619.37 1370.14 620.83 1413.77 597.09C1415.22 596.3 1416.57 595.43 1417.86 594.51C1420.44 592.67 1422.75 590.63 1424.98 588.62C1426.1 587.61 1427.2 586.61 1428.3 585.65C1429.96 584.2 1431.64 582.84 1433.41 581.64C1435.18 580.46 1437.05 579.45 1439.1 578.7C1440.47 578.21 1441.91 577.85 1443.46 577.62C1443.62 579.47 1443.83 581.27 1444.06 583.02C1444.53 586.52 1445.16 589.79 1445.94 592.86C1447.48 599 1449.57 604.28 1452.16 608.77C1453.45 611.02 1454.87 613.07 1456.39 614.93C1457.15 615.86 1457.94 616.74 1458.76 617.58C1462.03 620.93 1465.72 623.55 1469.77 625.48C1470.78 625.97 1471.82 626.4 1472.87 626.79C1476.04 627.99 1479.39 628.8 1482.9 629.26C1486.41 629.72 1490.07 629.84 1493.87 629.63C1496.39 629.49 1498.98 629.2 1501.61 628.78C1513.44 626.86 1526.18 622.16 1539 615.32C1542.63 613.38 1555.5 603.16 1567.82 593.83C1570.89 591.49 1573.94 589.22 1576.8 587.14C1579.65 585.06 1582.32 583.17 1584.63 581.63C1586.96 580.09 1588.93 578.88 1590.41 578.16C1591.89 577.44 1592.88 577.2 1593.21 577.59C1592.96 581.24 1592.82 584.74 1592.78 588.09C1592.62 601.47 1594.09 612.37 1596.87 621.11C1598.95 627.67 1601.77 633 1605.17 637.23C1606.31 638.64 1607.51 639.94 1608.78 641.11C1609.04 641.35 1609.33 641.53 1609.59 641.75C1612.42 644.21 1615.54 646.1 1618.91 647.48C1622.72 649.06 1626.81 650.02 1631.14 650.34C1633.1 650.48 1635.08 650.55 1637.12 650.46C1641 650.3 1645 649.72 1649.1 648.79C1653.2 647.86 1657.4 646.56 1661.65 644.93C1665.89 643.3 1670.18 641.37 1674.46 639.13C1678.74 636.91 1683.01 634.41 1687.25 631.68C1693.58 627.58 1699.8 622.95 1705.74 617.95C1709.7 614.61 1713.53 611.1 1717.19 607.48C1722.67 602.03 1727.77 596.3 1732.32 590.44C1733.13 595.6 1734.17 600.24 1735.41 604.38C1735.82 605.76 1736.25 607.09 1736.71 608.35C1737.17 609.62 1737.64 610.83 1738.14 612C1739.14 614.33 1740.2 616.43 1741.36 618.33C1742.5 620.22 1743.73 621.92 1745.01 623.4C1746.29 624.88 1747.65 626.16 1749.07 627.25C1750.49 628.33 1751.96 629.22 1753.49 629.92C1755.02 630.62 1756.59 631.12 1758.21 631.43C1759.83 631.74 1761.5 631.88 1763.2 631.82C1764.05 631.79 1764.91 631.73 1765.79 631.61C1767.52 631.39 1769.3 630.98 1771.1 630.4C1771.99 630.11 1772.9 629.78 1773.82 629.41C1775.65 628.67 1777.49 627.75 1779.35 626.69C1783.07 624.55 1786.87 621.76 1790.65 618.37C1792.54 616.67 1794.43 614.84 1796.33 612.85C1799.17 609.87 1801.98 606.57 1804.77 602.96C1805.16 602.45 1805.6 601.82 1806.06 601.11C1806.52 600.4 1807.01 599.59 1807.51 598.71C1808.52 596.95 1809.63 594.89 1810.76 592.67C1811.51 591.19 1812.28 589.65 1813.06 588.06C1814.09 585.96 1815.12 583.8 1816.12 581.69C1817.62 578.52 1819.05 575.46 1820.29 572.82C1821.12 571.06 1821.85 569.5 1822.48 568.22C1822.72 567.75 1822.93 567.3 1823.14 566.92C1823.53 566.13 1823.86 565.54 1824.1 565.16C1824.22 564.98 1824.31 564.84 1824.39 564.77C1825.86 563.34 1827.02 562.52 1827.95 562.19C1830.43 561.3 1831.29 563.73 1831.85 566.45C1832.13 567.8 1832.34 569.24 1832.65 570.34C1832.73 570.62 1832.81 570.88 1832.9 571.1C1834.03 573.94 1835.06 576.86 1836.05 579.8C1837.55 584.22 1838.97 588.68 1840.54 593.05C1841.59 595.95 1842.7 598.82 1843.94 601.57C1845.19 604.33 1846.55 606.98 1848.12 609.48C1849.68 611.98 1851.44 614.33 1853.47 616.48C1855.49 618.64 1857.77 620.58 1860.36 622.28C1861.66 623.13 1863.04 623.91 1864.51 624.63C1867.44 626.06 1870.74 627.22 1874.44 628.05C1880.59 629.42 1886.6 629.5 1892.47 628.55C1896.87 627.84 1901.21 626.54 1905.45 624.78C1909.69 623.02 1913.87 620.79 1917.96 618.2C1920.01 616.9 1922.03 615.52 1924.03 614.06C1928.04 611.13 1931.97 607.9 1935.8 604.48C1937.72 602.77 1939.62 601 1941.49 599.21L1949.33 590.18L1977.73 550.21C1977.93 554.69 1977.95 559.2 1977.91 563.71C1977.83 572.72 1977.46 581.79 1977.46 590.82C1977.46 593.08 1977.49 595.33 1977.54 597.59C1977.59 599.84 1977.68 602.1 1977.82 604.33C1978.15 609.99 1978.63 615.83 1979.2 621.77C1979.77 627.71 1980.41 633.74 1981.09 639.81C1982.44 651.95 1983.92 664.26 1985.02 676.21C1985.76 684.17 1986.35 691.99 1986.62 699.5C1986.7 701.5 1986.74 703.9 1986.74 706.66C1986.74 709.42 1986.74 712.53 1986.69 715.95H1986.6L1986.58 715.93ZM2302.04 390.92C2302.07 390.39 2302.09 389.71 2302.13 388.88C2302.17 388.05 2302.22 387.08 2302.27 385.99C2302.3 385.44 2302.32 384.87 2302.36 384.26C2302.39 383.66 2302.43 383.02 2302.45 382.35C2302.52 381.04 2302.59 379.6 2302.67 378.11C2302.75 376.6 2302.84 375.01 2302.93 373.35C2303.07 370.87 2303.23 368.24 2303.4 365.52C2303.52 363.71 2303.64 361.87 2303.75 360C2303.93 357.2 2304.13 354.38 2304.34 351.56C2304.55 348.75 2304.77 345.96 2305 343.28C2305.22 340.59 2305.47 337.98 2305.71 335.54C2305.88 333.91 2306.04 332.35 2306.22 330.88C2306.48 328.67 2306.75 326.65 2307.02 324.9H2324.31L2328.62 433.22C2327.82 432.65 2327.02 432 2326.22 431.26C2321.71 427.13 2317.17 420.59 2313.25 414.05C2306.73 403.13 2301.95 392.14 2301.95 392.14C2301.95 392.14 2301.95 392.03 2301.96 391.82C2301.96 391.61 2301.99 391.31 2302 390.91H2302.01L2302.04 390.92ZM2275.01 841.99C2274.48 842.95 2273.84 844.01 2273.04 845.2C2272.24 846.39 2271.31 847.68 2270.2 849.12H2096.85C2095.96 849.12 2094.67 849.32 2093.08 849.59C2092.88 849.63 2092.67 849.66 2092.48 849.7C2090.82 850 2088.87 850.38 2086.66 850.75C2085.87 850.88 2085.06 851.01 2084.22 851.13C2083.38 851.25 2082.5 851.38 2081.61 851.48L2079.49 843.79L2077.37 836.1H2257.21C2257.95 836.1 2258.8 836.01 2259.76 835.88C2260.72 835.75 2261.74 835.55 2262.82 835.34C2264.25 835.06 2265.76 834.76 2267.24 834.51C2268.72 834.26 2270.14 834.06 2271.43 834C2272.72 833.94 2273.86 834.01 2274.75 834.32C2275.2 834.46 2275.58 834.67 2275.89 834.94C2276.51 835.48 2276.81 836.28 2276.7 837.42C2276.59 838.56 2276.07 840.06 2275.03 841.98H2275L2275.01 841.99ZM2143.79 688.85C2143.79 637.8 2229.31 636.37 2224.67 690.99V823.12H2137.99C2144.55 778.09 2147.92 733.96 2143.77 688.85H2143.78H2143.79ZM2351.34 645.49L2353.55 670.96L2354.72 684.38L2354.06 719.23L2354.69 736.48V844.79H2289.68L2285.65 825C2275.51 817.68 2247.23 830.62 2237.69 816.63V673.67C2237.69 625.9 2141.13 615.76 2129.33 671.49L2124.53 822.65L2068.43 825.05C2060.23 830.77 2064.9 845.8 2068.68 853.42L2012.35 853.46V753.81L2011.02 736.49L2008.35 701.79L2006.35 675.9L2005.19 660.91L2003.67 641.16V576.18V559.56C2003.67 559.06 2003.76 558.59 2003.95 558.15C2004.3 557.28 2005 556.6 2005.86 556.23C2006.29 556.05 2006.77 555.95 2007.27 555.95C2010.25 555.98 2013.28 555.99 2016.36 555.99C2022.5 555.99 2028.8 555.99 2035.28 555.94C2041.76 555.89 2048.39 555.81 2055.16 555.72H2055.48C2065.53 555.56 2075.89 555.35 2086.47 555.1C2107.92 554.57 2130.24 553.85 2152.76 553.02C2164.02 552.6 2175.34 552.15 2186.62 551.69C2192.26 551.45 2197.89 551.22 2203.51 550.98C2214.73 550.49 2225.89 550.01 2236.87 549.51C2253.35 548.76 2269.46 548 2284.93 547.28C2290.08 547.03 2295.17 546.79 2300.17 546.56C2315.16 545.85 2329.42 545.17 2342.64 544.56C2343.24 544.53 2344.22 544.32 2345.37 544.06C2346.15 543.89 2347.01 543.69 2347.91 543.49C2349.26 543.21 2350.72 542.96 2352.1 542.89C2353.02 542.84 2353.93 542.85 2354.75 542.97C2355.34 543.06 2355.88 543.23 2356.39 543.44C2356.65 543.55 2356.9 543.68 2357.13 543.83C2357.68 544.2 2358.14 544.67 2358.44 545.3C2358.78 546.01 2358.97 546.9 2358.94 548.02L2353.87 579.7L2350.64 626.27L2351.35 645.48H2351.34V645.49ZM2362.52 527.91C2352.89 534.55 2329.76 531.42 2313.47 532.82C2307.57 533.32 2301.64 533.73 2295.7 534.04C2289.76 534.35 2283.79 534.61 2277.82 534.82C2265.88 535.24 2253.88 535.49 2241.89 535.86C2235.9 536.04 2229.92 536.27 2223.94 536.54C2217.96 536.81 2212.01 537.16 2206.06 537.6C2197.48 538.23 2188.94 539.08 2180.45 540.24C2177.19 540.69 2173.93 541.16 2170.69 541.7L2011.77 545.56C2005.2 545.72 2000.04 540.01 2000.82 533.5L2003.32 513L2170.51 264.32C2188.83 285.81 2205.58 308.68 2222.13 331.78C2238.67 354.88 2255.01 378.21 2272.49 400.58C2284.86 416.41 2357.39 496.01 2359.03 504.84C2359.69 508.35 2362 511.1 2361.7 513.74C2364.28 519.75 2364.93 526.22 2362.54 527.87V527.9L2362.52 527.91ZM2532.58 691.01C2533.68 687.72 2535.44 684.65 2537.56 681.71C2538.98 679.75 2540.56 677.85 2542.23 675.98C2543.9 674.11 2545.66 672.27 2547.43 670.45C2549.2 668.62 2550.98 666.8 2552.7 664.97C2556.98 660.38 2560.85 655.71 2563.07 650.54C2563.96 648.48 2564.58 646.33 2564.87 644.1C2565.99 635.34 2559.36 635.64 2554.29 637.86C2551.2 639.23 2548.61 643.23 2546.01 647.91C2545.14 649.47 2544.28 651.1 2543.4 652.73C2541.63 655.99 2539.77 659.26 2537.7 661.94C2536.66 663.28 2535.57 664.48 2534.39 665.44C2533.22 666.41 2531.97 667.16 2530.63 667.61C2529.97 663.34 2529.99 659.25 2530.47 655.31C2530.63 654 2530.85 652.7 2531.11 651.42C2531.32 650.4 2531.56 649.37 2531.82 648.37C2533.15 643.32 2535.13 638.46 2537.35 633.69C2539.57 628.92 2542.02 624.2 2544.25 619.45C2546.41 614.89 2548.38 610.28 2549.78 605.51C2550.48 603.13 2551.04 600.7 2551.42 598.23C2551.62 596.93 2551.75 595.62 2551.84 594.27C2551.92 593.06 2551.96 591.85 2551.93 590.63L2515.66 646.08L2487.83 629.14C2487.94 629.99 2488.08 630.84 2488.24 631.66C2488.74 634.12 2489.5 636.4 2490.47 638.57C2490.79 639.29 2491.14 639.99 2491.5 640.69C2492.59 642.77 2493.85 644.72 2495.25 646.59C2496.17 647.84 2497.14 649.06 2498.15 650.26C2500.16 652.65 2502.29 654.95 2504.41 657.25C2505.46 658.41 2506.51 659.56 2507.54 660.72C2509.08 662.47 2510.56 664.25 2511.93 666.11C2512.39 666.73 2512.82 667.36 2513.26 667.99C2514.97 670.53 2516.41 673.22 2517.46 676.16C2517.99 677.63 2518.41 679.16 2518.72 680.77C2519.64 685.58 2519.48 691.06 2517.75 697.52C2517.68 697.6 2517.58 697.64 2517.43 697.65C2517.29 697.66 2517.1 697.65 2516.88 697.62C2516.43 697.55 2515.85 697.41 2515.15 697.17C2514.09 696.82 2512.76 696.3 2511.23 695.66C2506.14 693.54 2498.93 690.17 2492.54 687.78C2491.27 687.31 2490.02 686.86 2488.82 686.48C2484.06 684.94 2480.21 684.31 2478.78 685.73C2478.43 686.08 2478.21 686.57 2478.19 687.19C2478.14 688.14 2478.49 689.4 2479.31 691.05C2483.37 693.49 2487.19 695.74 2490.77 697.91C2496.13 701.16 2500.9 704.2 2505.05 707.36C2509.2 710.51 2512.71 713.77 2515.52 717.44C2517.4 719.88 2518.96 722.53 2520.21 725.44C2522.08 729.82 2523.19 734.81 2523.52 740.75C2523.69 743.72 2523.65 746.93 2523.41 750.4C2523.29 752.13 2523.12 753.95 2522.9 755.83C2522.68 757.71 2522.4 759.67 2522.07 761.69C2518.54 762.14 2514.78 762.36 2510.87 762.36C2507.48 762.36 2503.98 762.19 2500.41 761.85C2496.85 761.51 2493.21 761 2489.57 760.33C2484.23 759.34 2478.86 758 2473.6 756.3C2470.84 755.41 2468.11 754.41 2465.44 753.3C2463.21 752.38 2461.02 751.38 2458.88 750.32C2457.18 749.48 2455.5 748.62 2453.89 747.69C2451.45 746.3 2449.08 744.8 2446.83 743.21C2444.58 741.62 2442.44 739.92 2440.44 738.15C2434.43 732.79 2429.66 726.55 2426.71 719.42C2425.72 717.04 2424.95 714.57 2424.38 712.01C2423.55 708.16 2423.22 704.09 2423.47 699.8C2424.31 685.69 2429.46 674.92 2435.84 665.29C2437.67 662.54 2439.59 659.88 2441.54 657.26C2443.49 654.64 2445.47 652.07 2447.41 649.48C2450.31 645.6 2453.14 641.7 2455.61 637.61C2457.27 634.88 2458.76 632.06 2460.05 629.12C2460.92 627.12 2461.63 625.18 2462.23 623.29C2465.23 613.78 2465.25 605.31 2466.34 596.69C2466.77 593.23 2467.39 589.76 2468.42 586.19C2469.66 581.91 2471.86 577.62 2474.82 573.44C2477.78 569.26 2481.5 565.19 2485.77 561.34C2488.98 558.45 2492.5 555.69 2496.26 553.09C2502.52 548.77 2509.4 544.9 2516.55 541.72C2522.27 539.17 2528.13 537.07 2533.96 535.52C2536.88 534.74 2539.78 534.1 2542.65 533.61C2557 531.15 2570.46 532.45 2579.89 539.22C2603.95 556.46 2591.47 591.66 2595.79 617.39C2596.17 619.69 2596.79 622.07 2597.56 624.49C2597.94 625.7 2598.37 626.92 2598.82 628.16C2600.19 631.87 2601.86 635.66 2603.59 639.5C2606.49 645.91 2609.61 652.46 2611.97 658.92C2613.39 662.8 2614.53 666.63 2615.2 670.4C2615.65 672.91 2615.87 675.38 2615.82 677.81C2615.77 680.14 2615.57 682.46 2615.23 684.77C2614.55 689.41 2613.29 694.01 2611.54 698.5C2610.66 700.75 2609.67 702.98 2608.56 705.18C2605.24 711.76 2600.91 718.07 2595.88 723.89C2589.17 731.64 2581.19 738.53 2572.63 744.03C2568.35 746.79 2563.93 749.21 2559.45 751.22C2552.72 754.24 2545.88 756.36 2539.17 757.36L2532.59 690.99H2532.55L2532.58 691.01Z" fill="black"/>
<path d="M825.21 744.21L800.34 688.66H787.8V759.49H799.42V710.97L821.13 759.49H829.18L850.8 710.97V759.49H862.41V688.66H849.97L825.21 744.21Z" fill="black"/>
<path d="M986.56 688.56L961.19 759.49H973.32L978.42 745.02H1008.08L1013.18 759.49H1025.41L1000.04 688.56H986.57H986.56ZM981.65 735.55L993.27 702.63L1004.78 735.55H981.64H981.65Z" fill="black"/>
<path d="M1135.2 710.16C1135.71 709.17 1136.29 708.25 1136.91 707.37C1138.15 705.62 1139.58 704.11 1141.22 702.84C1142.03 702.2 1142.9 701.62 1143.82 701.09C1144.74 700.56 1145.69 700.1 1146.67 699.71C1148.63 698.92 1150.72 698.4 1152.94 698.13C1154.04 698 1155.19 697.93 1156.36 697.93C1157.42 697.93 1158.46 697.98 1159.47 698.1C1161.48 698.34 1163.37 698.78 1165.12 699.48C1166 699.82 1166.84 700.23 1167.66 700.69C1170.92 702.53 1173.47 705.32 1175.31 709.05H1189.28C1186.63 702.26 1182.37 697.01 1176.49 693.31C1170.61 689.61 1163.9 687.75 1156.36 687.75C1149.76 687.75 1143.71 689.29 1138.16 692.39C1132.61 695.49 1128.24 699.78 1125.02 705.28C1123.4 708.04 1122.19 710.96 1121.39 714.07C1120.59 717.18 1120.18 720.47 1120.18 723.93C1120.18 725.66 1120.29 727.35 1120.48 728.99C1121.08 733.92 1122.6 738.45 1125.01 742.58C1128.23 748.09 1132.61 752.38 1138.11 755.47C1143.62 758.56 1149.7 760.11 1156.35 760.11C1163.89 760.11 1170.61 758.27 1176.48 754.6C1182.35 750.93 1186.62 745.7 1189.27 738.9H1175.3C1173.46 742.63 1170.92 745.42 1167.65 747.26C1164.39 749.1 1160.62 750.02 1156.34 750.02C1151.65 750.02 1147.47 748.94 1143.8 746.8C1142.88 746.26 1142.01 745.67 1141.2 745.03C1139.57 743.73 1138.13 742.22 1136.89 740.47C1136.27 739.6 1135.71 738.67 1135.18 737.68C1134.14 735.71 1133.37 733.58 1132.85 731.28C1132.34 728.99 1132.07 726.54 1132.07 723.92C1132.07 721.3 1132.33 718.85 1132.85 716.56C1133.36 714.27 1134.15 712.13 1135.18 710.16H1135.19H1135.2Z" fill="black"/>
<path d="M1302.1 688.66H1290.49V759.49H1326.06V750.12H1302.1V688.66Z" fill="black"/>
<path d="M1423.39 759.49H1462.53V750.02H1435.01V728.31H1459.46V718.83H1435.01V698.03H1462.53V688.56H1423.39V759.49Z" fill="black"/>
<path d="M1625.54 701.37C1623.65 698.93 1621.47 696.77 1619 694.92C1617.76 694 1616.45 693.15 1615.07 692.37C1613.69 691.59 1612.27 690.92 1610.81 690.35C1607.91 689.19 1604.86 688.42 1601.66 688.04C1600.07 687.84 1598.44 687.75 1596.77 687.75C1595.1 687.75 1593.51 687.84 1591.92 688.04C1587.18 688.62 1582.72 690.06 1578.57 692.39C1574.42 694.72 1570.91 697.71 1568.06 701.38C1567.11 702.6 1566.23 703.9 1565.42 705.28C1562.2 710.79 1560.58 717 1560.58 723.93C1560.58 724.04 1560.59 724.13 1560.59 724.23C1560.59 725.93 1560.71 727.59 1560.92 729.21C1560.92 729.21 1562.14 736.46 1565.41 742.63C1566.16 744.05 1567.09 745.32 1568.05 746.55C1570.9 750.24 1574.41 753.25 1578.56 755.58C1582.71 757.89 1587.15 759.34 1591.91 759.93C1593.49 760.13 1595.1 760.22 1596.76 760.22C1598.42 760.22 1600.06 760.13 1601.65 759.93C1604.84 759.55 1607.89 758.77 1610.8 757.62C1612.26 757.04 1613.68 756.36 1615.06 755.6C1616.44 754.82 1617.75 753.97 1618.99 753.05C1621.46 751.2 1623.64 749.04 1625.53 746.57C1626.48 745.33 1627.34 744.03 1628.14 742.65C1631.33 737.1 1632.94 730.88 1632.94 723.95C1632.94 717.02 1631.34 710.81 1628.14 705.3C1627.34 703.92 1626.47 702.62 1625.53 701.4L1625.54 701.37ZM1620.24 731.3C1619.73 733.6 1618.94 735.74 1617.9 737.73C1617.39 738.73 1616.81 739.66 1616.19 740.54C1614.34 743.18 1612.04 745.3 1609.28 746.9C1608.36 747.44 1607.41 747.9 1606.43 748.31C1605.44 748.7 1604.43 749.05 1603.39 749.31C1601.3 749.85 1599.08 750.11 1596.74 750.11C1595.39 750.11 1594.09 749.99 1592.81 749.82C1589.68 749.39 1586.8 748.43 1584.2 746.9C1583.28 746.36 1582.41 745.77 1581.6 745.13C1579.14 743.19 1577.15 740.71 1575.59 737.73C1575.08 736.73 1574.62 735.71 1574.24 734.63C1573.85 733.55 1573.53 732.45 1573.27 731.29C1572.76 728.99 1572.49 726.53 1572.49 723.92C1572.49 721.31 1572.75 718.85 1573.27 716.56C1573.53 715.42 1573.85 714.31 1574.24 713.24C1574.63 712.17 1575.08 711.15 1575.59 710.17C1576.88 707.74 1578.49 705.69 1580.4 703.95C1581.57 702.89 1582.8 701.9 1584.21 701.1C1585.13 700.57 1586.08 700.11 1587.06 699.72C1588.53 699.13 1590.07 698.68 1591.69 698.39C1593.31 698.09 1594.99 697.94 1596.75 697.94C1597.85 697.94 1598.93 698.01 1599.97 698.12C1600.21 698.15 1600.43 698.19 1600.67 698.23C1602.69 698.51 1604.63 698.99 1606.44 699.71C1607.43 700.1 1608.37 700.56 1609.29 701.09C1609.91 701.44 1610.47 701.87 1611.04 702.27C1611.39 702.52 1611.76 702.76 1612.09 703.03C1613.27 703.99 1614.32 705.08 1615.28 706.28C1616.24 707.46 1617.13 708.74 1617.88 710.16C1618.92 712.13 1619.69 714.26 1620.22 716.56C1620.73 718.85 1621 721.3 1621 723.92C1621 726.54 1620.74 728.99 1620.22 731.29H1620.23L1620.24 731.3Z" fill="black"/>
<path d="M1791.6 714.21C1791.22 712.63 1790.73 711.11 1790.15 709.65C1789.57 708.19 1788.89 706.79 1788.13 705.43C1785.8 701.38 1782.77 698.03 1779 695.4C1777.74 694.52 1776.41 693.72 1774.99 693C1772.15 691.55 1769.08 690.48 1765.78 689.75C1764.12 689.38 1762.42 689.12 1760.66 688.94C1758.89 688.76 1757.06 688.66 1755.18 688.66H1732.05V759.5H1755.18C1757.07 759.5 1758.9 759.41 1760.66 759.24C1762.43 759.07 1764.14 758.79 1765.78 758.45C1769.08 757.74 1772.15 756.69 1774.99 755.28C1776.41 754.57 1777.75 753.8 1779 752.93C1782.77 750.35 1785.82 747.07 1788.13 743.1C1788.91 741.77 1789.58 740.39 1790.15 738.95C1790.73 737.5 1791.21 736.01 1791.6 734.44C1791.98 732.88 1792.27 731.26 1792.47 729.58C1792.67 727.9 1792.76 726.15 1792.76 724.35C1792.76 722.55 1792.67 720.8 1792.47 719.12C1792.27 717.44 1791.98 715.8 1791.6 714.22V714.21ZM1779.18 735.19C1778.08 738.34 1776.42 741.05 1774.21 743.28C1773.11 744.4 1771.88 745.38 1770.53 746.22C1767.84 747.9 1764.66 749.03 1761 749.58C1759.17 749.86 1757.22 750 1755.15 750H1743.64V698.12H1755.15C1757.23 698.12 1759.17 698.26 1761 698.55C1764.67 699.13 1767.83 700.28 1770.53 702.02C1771.87 702.89 1773.11 703.9 1774.21 705.06C1776.42 707.37 1778.07 710.13 1779.18 713.34C1780.28 716.55 1780.84 720.21 1780.84 724.33C1780.84 728.45 1780.29 732.03 1779.18 735.18V735.19Z" fill="black"/>
<path d="M2219.7 408.03H2218.2C2217.1 408.03 2215.81 408.03 2214.34 408.02C2212.87 408.01 2211.24 407.99 2209.46 407.97C2193.49 407.8 2166.14 407.46 2147.76 408.59C2145.72 408.72 2143.79 408.85 2141.99 409.02C2140.2 409.19 2138.55 409.37 2137.06 409.57C2135.58 409.78 2134.25 410 2133.13 410.27C2132 410.52 2131.07 410.81 2130.36 411.11C2130.01 411.27 2129.7 411.43 2129.47 411.6C2129.33 411.71 2129.31 411.9 2129.25 412.07C2129.17 412.23 2129.03 412.36 2129.03 412.54L2125.07 489.95C2125.06 490.24 2125.14 490.53 2125.28 490.75C2125.42 490.99 2125.65 491.17 2125.92 491.26C2139.24 495.77 2168.35 493.14 2194.54 491.68C2201.08 491.31 2207.44 491.02 2213.34 490.93C2215.3 490.9 2217.22 490.89 2219.06 490.92C2219.78 490.92 2220.35 490.34 2220.35 489.62L2220.99 409.33C2220.99 408.96 2220.85 408.63 2220.61 408.4C2220.37 408.17 2220.06 408.02 2219.69 408.02L2219.7 408.03ZM2168.37 420.21L2168.11 446.2H2138.04L2137.99 420.19H2168.37V420.21ZM2168.37 480.87L2138.01 480.91V459.2L2166.81 457.27L2168.61 457.15L2168.36 480.62V480.87H2168.37ZM2193.43 480.46L2179.49 480.03L2181.47 459.41L2207.33 454.88L2207.37 480.9L2193.43 480.47V480.46ZM2207.38 445.85H2181.32V420.21H2207.38V445.85Z" fill="black"/>
<path d="M2107.82 621.92C2095.48 622.05 2036.79 619.86 2030.2 626.02C2029.94 626.26 2029.83 626.68 2029.81 627.1L2026.41 716.1C2026.38 716.77 2026.67 717.4 2027.15 717.61C2042.43 724.51 2081.85 716.85 2107.28 717.22C2107.9 717.22 2108.38 716.56 2108.38 715.74L2108.93 623.44C2108.93 622.6 2108.44 621.93 2107.81 621.94H2107.82V621.92ZM2063.65 635.93L2063.43 665.81H2037.57L2037.53 635.91H2063.67H2063.66L2063.65 635.93ZM2063.65 705.65L2037.54 705.7V680.75L2063.87 678.4L2063.66 705.65H2063.65ZM2073.22 704.71L2074.93 681L2097.18 675.78L2097.21 705.69L2073.23 704.69L2073.22 704.71ZM2097.21 665.4H2074.79V635.93H2097.21V665.4Z" fill="black"/>
<path d="M2258.83 624.94C2258.25 624.94 2257.79 625.6 2257.79 626.42L2257.26 718.72C2257.26 719.56 2257.72 720.23 2258.3 720.22C2269.85 720.09 2324.74 722.28 2330.92 716.12C2331.16 715.88 2331.27 715.46 2331.29 715.04L2334.48 626.04C2334.51 625.37 2334.23 624.74 2333.78 624.53C2319.48 617.63 2282.6 625.29 2258.83 624.92V624.94ZM2289.2 706.23H2268.23V676.76H2289.2V706.23ZM2289.08 661.16L2268.27 666.38L2268.24 636.46L2290.67 637.46L2289.08 661.17V661.16ZM2299.63 636.51L2324.06 636.46V661.41L2299.43 663.76L2299.63 636.51ZM2299.63 706.23L2299.84 676.35H2324.03L2324.07 706.25H2299.63V706.23Z" fill="black"/>
<path d="M2299.84 277.26C2302.89 279.6 2306.5 275.09 2303.66 272.57C2296.31 264.21 2292.33 252.32 2293.61 241.82C2297.14 224.12 2315.57 212.1 2319.18 193.34C2323.86 172.8 2313.49 150.49 2295.64 139.73C2292.54 137.84 2289.37 142.24 2292.08 144.63C2301.8 155.3 2308.11 168.57 2307.74 182.59C2307.48 205.05 2284.02 218.18 2282.72 241.04C2282.44 255.42 2288.82 268.81 2299.83 277.27L2299.84 277.26Z" fill="black"/>
<path d="M2328.03 162.24C2327.81 162.19 2328.42 162.65 2328.63 162.96C2328.95 163.31 2329.23 163.75 2329.52 164.18C2333.88 171.66 2333.71 180.86 2333.46 189.41C2333.05 205.72 2317.57 214.09 2308.6 227.53C2299.16 244.39 2313.33 267.41 2327.01 277.28C2330.05 279.57 2333.91 275.45 2331.52 272.54C2324.53 261.76 2318.87 250.66 2318.35 238.4C2318.88 232.08 2324.7 228.26 2329.38 222.6C2337.51 214.16 2344.86 201.98 2344.14 189.54C2343.61 179.25 2342.17 167.87 2335.16 159.63C2333.62 158.13 2332.79 157.21 2330.52 156.19C2326.56 154.55 2324.07 160.61 2328.01 162.23H2328.02L2328.03 162.24Z" fill="black"/>
<path d="M448.44 960.75L439.12 942.96H439.05V960.75H423.49V911.13H446.62C450.64 911.13 454.07 911.84 456.92 913.27C459.77 914.7 461.9 916.63 463.33 919.09C464.75 921.55 465.47 924.31 465.47 927.39C465.47 930.7 464.55 933.65 462.7 936.22C460.86 938.8 458.21 940.64 454.75 941.75L465.54 960.74H448.43L448.44 960.75ZM439.05 932.58H445.21C446.71 932.58 447.82 932.24 448.57 931.57C449.32 930.9 449.69 929.84 449.69 928.38C449.69 927.07 449.31 926.04 448.53 925.29C447.75 924.54 446.65 924.17 445.21 924.17H439.05V932.58Z" fill="black"/>
<path d="M509.82 923.54V929.64H525.23V941.35H509.82V948.35H527.34V960.75H494.26V911.13H527.34V923.53H509.82V923.54Z" fill="black"/>
<path d="M588.86 953.25H572.33L569.87 960.75H553.55L571.7 911.13H589.64L607.72 960.75H591.32L588.86 953.25ZM585.08 941.56L580.6 927.76L576.12 941.56H585.1H585.09H585.08Z" fill="black"/>
<path d="M650.6 948.98H665.59V960.75H635.04V911.13H650.6V948.98Z" fill="black"/>
<path d="M745.621 923.54V929.64H761.031V941.35H745.621V948.35H763.141V960.75H730.061V911.13H763.141V923.53H745.621V923.54Z" fill="black"/>
<path d="M797.581 957.07C793.731 954.3 791.641 950.21 791.311 944.84H807.841C808.081 947.69 809.341 949.11 811.621 949.11C812.461 949.11 813.171 948.91 813.761 948.52C814.341 948.13 814.641 947.51 814.641 946.67C814.641 945.5 814.011 944.55 812.751 943.83C811.491 943.11 809.531 942.28 806.861 941.35C803.681 940.23 801.051 939.13 798.981 938.05C796.901 936.97 795.121 935.41 793.621 933.36C792.121 931.31 791.401 928.67 791.451 925.44C791.451 922.22 792.281 919.47 793.931 917.2C795.591 914.94 797.861 913.22 800.721 912.05C803.601 910.88 806.831 910.3 810.431 910.3C816.501 910.3 821.321 911.71 824.901 914.51C828.471 917.31 830.351 921.26 830.541 926.35H813.801C813.751 924.94 813.411 923.95 812.751 923.34C812.091 922.74 811.301 922.43 810.371 922.43C809.711 922.43 809.171 922.65 808.751 923.1C808.331 923.55 808.121 924.16 808.121 924.95C808.121 926.07 808.741 927 809.971 927.72C811.201 928.44 813.181 929.32 815.901 930.35C819.031 931.52 821.621 932.64 823.641 933.71C825.681 934.79 827.441 936.29 828.941 938.19C830.441 940.11 831.191 942.51 831.191 945.4C831.191 948.44 830.441 951.16 828.941 953.56C827.441 955.96 825.271 957.84 822.421 959.2C819.571 960.55 816.181 961.24 812.261 961.24C806.331 961.24 801.431 959.85 797.581 957.07Z" fill="black"/>
<path d="M899.43 911.13V923.47H886.25V960.75H870.69V923.47H857.65V911.13H899.42H899.43Z" fill="black"/>
<path d="M959.281 953.25H942.751L940.291 960.75H923.971L942.121 911.13H960.061L978.141 960.75H961.741L959.281 953.25ZM955.491 941.56L951.011 927.76L946.531 941.56H955.511H955.501H955.491Z" fill="black"/>
<path d="M1044.41 911.13V923.47H1031.23V960.75H1015.67V923.47H1002.63V911.13H1044.4H1044.41Z" fill="black"/>
<path d="M1088 923.54V929.64H1103.41V941.35H1088V948.35H1105.52V960.75H1072.44V911.13H1105.52V923.53H1088V923.54Z" fill="black"/>
<path d="M1209.37 936.68C1207.92 939.23 1205.78 941.25 1202.96 942.74C1200.13 944.24 1196.7 944.99 1192.7 944.99H1186.54V960.76H1170.98V911.14H1192.7C1198.77 911.14 1203.44 912.68 1206.68 915.77C1209.93 918.86 1211.56 922.98 1211.56 928.17C1211.56 931.3 1210.84 934.14 1209.39 936.69H1209.38L1209.37 936.68ZM1195.78 928.17C1195.78 925.13 1194.16 923.61 1190.94 923.61H1186.52V932.72H1190.94C1194.16 932.72 1195.78 931.21 1195.78 928.16V928.17Z" fill="black"/>
<path d="M1265.22 960.75L1255.9 942.96H1255.83V960.75H1240.27V911.13H1263.4C1267.42 911.13 1270.85 911.84 1273.7 913.27C1276.55 914.7 1278.68 916.63 1280.11 919.09C1281.53 921.55 1282.25 924.31 1282.25 927.39C1282.25 930.7 1281.33 933.65 1279.48 936.22C1277.64 938.8 1274.99 940.64 1271.53 941.75L1282.32 960.74H1265.21L1265.22 960.75ZM1255.84 932.58H1262C1263.5 932.58 1264.61 932.24 1265.36 931.57C1266.11 930.9 1266.48 929.84 1266.48 928.38C1266.48 927.07 1266.1 926.04 1265.32 925.29C1264.54 924.54 1263.44 924.17 1262 924.17H1255.84V932.58Z" fill="black"/>
<path d="M1322.37 957.96C1318.47 955.77 1315.38 952.73 1313.08 948.85C1310.79 944.97 1309.65 940.61 1309.65 935.75C1309.65 930.89 1310.79 926.53 1313.08 922.65C1315.37 918.77 1318.47 915.75 1322.37 913.57C1326.27 911.4 1330.56 910.31 1335.23 910.31C1339.9 910.31 1344.18 911.4 1348.06 913.57C1351.94 915.74 1355.01 918.77 1357.27 922.65C1359.53 926.53 1360.67 930.9 1360.67 935.75C1360.67 940.6 1359.54 944.97 1357.27 948.85C1355 952.73 1351.92 955.76 1348.02 957.96C1344.12 960.15 1339.86 961.26 1335.23 961.26C1330.6 961.26 1326.27 960.17 1322.37 957.96ZM1342.38 943.76C1344.06 941.78 1344.9 939.1 1344.9 935.73C1344.9 932.36 1344.06 929.62 1342.38 927.64C1340.7 925.66 1338.32 924.66 1335.23 924.66C1332.14 924.66 1329.7 925.66 1328.02 927.64C1326.34 929.62 1325.5 932.32 1325.5 935.73C1325.5 939.14 1326.34 941.77 1328.02 943.76C1329.7 945.74 1332.11 946.74 1335.23 946.74C1338.35 946.74 1340.7 945.74 1342.38 943.76Z" fill="black"/>
<path d="M1425.14 911.13V923.47H1405.67V930.34H1419.68V942.05H1405.67V960.76H1390.11V911.14H1425.14V911.13Z" fill="black"/>
<path d="M1469.77 923.54V929.64H1485.18V941.35H1469.77V948.35H1487.29V960.75H1454.21V911.13H1487.29V923.53H1469.77V923.54Z" fill="black"/>
<path d="M1521.73 957.07C1517.88 954.3 1515.79 950.21 1515.46 944.84H1531.99C1532.23 947.69 1533.49 949.11 1535.77 949.11C1536.61 949.11 1537.32 948.91 1537.91 948.52C1538.49 948.13 1538.79 947.51 1538.79 946.67C1538.79 945.5 1538.16 944.55 1536.9 943.83C1535.64 943.11 1533.68 942.28 1531.01 941.35C1527.83 940.23 1525.2 939.13 1523.13 938.05C1521.05 936.97 1519.27 935.41 1517.77 933.36C1516.27 931.31 1515.55 928.67 1515.6 925.44C1515.6 922.22 1516.43 919.47 1518.08 917.2C1519.74 914.94 1522.01 913.22 1524.87 912.05C1527.75 910.88 1530.98 910.3 1534.58 910.3C1540.65 910.3 1545.47 911.71 1549.05 914.51C1552.63 917.31 1554.5 921.26 1554.69 926.35H1537.95C1537.9 924.94 1537.56 923.95 1536.9 923.34C1536.24 922.74 1535.45 922.43 1534.52 922.43C1533.86 922.43 1533.32 922.65 1532.9 923.1C1532.48 923.55 1532.27 924.16 1532.27 924.95C1532.27 926.07 1532.89 927 1534.12 927.72C1535.36 928.44 1537.33 929.32 1540.05 930.35C1543.18 931.52 1545.77 932.64 1547.79 933.71C1549.83 934.79 1551.59 936.29 1553.09 938.19C1554.59 940.11 1555.34 942.51 1555.34 945.4C1555.34 948.44 1554.59 951.16 1553.09 953.56C1551.59 955.96 1549.42 957.84 1546.57 959.2C1543.72 960.55 1540.33 961.24 1536.41 961.24C1530.48 961.24 1525.58 959.85 1521.73 957.07Z" fill="black"/>
<path d="M1589.35 957.07C1585.5 954.3 1583.41 950.21 1583.08 944.84H1599.61C1599.85 947.69 1601.11 949.11 1603.39 949.11C1604.23 949.11 1604.94 948.91 1605.53 948.52C1606.11 948.13 1606.41 947.51 1606.41 946.67C1606.41 945.5 1605.78 944.55 1604.52 943.83C1603.26 943.11 1601.3 942.28 1598.63 941.35C1595.45 940.23 1592.82 939.13 1590.75 938.05C1588.68 936.97 1586.89 935.41 1585.39 933.36C1583.89 931.31 1583.17 928.67 1583.22 925.44C1583.22 922.22 1584.05 919.47 1585.7 917.2C1587.36 914.94 1589.63 913.22 1592.49 912.05C1595.37 910.88 1598.6 910.3 1602.2 910.3C1608.27 910.3 1613.09 911.71 1616.67 914.51C1620.25 917.31 1622.12 921.26 1622.31 926.35H1605.57C1605.52 924.94 1605.18 923.95 1604.52 923.34C1603.86 922.74 1603.07 922.43 1602.14 922.43C1601.48 922.43 1600.94 922.65 1600.52 923.1C1600.1 923.55 1599.89 924.16 1599.89 924.95C1599.89 926.07 1600.51 927 1601.74 927.72C1602.98 928.44 1604.95 929.32 1607.67 930.35C1610.8 931.52 1613.39 932.64 1615.41 933.71C1617.45 934.79 1619.21 936.29 1620.71 938.19C1622.21 940.11 1622.96 942.51 1622.96 945.4C1622.96 948.44 1622.21 951.16 1620.71 953.56C1619.21 955.96 1617.04 957.84 1614.19 959.2C1611.34 960.55 1607.95 961.24 1604.03 961.24C1598.1 961.24 1593.2 959.85 1589.35 957.07Z" fill="black"/>
<path d="M1667.8 911.13V960.75H1652.24V911.13H1667.8Z" fill="black"/>
<path d="M1709.95 957.96C1706.05 955.77 1702.96 952.73 1700.66 948.85C1698.37 944.97 1697.23 940.61 1697.23 935.75C1697.23 930.89 1698.37 926.53 1700.66 922.65C1702.95 918.77 1706.05 915.75 1709.95 913.57C1713.85 911.4 1718.14 910.31 1722.81 910.31C1727.48 910.31 1731.76 911.4 1735.64 913.57C1739.52 915.74 1742.59 918.77 1744.85 922.65C1747.11 926.53 1748.25 930.9 1748.25 935.75C1748.25 940.6 1747.12 944.97 1744.85 948.85C1742.58 952.73 1739.5 955.76 1735.6 957.96C1731.7 960.15 1727.44 961.26 1722.81 961.26C1718.18 961.26 1713.85 960.17 1709.95 957.96ZM1729.95 943.76C1731.63 941.78 1732.47 939.1 1732.47 935.73C1732.47 932.36 1731.63 929.62 1729.95 927.64C1728.27 925.66 1725.89 924.66 1722.8 924.66C1719.71 924.66 1717.27 925.66 1715.59 927.64C1713.91 929.62 1713.07 932.32 1713.07 935.73C1713.07 939.14 1713.91 941.77 1715.59 943.76C1717.27 945.75 1719.68 946.74 1722.8 946.74C1725.92 946.74 1728.27 945.74 1729.95 943.76Z" fill="black"/>
<path d="M1825.26 960.75H1809.7L1793.23 935.81V960.75H1777.67V911.13H1793.23L1809.7 936.49V911.13H1825.26V960.75Z" fill="black"/>
<path d="M1887.91 953.25H1871.38L1868.92 960.75H1852.6L1870.75 911.13H1888.69L1906.77 960.75H1890.37L1887.91 953.25ZM1884.12 941.56L1879.64 927.76L1875.16 941.56H1884.14H1884.13H1884.12Z" fill="black"/>
<path d="M1949.64 948.98H1964.63V960.75H1934.08V911.13H1949.64V948.98Z" fill="black"/>
</g>
<defs>
<clipPath id="clip0_40_26">
<rect width="2690.68" height="1080" fill="white"/>
</clipPath>
</defs>
</svg>
