<?xml version="1.0" encoding="UTF-8"?>
<svg id="Layer_1" xmlns="http://www.w3.org/2000/svg" version="1.1" viewBox="0 0 132.48 82.11">
  <!-- Generator: Adobe Illustrator 29.8.1, SVG Export Plug-In . SVG Version: 2.1.1 Build 2)  -->
  <path d="M82.92.99l15.9,25.61.54.31V.99h8.88l16.08,25.92V.99h8.16v38.88h-8.52l-16.44-25.92v25.92h-8.76l-15.96-25.92-.48.12c.43.48,0,.99,0,1.2v24.6h-7.92V.99h8.52Z"/>
  <path d="M47.04,82.11l14.43-38.61c2.5.18,5.59-.35,8.02-.05.26.03.53-.02.71.25l9.72,26.4,16.32-19.44h-18.96v-6.84l.36-.36h29.88v6.84l-20.4,24.6h20.4v7.2h-31.92l-2.88-8.52h-14.17l-3.23,8.52h-8.28ZM60.72,67.23h9.84l-4.68-13.92s-5.16,13.92-5.16,13.92Z"/>
  <path d="M0,82.11v-38.28c.21-.34.48-.33.83-.37,3.99-.47,11.92-.23,16.1,0,14.19.8,19.45,12.5,16.51,25.41-1.49,6.53-7.18,13.24-14.36,13.24H0ZM8.64,74.91h9.48c1.9,0,4.72-2.34,5.69-3.91,4.03-6.53,2.05-20.33-7.61-20.33h-7.56v24.24Z"/>
  <path d="M0,2.07c.18-.25.21-.26.49-.26,7.62-.02,15.26.29,22.88.17,10.13,1.18,12.72,16.41,3.18,20.13l-.16.48c8.07,2.36,3.98,12.57,7.2,18.24h-8.64c-1.72-4.26.41-13.5-5.26-15.02-.23-.06-1.7-.34-1.82-.34h-9.24v15.36H0V2.07ZM8.64,19.47h10.68c1.03,0,3.11-1.17,3.72-2.04,1.12-1.57,1.11-5.39,0-6.96-.67-.95-2.85-2.04-3.96-2.04h-10.44s0,11.04,0,11.04Z"/>
  <path d="M50.59.1c15.74-1.4,24.35,12.83,20.38,27.1-2.73,9.82-11.65,14.84-21.62,13.36C27.67,37.32,28.43,2.08,50.59.1ZM51.07,7.3c-13.16,1.59-12.06,30.13,4.62,25.98,11.09-2.76,10.75-27.84-4.62-25.98Z"/>
  <rect x="36.24" y="43.47" width="8.4" height="38.64"/>
  <g>
    <path d="M120.62,78.75l-2.46,1.43v.95h2.46v.79h-6.02v-1.94c0-.45.08-.84.23-1.15s.37-.55.63-.7c.26-.16.57-.23.91-.23.41,0,.78.12,1.1.36s.53.6.63,1.07l2.52-1.51v.94h0ZM117.53,81.13v-1.16c0-.43-.1-.75-.32-.96-.21-.21-.49-.32-.84-.32s-.63.11-.83.32c-.2.21-.29.53-.29.96v1.16h2.28Z"/>
    <path d="M115.24,75.88h2.01v-2.19h.65v2.19h2.07v-2.45h.65v3.24h-6.03v-3.24h.65s0,2.45,0,2.45Z"/>
    <path d="M119.28,68.68v2.63l1.34.48v.83l-5.98-2.18v-.91l5.98-2.17v.83l-1.34.48h0ZM118.64,68.91l-3.04,1.09,3.04,1.09s0-2.18,0-2.18Z"/>
    <path d="M119.98,65.63v-2.11h.64v2.89h-6.02v-.79h5.38Z"/>
    <path d="M114.6,58.99h.64v1.64h5.38v.79h-5.38v1.65h-.64v-4.08Z"/>
    <path d="M120.29,56.82c-.26.46-.63.82-1.1,1.09s-1,.4-1.58.4-1.12-.13-1.58-.4c-.47-.27-.83-.63-1.1-1.09-.26-.46-.39-.97-.39-1.53s.13-1.08.39-1.54.63-.82,1.09-1.09c.47-.26,1-.4,1.59-.4s1.12.13,1.59.4c.47.26.83.63,1.09,1.09.26.46.39.97.39,1.54s-.13,1.07-.39,1.53h0ZM119.71,54.16c-.2-.34-.47-.6-.84-.79-.36-.19-.78-.29-1.26-.29s-.9.1-1.26.29-.64.46-.83.79c-.2.33-.29.71-.29,1.14s.1.81.29,1.14c.2.33.47.6.83.79s.78.29,1.26.29.9-.1,1.26-.29.64-.46.84-.79c.2-.34.29-.72.29-1.14s-.1-.8-.29-1.14Z"/>
    <path d="M120.62,48.06l-2.46,1.43v.95h2.46v.79h-6.02v-1.94c0-.45.08-.84.23-1.15.16-.31.37-.55.63-.7s.57-.23.91-.23c.41,0,.78.12,1.1.36s.53.6.63,1.08l2.52-1.51v.94-.02ZM117.53,50.45v-1.16c0-.43-.1-.75-.32-.96-.21-.21-.49-.32-.84-.32s-.63.11-.83.32c-.2.21-.29.53-.29.96v1.16h2.28Z"/>
    <path d="M114.68,44.72c.1-.17.23-.3.4-.39s.37-.14.59-.14.41.05.59.14c.17.09.3.22.4.39s.15.36.15.57-.05.41-.15.58-.23.3-.4.39-.37.14-.59.14-.41-.05-.59-.14c-.17-.09-.31-.22-.4-.39-.1-.17-.15-.36-.15-.58s.05-.41.15-.57ZM114.79,45.81c.08.15.2.26.35.34.15.08.33.12.53.12s.37-.04.53-.12c.15-.08.27-.19.36-.34.09-.15.13-.32.13-.52s-.04-.37-.13-.51-.2-.26-.36-.34c-.15-.08-.33-.12-.53-.12s-.38.04-.53.12-.27.19-.35.34c-.08.15-.13.32-.13.51s.04.37.13.52ZM115.02,45.65c.06.11.15.19.26.25s.24.09.39.09.28-.03.39-.09.2-.15.26-.25c.06-.11.09-.22.09-.35,0-.16-.04-.3-.13-.41-.09-.12-.2-.2-.35-.24v.27c.18.06.26.19.26.39,0,.13-.05.23-.14.31-.09.08-.22.12-.39.12s-.3-.04-.39-.12-.14-.19-.14-.31c0-.09.02-.17.07-.24s.11-.12.2-.14v-.27c-.15.04-.27.12-.35.24-.08.12-.12.26-.12.42,0,.13.03.24.09.35v-.02Z"/>
  </g>
</svg>