<?xml version="1.0" encoding="UTF-8"?>
<svg id="Layer_1" data-name="Layer 1" xmlns="http://www.w3.org/2000/svg" viewBox="0 0 2011.88 834.32">
  <path d="M941.45,702.36l-44.68,124.43h26.17l8.19-23.68h49.49l8.19,23.68h26.35l-44.68-124.43h-29.02ZM937.89,783.18l17.98-51.98,17.98,51.98h-35.96Z"/>
  <polygon points="1191.55 787.81 1135.12 702.36 1110.2 702.36 1110.2 826.79 1135.12 826.79 1135.12 741.53 1191.55 826.79 1216.47 826.79 1216.47 702.36 1191.55 702.36 1191.55 787.81"/>
  <path d="M1721.3,761.46c-5.1-2.37-11.69-4.74-19.76-7.12-5.94-1.78-10.53-3.35-13.8-4.72-3.27-1.36-5.99-3.14-8.19-5.34-2.2-2.19-3.29-4.95-3.29-8.28,0-4.75,1.45-8.37,4.36-10.86,2.91-2.49,6.79-3.74,11.66-3.74,5.58,0,10.06,1.4,13.44,4.18,3.38,2.79,5.19,6.32,5.43,10.59h27.41c-.83-11.15-5.25-19.85-13.26-26.08s-18.42-9.35-31.24-9.35c-8.54,0-16.14,1.45-22.78,4.36-6.65,2.91-11.81,7.09-15.49,12.55-3.68,5.46-5.52,11.87-5.52,19.22,0,7.83,1.81,14.09,5.43,18.78,3.62,4.69,7.95,8.19,12.99,10.5,5.04,2.31,11.6,4.66,19.67,7.03,5.93,1.66,10.59,3.18,13.97,4.54,3.38,1.37,6.2,3.23,8.46,5.61,2.25,2.38,3.38,5.4,3.38,9.08,0,4.51-1.66,8.16-4.98,10.95-3.32,2.79-7.89,4.18-13.71,4.18s-10.18-1.48-13.44-4.45c-3.27-2.96-5.07-7-5.43-12.1h-26.7c.12,7.6,2.19,14.18,6.23,19.76,4.03,5.58,9.52,9.85,16.47,12.82,6.94,2.97,14.74,4.45,23.41,4.45,9.14,0,17.03-1.69,23.67-5.07,6.64-3.38,11.69-7.92,15.13-13.62,3.44-5.7,5.16-11.87,5.16-18.51,0-7.71-1.84-13.94-5.52-18.69-3.68-4.75-8.07-8.31-13.17-10.68Z"/>
  <path d="M1929.65,708.95c-9.67-5.46-20.38-8.19-32.13-8.19s-22.31,2.73-32.04,8.19c-9.73,5.46-17.44,13.03-23.14,22.7-5.7,9.67-8.54,20.56-8.54,32.66s2.85,23.17,8.54,32.84c5.7,9.67,13.41,17.24,23.14,22.7,9.73,5.46,20.41,8.19,32.04,8.19s22.31-2.73,32.04-8.19c9.73-5.46,17.41-13.02,23.05-22.7,5.64-9.67,8.46-20.62,8.46-32.84s-2.82-22.99-8.46-32.66c-5.64-9.67-13.29-17.24-22.96-22.7ZM1930.63,786.21c-3.2,6.29-7.65,11.13-13.35,14.51-5.7,3.38-12.28,5.07-19.76,5.07s-14.09-1.69-19.85-5.07c-5.76-3.38-10.24-8.22-13.44-14.51-3.2-6.29-4.81-13.59-4.81-21.9s1.6-15.58,4.81-21.81,7.68-11.01,13.44-14.33c5.75-3.32,12.37-4.98,19.85-4.98s14.06,1.66,19.76,4.98c5.7,3.32,10.15,8.1,13.35,14.33s4.81,13.5,4.81,21.81-1.6,15.61-4.81,21.9Z"/>
  <rect x="1525.31" y="702.54" width="24.92" height="124.25"/>
  <path d="M1397.23,710.2c-9.91-5.1-21.39-7.65-34.44-7.65h-43.43v124.25h43.43c13.05,0,24.53-2.55,34.44-7.65,9.91-5.1,17.56-12.31,22.96-21.63,5.4-9.31,8.1-20.2,8.1-32.66s-2.7-23.41-8.1-32.84c-5.4-9.43-13.06-16.7-22.96-21.81ZM1392.16,794.93c-7.12,7.12-17.21,10.68-30.26,10.68h-17.62v-82.06h17.62c13.05,0,23.14,3.65,30.26,10.95,7.12,7.3,10.68,17.42,10.68,30.35s-3.56,22.96-10.68,30.08Z"/>
  <path d="M1824.87,126.49c7.91,0,14.55-2.67,19.89-8.01,5.34-5.34,8.01-11.97,8.01-19.89s-2.67-14.55-8.01-19.89c-5.34-5.34-11.98-8.01-19.89-8.01s-14.55,2.67-19.89,8.01c-5.34,5.34-8.01,11.98-8.01,19.89s2.67,14.55,8.01,19.89c5.34,5.34,11.97,8.01,19.89,8.01Z"/>
  <path d="M1332.57,536.72c0-22.96-7.42-39.39-22.26-49.28-14.84-9.89-33.94-15.44-57.29-16.62l-75.99-3.56c-19-1.19-32.75-3.86-41.26-8.01-8.52-4.16-12.76-10.58-12.76-19.29,0-7.12,3.27-14.34,9.8-21.67,6.53-7.32,16.12-13.95,28.79-19.89l12.47-5.94c5.14,3.17,12.56,7.03,22.26,11.58,9.69,4.55,23.65,6.83,41.85,6.83,13.06,0,26.51-2.97,40.37-8.91,13.85-5.94,26.61-13.85,38.29-23.75,11.67-9.89,21.17-20.97,28.5-33.25,7.32-12.26,10.98-24.73,10.98-37.4,0-5.14-.89-10.78-2.67-16.92-1.78-6.13-3.86-10.78-6.23-13.95,4.35-9.1,9.59-16.62,15.73-22.56,6.13-5.94,12.37-8.91,18.7-8.91,3.56,0,6.33.99,8.31,2.97,1.98,1.99,2.97,4.16,2.97,6.53,0,3.96-.59,7.03-1.78,9.2-1.19,2.18-2.58,4.06-4.16,5.64s-2.97,3.37-4.16,5.34c-1.19,1.99-1.78,4.75-1.78,8.31,0,4.36,1.87,7.92,5.64,10.69,3.76,2.77,8.4,4.16,13.95,4.16,9.1,0,15.63-2.27,19.59-6.83,3.95-4.55,5.94-10.39,5.94-17.51,0-10.29-3.86-19-11.58-26.12-7.72-7.12-16.73-10.69-27.01-10.69-12.27,0-21.77,3.47-28.5,10.39-6.73,6.93-12.47,13.95-17.22,21.08-2.37-3.95-5.55-8.11-9.5-12.47-3.96-4.35-8.91-8.4-14.84-12.17-5.94-3.76-12.76-6.83-20.48-9.2-7.72-2.37-16.73-3.56-27.01-3.56-13.46,0-27.31,2.97-41.56,8.91-14.25,5.94-27.31,13.95-39.18,24.04-11.87,10.09-21.58,21.67-29.09,34.73-7.52,13.06-11.28,26.72-11.28,40.96,0,11.09,1.68,20.09,5.05,27.01,3.36,6.93,7.62,13.36,12.76,19.29l-21.97,11.87c-15.05,7.92-25.73,16.73-32.06,26.42-5.56,8.53-8.53,18.1-9.21,28.61-.16.27-.29.51-.46.78-3.56,5.94-7.92,11.78-13.06,17.51-5.15,5.74-10.79,10.79-16.92,15.14-6.14,4.36-12.37,6.53-18.7,6.53-5.55,0-9.7-1.68-12.47-5.05-2.77-3.36-4.16-7.42-4.16-12.17,0-5.54.98-11.37,2.97-17.51,1.98-6.13,3.95-12.17,5.94-18.11l70.05-201.26h-94.4l-2.37,8.31h52.84l-61.15,173.95c-2.37,6.73-4.75,14.16-7.12,22.26-2.37,8.12-3.56,15.54-3.56,22.26,0,12.67,3.86,21.67,11.58,27.01,7.72,5.34,18.11,8.01,31.17,8.01,11.87,0,22.16-2.37,30.87-7.12,8.7-4.75,16.03-10.39,21.97-16.92,2.79-3.07,5.27-6.14,7.49-9.21.71,4.57,1.89,8.58,3.66,11.88,2.97,5.55,6.73,9.9,11.28,13.06,4.55,3.16,9.29,5.54,14.25,7.12,4.94,1.58,9.4,2.97,13.36,4.16l-16.62,8.91c-4.75,2.76-10.59,6.62-17.51,11.58-6.92,4.94-13.55,10.88-19.89,17.81-6.33,6.92-11.77,14.55-16.33,22.86-4.55,8.31-6.83,17.22-6.83,26.72s2.97,18.79,8.91,27.9c5.94,9.1,14.16,17.01,24.64,23.75,10.48,6.73,22.65,12.17,36.51,16.33,13.85,4.16,28.5,6.23,43.93,6.23,23.75,0,44.82-4.16,63.23-12.47,18.4-8.31,33.93-18.91,46.6-31.76,12.66-12.87,22.36-26.82,29.09-41.85,6.73-15.05,10.09-29.29,10.09-42.75ZM1196.02,317.65c3.56-13.06,8.7-25.32,15.44-36.81,6.73-11.47,14.84-21.27,24.34-29.39,9.5-8.11,20.38-12.17,32.65-12.17,13.06,0,24.04,3.37,32.95,10.09,8.91,6.73,13.36,18.8,13.36,36.21,0,11.48-1.48,24.04-4.45,37.7-2.97,13.65-7.63,26.33-13.95,38-6.34,11.68-14.35,21.47-24.04,29.39-9.7,7.92-21.08,11.87-34.14,11.87-15.05,0-26.72-3.46-35.03-10.39-8.31-6.92-12.47-20.08-12.47-39.48,0-10.29,1.78-21.97,5.34-35.03ZM1298.73,594.91c-6.73,11.87-15.94,22.36-27.61,31.47-11.68,9.1-25.14,16.52-40.37,22.26-15.24,5.73-31.37,8.61-48.39,8.61-9.11,0-18.11-1.19-27.01-3.56-8.91-2.37-16.83-6.34-23.75-11.87-6.93-5.55-12.47-12.57-16.62-21.08-4.16-8.52-6.23-19.1-6.23-31.76,0-16.62,2.77-30.38,8.31-41.26,5.54-10.89,13.65-20.69,24.34-29.39l16.62-13.06,83.71,2.97c12.66.39,23.35,2.08,32.06,5.05,8.7,2.97,15.63,6.73,20.78,11.28,5.14,4.55,8.8,9.69,10.98,15.44,2.17,5.73,3.27,11.77,3.27,18.11,0,12.66-3.37,24.93-10.09,36.81Z"/>
  <path d="M1668.33,441.73l-7.72-4.16c-1.19,2.37-3.27,6.44-6.23,12.17-2.97,5.74-6.73,11.48-11.28,17.22-4.55,5.74-10,10.89-16.33,15.44-6.34,4.55-13.46,6.83-21.37,6.83-9.9,0-14.84-5.14-14.84-15.44,0-7.51,1.28-16.03,3.86-25.53,2.57-9.5,5.64-19.39,9.2-29.68l64.71-179.89h-41.56l-10.09,29.09h-1.19c0-11.08-4.16-19.98-12.47-26.72-8.31-6.73-18.4-10.09-30.28-10.09-10.3,0-22.07,2.58-35.32,7.72-13.27,5.15-26.72,12.27-40.37,21.37-13.65,9.11-27.11,19.8-40.37,32.06-13.27,12.27-24.93,25.63-35.03,40.07-10.09,14.45-18.31,29.59-24.64,45.42-6.34,15.83-9.5,31.67-9.5,47.49,0,13.06,1.68,24.34,5.05,33.84,3.36,9.5,8.01,17.32,13.95,23.45,5.94,6.14,12.76,10.69,20.48,13.66,7.72,2.97,15.73,4.45,24.04,4.45,13.06,0,24.93-2.28,35.62-6.83,10.69-4.55,20.48-10.29,29.39-17.22,8.91-6.92,16.92-14.44,24.04-22.56,7.12-8.11,13.45-15.53,19-22.26h1.19c-1.99,5.55-3.56,11.78-4.75,18.7-1.19,6.93-1.78,11.78-1.78,14.55,0,23.75,13.06,35.62,39.18,35.62,11.08,0,20.78-2.28,29.09-6.83,8.31-4.55,15.63-9.89,21.97-16.03,6.33-6.13,11.47-12.56,15.44-19.29,3.95-6.73,6.92-12.26,8.91-16.62ZM1553.75,426.89c-7.12,9.9-15.64,19.8-25.53,29.68-9.9,9.9-20.78,18.4-32.65,25.53-11.87,7.12-23.55,10.69-35.03,10.69s-19.69-3.95-24.64-11.87c-4.95-7.91-7.42-18.2-7.42-30.87,0-11.08,1.78-23.94,5.34-38.59,3.56-14.64,8.61-29.78,15.14-45.42,6.53-15.63,14.34-31.07,23.45-46.31,9.1-15.23,19.09-28.79,29.98-40.67,10.88-11.87,22.56-21.47,35.03-28.79,12.47-7.32,25.23-10.98,38.29-10.98,7.12,0,12.86,1.29,17.22,3.86,4.35,2.58,7.81,5.64,10.39,9.2,2.57,3.56,4.35,7.42,5.34,11.58.98,4.16,1.48,8.01,1.48,11.58,0,3.96-.7,8.61-2.08,13.95-1.39,5.34-4.45,14.35-9.2,27.01l-31.47,87.27c-1.99,5.55-6.53,13.27-13.65,23.15Z"/>
  <path d="M1137.67,126.49c7.91,0,14.55-2.67,19.89-8.01s8.01-11.97,8.01-19.89-2.67-14.55-8.01-19.89c-5.34-5.34-11.98-8.01-19.89-8.01s-14.55,2.67-19.89,8.01-8.01,11.98-8.01,19.89,2.67,14.55,8.01,19.89c5.34,5.34,11.97,8.01,19.89,8.01Z"/>
  <path d="M961.74,402.25c9.89-14.04,17.81-28.89,23.75-44.53,5.94-15.63,8.91-31.36,8.91-47.2,0-10.29-1.59-20.19-4.75-29.68-3.17-9.5-7.92-17.9-14.25-25.23-6.34-7.32-14.16-13.26-23.45-17.81-9.3-4.55-20.09-6.83-32.36-6.83-10.69,0-20.88,2.28-30.57,6.83-9.7,4.55-18.7,10.19-27.01,16.92-8.31,6.73-15.94,14.25-22.86,22.56-6.93,8.31-12.76,16.23-17.51,23.75l-1.19-.59,92.61-258.25h-94.99l-2.37,8.31h52.24l-115.77,325.34c-3.17,7.92-6.04,17.12-8.61,27.61-2.58,10.49-3.86,19.69-3.86,27.61,0,12.67,2.17,23.36,6.53,32.06,4.35,8.71,9.89,15.83,16.62,21.37,6.73,5.55,14.15,9.59,22.26,12.17,8.11,2.57,15.93,3.86,23.45,3.86,11.87,0,24.64-2.48,38.29-7.42,13.66-4.94,27.4-11.77,41.26-20.48,13.85-8.7,27.11-19.09,39.78-31.17,12.66-12.07,23.94-25.13,33.84-39.18ZM880.1,453.61c-10.89,11.87-22.37,21.37-34.43,28.5-12.08,7.12-24.04,10.69-35.92,10.69-24.55,0-36.81-13.26-36.81-39.78,0-13.45,2.08-28,6.23-43.64,4.16-15.63,9.69-31.36,16.62-47.2,6.92-15.83,15.14-31.17,24.64-46.01,9.5-14.84,19.59-27.9,30.28-39.18,10.69-11.28,21.76-20.38,33.25-27.31,11.47-6.92,22.75-10.39,33.84-10.39,12.26,0,21.97,3.17,29.09,9.5,7.12,6.34,10.69,15.64,10.69,27.9s-1.99,26.82-5.94,42.45c-3.96,15.64-9.41,31.47-16.33,47.49-6.93,16.03-15.14,31.57-24.64,46.6-9.5,15.05-19.69,28.5-30.57,40.37Z"/>
  <path d="M1790.44,453.61c-3.56,5.94-7.92,11.78-13.06,17.51-5.15,5.74-10.79,10.79-16.92,15.14-6.14,4.36-12.37,6.53-18.7,6.53-5.55,0-9.7-1.68-12.47-5.05-2.77-3.36-4.16-7.42-4.16-12.17,0-5.54.98-11.37,2.97-17.51,1.98-6.13,3.95-12.17,5.94-18.11l70.05-201.26h-94.4l-2.37,8.31h52.84l-61.15,173.95c-2.37,6.73-4.75,14.16-7.12,22.26-2.37,8.12-3.56,15.54-3.56,22.26,0,12.67,3.86,21.67,11.58,27.01,7.72,5.34,18.11,8.01,31.17,8.01,11.87,0,22.16-2.37,30.87-7.12,8.7-4.75,16.03-10.39,21.97-16.92,5.94-6.53,10.58-13.06,13.95-19.59,3.36-6.53,5.83-11.37,7.42-14.55l-7.12-2.97c-1.59,3.56-4.16,8.31-7.72,14.25Z"/>
  <path d="M1867.61,500.51c11.87,0,22.16-2.37,30.87-7.12,8.7-4.75,16.03-10.39,21.97-16.92,5.94-6.53,10.58-13.06,13.95-19.59,3.36-6.53,5.83-11.37,7.42-14.55l-7.12-2.97c-1.59,3.56-4.16,8.31-7.72,14.25s-7.92,11.78-13.06,17.51c-5.15,5.74-10.79,10.79-16.92,15.14-6.14,4.36-12.37,6.53-18.7,6.53-5.55,0-9.7-1.68-12.47-5.05-2.77-3.36-4.16-7.42-4.16-12.17,0-5.54.98-11.37,2.97-17.51,1.98-6.13,3.95-12.17,5.94-18.11l141.3-397.77h-94.4l-2.37,8.31h52.84l-132.39,370.46c-2.37,6.73-4.75,14.16-7.12,22.26-2.37,8.12-3.56,15.54-3.56,22.26,0,12.67,3.86,21.67,11.58,27.01,7.72,5.34,18.11,8.01,31.17,8.01Z"/>
  <path d="M859.15,591.79c-57-42.92-122.65-78-177.2-124.34-31.04-77.97-61.39-155.86-90.7-233.57-26.75-70.9-50.16-146.19-79.51-215.83-2.26-5.37-5.76-17.95-12.85-18.04-18.05,5.36-35.39,12.99-53.1,19.2-5.41,1.9-11.4,1.33-17.3,3.35-18.6,6.38-22.84,16.79-30.23,33.8-43.88,100.97-79.84,208.94-122.54,311.19-5.71,13.67-10.77,27.98-16.55,41.28-7.8,17.93-43.13,39.14-60.23,51.31-65.67,46.74-133.7,90.45-198.95,137.74l3.1,5.14h64.04c5.7,0,81.07-57.94,92.87-66.18,48.23-33.68,97.71-67.22,146.4-101.46,41.99-29.53,82.99-60.97,126.34-88.38,6.08-.18,43.74,29.27,52.01,34.67,101.23,66.14,196.87,145.86,298.31,209.8,2.84,1.79,18.31,11.54,19.44,11.54h60.94c.71-1.92,1.07-3.34,1.09-4.51v-.21c-.05-2.56-1.85-3.86-5.38-6.51ZM509.92,341.29c-3.05,11.49-17.91-3.37-23.63-7.62-9.12-6.79-45.36-36.6-53.58-36.46-7.06.12-27.13,18.25-34.61,23.34-5.23,3.56-10.9,5.66-15.84,8.95-6.06,4.05-11.16,13.34-19.77,13.34-.33,0-.66-.01-1-.04.03-2.28-1.48-3.78-.86-6.18,6.24-24.17,19.29-45.84,28.18-68.72,11-28.29,20.25-57.86,31.58-86.15,3.06-7.63,12.19-36.01,19.7-21.83,16.88,31.84,28.65,78.15,42.85,112.05,4.63,11.63,29.32,60.51,26.97,69.33Z"/>
  <path d="M834.58,769.7c-2.48.43-4.95.85-7.28.77-14.55-.47-29.91-5.4-36.96-18.98-23.4-45.02-37.74-106.68-56.11-154.58-85.87-59.34-172.25-118.45-257.2-178.62-6.15-4.35-37.02-26.75-40.68-27.65-1.04-.26-2.03-.38-2.99-.38-8.27,0-13.62,8.83-19.2,12.4-56.48,36.08-110.53,76.64-165.63,115.28-37.63,26.39-77.06,50.46-113.3,78.8l2.14,6.26h35.12c12.65,0-6.05,35.38-8.27,41.29-9.69,25.79-18.34,54.33-29.54,79.93-10.64,24.32-23.72,42.71-51.12,48.03-2.48.48-5.07.33-7.61.17-5.84-.35-11.38-.7-14.47,6.66-3.32,7.92-1.71,36.96.6,45.82.72,2.76,5.49,9.4,7.12,9.4h198.3c2.04-1.3,2.69-2.83,3.1-5.16,1.75-10.11,3.15-31.39,2.17-41.41-.42-4.33-2.08-12.61-5.25-15.4-3.48-3.06-6.34-2.2-9.26-1.34-1.6.47-3.21.94-4.96.77-2.56-.25-5.3-3.14-8.64-3.44-3.64-.33-7.35-.19-11.05-.06-5.65.21-11.3.41-16.78-1.02-15.62-4.09-19.24-17.82-15.49-32.13,5.35-20.45,20.66-49.43,28.95-70.19,9.99-25.03,20.57-49.42,30.97-74.36,8.05-19.28,9.51-39.92,28.47-54.27,25.51-19.31,57.06-38.06,83.63-56.7,10.08-7.07,51.13-40.65,59.37-40.96,23.37,9.13,41.1,27.27,61.09,41.35,16.85,11.87,87.07,56.49,94.58,68.59,11.24,18.1,17.11,45.75,25.06,65.82,13.7,34.57,30.57,69.33,41.94,104.69,3.4,10.58,10.83,34.31,5.36,43.75-4.76,8.2-17.7,7.82-29.36,7.43-9.81-.33-18.7-.65-21.03,4.14-2.47,5.08-1.91,55.94,1.53,59.41l235.61.07c1.85-.54,3.72-1.98,4.56-3.7,1.93-3.98,1.89-49-.05-53.66-3.83-9.17-10.65-8-17.45-6.83Z"/>
  <polygon points="381.66 531.96 377.33 531.96 377.33 536.29 377.33 574.76 377.33 579.09 381.66 579.09 420.13 579.09 424.46 579.09 424.46 574.76 424.46 536.29 424.46 531.96 420.13 531.96 381.66 531.96"/>
  <polygon points="447.46 531.96 443.13 531.96 443.13 536.29 443.13 574.76 443.13 579.09 447.46 579.09 485.93 579.09 490.26 579.09 490.26 574.76 490.26 536.29 490.26 531.96 485.93 531.96 447.46 531.96"/>
  <polygon points="381.66 598.03 377.33 598.03 377.33 602.37 377.33 640.83 377.33 645.17 381.66 645.17 420.13 645.17 424.46 645.17 424.46 640.83 424.46 602.37 424.46 598.03 420.13 598.03 381.66 598.03"/>
  <polygon points="447.46 598.03 441.81 598.03 441.81 645.17 447.46 645.17 485.93 645.17 490.26 645.17 490.26 640.83 490.26 602.37 490.26 598.03 485.93 598.03 447.46 598.03"/>
</svg>