<svg width="3034" height="1080" viewBox="0 0 3034 1080" fill="none" xmlns="http://www.w3.org/2000/svg">
<g clip-path="url(#clip0_40_65)">
<path d="M1750.93 993.04C1745.61 998.69 1737.54 992.68 1734.63 987.92L1695.56 923.98L1695.99 992.58C1694.56 995.02 1688.13 995.02 1684.84 993.76L1684.82 907.1C1688.11 906.47 1692.85 905.95 1695.83 906.38C1698.4 906.75 1700.44 910.51 1702.46 913.78L1740.32 975L1739.82 908.27C1741.37 905.79 1747.72 905.82 1751.15 907.12L1750.92 993.04H1750.93Z" fill="black"/>
<path d="M3033.64 992.84C3031.56 994.52 3024.65 995.65 3022.83 994.35C3021.01 993.05 3019 990.5 3017.19 987.55L2978.17 924.05L2978.63 992.54C2976.89 995.02 2970.77 995.02 2967.39 993.77L2967.37 907.09C2970.77 906.53 2975.39 906.06 2978.5 906.27C2981.07 906.44 2983.02 910.51 2985.03 913.75L3022.93 975.02L3022.37 908.26C3023.57 905.74 3030.61 905.76 3033.62 907.26L3033.64 992.84Z" fill="black"/>
<path d="M2868.72 975.68C2862.13 988.93 2849.32 995.07 2837.3 995.96C2823.37 996.99 2810.11 992.22 2802.14 980.28C2790.8 963.29 2790.92 940.4 2801.29 922.93C2808.2 911.29 2820.44 905.47 2832.3 904.84C2845.43 904.15 2858.18 908.64 2866 920.01C2876.96 935.96 2877.64 957.74 2868.72 975.67V975.68ZM2856.93 972.13C2863.99 958.35 2863.9 942.41 2857.31 929.33C2852.47 919.72 2843.74 914.4 2833.85 914.57C2824.82 914.73 2816.15 919.71 2811.59 928.66C2804.63 942.31 2804.46 958.59 2811.54 972.15C2816.2 981.08 2824.79 986.18 2833.88 986.29C2843.06 986.4 2851.98 981.79 2856.93 972.12V972.13Z" fill="black"/>
<path d="M1059.98 974.29C1053.9 987.79 1041.3 994.43 1029.78 995.78C1014.96 997.52 1001.38 992.68 992.86 980.67C983.78 967.87 982.65 951.67 986.04 936.55C989.59 920.7 1001.54 908.94 1015.29 905.92C1032.3 902.18 1049.14 907.43 1058.05 922.33C1067.21 937.65 1067.56 957.44 1059.97 974.29H1059.98ZM1048.19 970.77C1054.5 957.27 1054.06 941.91 1047.79 929.3C1043.04 919.74 1034.29 914.51 1024.69 914.57C1015.46 914.63 1007.03 919.4 1002.34 928.28C995.27 941.67 994.92 957.93 1001.67 971.4C1006.47 980.97 1014.97 986.31 1024.76 986.3C1034.55 986.29 1043.34 981.13 1048.18 970.77H1048.19Z" fill="black"/>
<path d="M2293.83 993.85C2291.03 983.87 2288.67 974.02 2285.64 965.23C2282.26 955.4 2268.98 955.61 2260.86 957.63L2260.69 994.36L2249.06 993.99L2249.1 907.26C2270.47 904.48 2301.27 901.56 2303.48 927.86C2304.31 937.72 2299.07 947.28 2288.74 951.91C2294.18 956.8 2298.1 962.63 2299.84 969.68L2305.98 994.47L2293.84 993.85H2293.83ZM2281.19 945.86C2287.2 944.2 2291.33 937.33 2291.7 932.07C2292.05 927.16 2289.39 920.23 2284.45 917.76C2276.96 914.02 2268.48 914.27 2260.79 916.12V946.91C2267.57 947.42 2274.48 947.7 2281.19 945.85V945.86Z" fill="black"/>
<path d="M1365.64 993.15L1357.53 965.76C1354.53 955.61 1343.05 955.98 1332.68 957.15L1332.2 992.82C1330.67 994.87 1324.63 995.01 1320.81 993.84V907.23C1340.84 904.57 1371.21 901.67 1374.93 925.5C1376.67 936.64 1371.52 946.63 1360.58 951.89C1365.52 956.7 1369.68 962.26 1371.28 968.73L1377.49 993.85C1376.57 994.83 1367.76 995.17 1365.65 993.14L1365.64 993.15ZM1363.05 934.27C1363.79 928.74 1362.29 921.77 1357.45 918.67C1350.22 914.04 1339.29 913.32 1332.44 916.86V947.08C1344.34 948.54 1361.31 947.27 1363.05 934.27Z" fill="black"/>
<path d="M2443.7 967.2L2412.62 967.09L2403.97 994.09C2400.9 994.32 2396.44 994.28 2391.53 994.03L2420.79 907.68C2424.79 905.57 2431.79 905.56 2436.03 907.59L2465.38 993.9C2460.92 994.39 2455.93 994.47 2452.62 994.03L2443.71 967.2H2443.7ZM2440.71 957.32L2428.12 919.91L2415.48 957.15L2440.71 957.32Z" fill="black"/>
<path d="M1211.08 906.77L1223.11 906.52L1222.54 965.35C1222.36 983.99 1208.1 995.91 1190.48 996.29C1173.18 996.67 1159.04 985.75 1158.29 967.06C1157.53 948.14 1157.72 927.93 1157.96 908.17C1158 905.25 1169.05 905.25 1169.1 908.18L1170 965.3C1170.19 977.54 1179.04 986 1189.48 986.36C1200.3 986.73 1210.51 978.01 1210.61 965.57L1211.09 906.76L1211.08 906.77Z" fill="black"/>
<path d="M2003.42 960.45L2003.12 993.34C2001.1 994.63 1995.36 994.72 1991.58 993.97V907.42C2005.49 905.27 2019.36 903.92 2031.96 908.83C2043.33 913.26 2047.28 924.54 2046.06 935.74C2043.92 955.46 2025.39 961.4 2003.43 960.45H2003.42ZM2023.45 948.68C2030.28 946.52 2033.94 939.26 2034.33 934.2C2034.82 927.91 2032.49 920.71 2026.19 917.72C2019.33 914.46 2011.57 914.84 2003.34 915.72L2003.27 949.82C2010.37 950.5 2016.69 950.81 2023.45 948.68Z" fill="black"/>
<path d="M502.13 908.34C503.3 904.94 513.38 905.8 514.98 907.53L484.1 994.07C479.75 994.52 474.96 994.47 470.54 993.91L442.32 907.19C446.14 906.18 451.33 906.09 455.12 907.14L477.84 978.68L502.13 908.34Z" fill="black"/>
<path d="M648.359 953.34L614.629 953.78L614.649 984.72L651.769 985.05L652.309 994.61L603.019 994.75L602.869 906.29L649.669 906.12C650.689 908.45 650.729 914.54 649.739 916.28L614.699 916.62L614.779 943.67L648.289 943.84L648.359 953.35V953.34Z" fill="black"/>
<path d="M1879.63 994.35C1868.18 997.54 1855.81 995.98 1845.38 991.04C1845.13 988.3 1846.57 983.13 1847.76 981.08C1856.6 984.47 1863.88 986.85 1872.89 985.69C1879.83 984.8 1885.1 979.09 1885.85 973.49C1886.7 967.11 1883.29 960.46 1877.15 957.63L1859.75 949.62C1851.14 945.66 1846.25 937.23 1846.27 928.96C1846.3 919.53 1851.41 911.24 1861.06 907.38C1871.35 903.27 1883.44 904 1893.91 908.71C1893.83 911.34 1892.17 916.61 1891.08 918.07C1879.25 913.25 1860.43 912.5 1858.33 925.55C1857.61 930.02 1860.62 937.3 1864.98 939.31L1881.24 946.81C1891.69 951.63 1898.26 959.32 1898.15 970.18C1898.04 980.98 1892.14 990.85 1879.6 994.34L1879.63 994.35Z" fill="black"/>
<path d="M905.84 907.34L876.93 957.1L876.96 994.26L865.07 994.31L864.59 957.1L837.24 906.86C842.34 906.33 847.14 906.32 850.83 906.98L871.43 947.49L892.42 907.04C896.44 906.19 901 906.13 905.85 907.34H905.84Z" fill="black"/>
<path d="M2575.08 992.96C2572.66 994.73 2567.05 994.92 2563.04 994L2562.91 916.78L2536.87 916.23L2536.48 906.2L2600.71 906.1L2602.04 916.07L2575.08 916.91V992.97V992.96Z" fill="black"/>
<path d="M249.64 985.09C251.05 986.22 251.32 991.34 250.88 994.64H202.1L202.09 906.61L213.72 906.55L213.83 984.58L249.64 985.09Z" fill="black"/>
<path d="M2701.42 906.13H2689.3V994.71H2701.42V906.13Z" fill="black"/>
<path d="M353.921 906.13H341.801V994.73H353.921V906.13Z" fill="black"/>
<path d="M1586.72 906.13H1575.13V994.7H1586.72V906.13Z" fill="black"/>
<path d="M2150.97 906.13H2139.38V994.7H2150.97V906.13Z" fill="black"/>
<path d="M1644.06 814.58C1625.36 810.86 1631.1 760.56 1632.81 745.14L1668.01 427.88C1679.24 360.29 1689.41 288.6 1734.51 232.96C1632.13 224.58 1533.38 221.34 1432.37 221.83C1360.06 222.18 1290.3 226.12 1218.82 232.26C1196.73 234.16 1176.28 236.01 1154.66 240.58C1143.59 242.92 1133.77 234.39 1134.1 223.48C1141.57 211.97 1214.18 203.58 1229.15 202.19C1326.49 193.12 1487.8 194.31 1586.18 201.25L1756.08 213.24C1809.46 173.63 1866.78 161.37 1931.83 152.09C1980.74 149.11 2027.84 146.33 2077.22 149.67C2151.29 154.69 2222.75 168.25 2293.55 189.16C2315.19 195.55 2402.3 223.52 2395.63 251.34C2389.76 275.81 2274.88 272.96 2252.49 272.27C2177.74 269.99 2105.23 264.49 2030.42 258.01L1783.56 236.6C1777.96 236.11 1769.57 236.65 1765.46 238.59C1728.8 277.65 1712.35 335.65 1702.39 387.27C1695.53 422.81 1690.27 456.63 1685.82 492.99L1648.41 798.67C1647.68 804.62 1646.21 809.11 1644.04 814.58H1644.06ZM2384.35 247.27C2400.12 235.13 2322.53 206.44 2316.68 204.48C2241.4 179.18 2164.06 163.99 2084.47 158.17C2011.66 152.85 1923.24 157.96 1854.82 182.79C1832.75 190.8 1811.85 199.76 1792.43 216.39L2109.28 249.86C2191.61 258.56 2272.26 261.25 2354.52 257.08C2365.19 256.54 2375.54 254.06 2384.34 247.28L2384.35 247.27Z" fill="black"/>
<path d="M1338 653.35C1326.58 648.73 1316.78 638.29 1312.33 627.44C1308.28 617.56 1307.86 607.86 1305.65 595.93C1286.21 614.68 1274.49 634.89 1256.29 653.57C1242.04 651.26 1235.34 638.88 1238.86 625.37L1246.35 596.64L1197.23 614.16C1168.37 624.45 1138.65 632.67 1108.34 635.18C1086.1 637.02 1069.99 625.11 1061.55 603.72L1025.63 643.57C1023.07 646.42 1018.39 649.75 1014.69 651.69C1007.03 648.61 996.121 641.88 995.881 632.85C995.471 617.31 1001.92 605.09 1004.41 587.91L927.141 632.16C909.871 642.05 892.381 650.23 873.371 655.67C864.041 658.34 853.861 658.02 845.791 652.48C839.651 648.27 832.841 638.39 832.661 629.23L832.151 602.9L770.051 648.74C760.811 655.56 751.981 653.97 744.751 646.7C728.521 630.38 745.851 619.71 741.721 613.22L672.791 634.23C649.301 641.39 626.171 645.51 601.771 642.36C560.001 636.96 538.561 597.45 526.181 559.13C499.661 586.28 477.461 612.49 454.671 640.17C449.761 646.14 442.841 653.98 436.011 657.16C420.391 658 410.041 641.53 412.721 627.25C416.261 608.42 420.331 591.23 425.391 573.11L445.261 501.96C344.431 557.63 250.881 601.78 141.361 634.82C136.491 636.29 130.701 639.1 126.711 641.71C95.3407 743.22 76.4807 842.57 58.6607 946.66C51.3207 989.55 45.8307 1030.36 42.8107 1073.62C42.6707 1075.68 41.0207 1079.21 39.4807 1079.72C30.7107 1082.65 28.1107 1061.38 27.9207 1055.27C24.0507 935.35 56.3507 795.86 82.4107 680.06L89.7207 647.59C65.4607 650.38 44.5507 653.82 21.5107 654.94C11.0307 655.45 1.0107 648.39 -0.0292969 637.38L99.7307 614.48L147.071 477.53C166.581 421.08 191.411 368.47 220.201 316.17C247.821 266 278.821 219.35 317.501 176.85C373.671 115.14 441.991 66.35 518.351 32.79C601.531 -3.77004 724.971 -22.35 795.751 45.81C843.341 91.65 835.111 154.99 804.831 208.34C790.111 234.28 772.181 256.64 751.401 278.27C677.261 355.44 571.131 427.68 477.301 483.29L446.971 601.41C468.591 577.86 486.581 557.78 509.281 539.1C514.291 535.43 520.591 534.95 525.921 537.91C550.181 551.4 541.971 573.48 556.771 601.44C563.691 614.51 575.461 626.23 590.521 628.83C642.111 637.74 684.461 611.99 737.551 601.41C748.021 599.32 756.131 596.94 763.771 589.13C782.081 570.39 805.711 549.68 831.671 568.81C837.631 573.2 845.171 579.59 846.811 586.1C843.661 599.49 846.941 596.27 843.511 617.31C842.061 626.22 841.261 636.74 847.411 644.52C855.791 655.12 895.741 636 906.401 630.15C932.851 615.61 956.971 599.18 981.961 582.1C991.851 575.34 1001.36 566.45 1013.36 563.83C1019.8 562.42 1030.83 574.25 1029.75 580.29L1023.83 613.2C1031.87 609.52 1053.27 577.27 1062.69 580.94C1084.86 589.58 1065.69 626.63 1099.41 625.22C1156.12 622.86 1206.37 599.23 1255.5 572.58C1260.25 571.59 1267.16 576.84 1269.65 580.05C1273.19 584.62 1271.53 591.76 1271.03 598.87C1282.58 590.08 1291.14 576.62 1304.12 571.02C1315.05 566.3 1323.58 580.07 1323.43 589.26C1323.03 613.59 1319.5 642.97 1342.59 644.12C1357.78 644.88 1370.24 638.09 1381.39 628.49C1393.01 618.49 1405.96 609.77 1414.89 597.36C1423.05 586.02 1430.47 575.38 1442.87 568.25C1451.14 563.49 1469.53 567.41 1474.39 573.5C1486.38 588.53 1469.22 609.25 1458.24 621.01C1448.85 631.07 1436.24 637.77 1422.21 635.21L1412.46 628.22C1393.9 641.95 1363.13 663.52 1337.99 653.36L1338 653.35ZM503.481 300.64C511.191 305.32 520.681 312.2 518.511 320.91L487.411 445.88C542.121 413.93 590.551 381.03 638.981 344.88C703.791 295.21 805.821 208.59 813.121 122.57C816.511 82.59 795.951 47.3 759.811 31.04C709.031 8.18996 640.631 12.74 588.311 30.41C478.521 67.5 383.831 136.99 313.911 229.16C284.161 268.37 259.451 309.14 236.811 352.84C212.141 401.55 190.091 449.82 172.501 501.59L137.891 603.46C176.271 593.68 210.011 581.3 245.461 567.14C318.471 537.99 387.541 503.22 456.061 464.51L496.931 315.07C498.351 309.87 500.121 306.02 503.451 300.63L503.481 300.64ZM771.861 624.44L831.891 584.29C820.081 568.18 774.051 612.79 771.861 624.44ZM1469.44 580.15C1456.69 585.48 1448.9 597.72 1447.41 609.55C1458.37 602.22 1466.6 592.25 1469.44 580.15ZM1436.84 611.88L1441.32 591.1C1433.71 599.49 1428.84 607.6 1424.88 618.88C1427.4 619.72 1431.67 619.8 1433.19 618.49C1434.46 617.4 1436.45 613.64 1436.83 611.87L1436.84 611.88Z" fill="black"/>
<path d="M2490.29 617.93C2448.86 619.13 2411.25 618.93 2372.04 615.51C2350.77 613.65 2334.05 604.95 2321.63 587.35C2307.09 592.57 2279.17 621.18 2270.5 611.68C2262.22 602.6 2263.13 591.18 2263.67 578.77C2241.85 589.38 2169.01 626.77 2150.74 610.96C2143.72 604.88 2145.49 593.55 2143.04 583.87L2100.76 620.33C2094.99 625.31 2086.38 628.95 2079.29 629.45C2069.59 630.13 2063.16 623.62 2063.28 614.79L2063.6 591.59C2021.55 612.36 1979.34 630.61 1933.89 630.28C1915.44 630.15 1901.21 620.72 1891.56 605.46C1858.91 616.5 1810.14 629.89 1778.77 618.06C1768.16 630.9 1755.72 641.47 1740.15 646.04C1729.32 649.22 1718.69 643.92 1714.62 633.62C1709.49 620.64 1707.62 605.7 1712.64 592.15C1720.86 569.98 1755.28 535.91 1773.14 557.45L1787.57 552.52C1807.52 562.2 1798.8 587.15 1789.56 604.37C1820.1 608.83 1848.73 602.61 1876.63 594.04C1884.87 591.51 1889.81 585.96 1891.56 577.43C1896.47 553.49 1917.14 538.43 1930.22 547.35C1942.2 555.51 1935.94 576.28 1923.94 584.92L1899.81 602.28C1932.38 638.05 2015.99 597.22 2050.83 580.04C2067.57 571.79 2080.68 560.5 2094.81 548.2C2098.09 545.34 2104.51 553.25 2104.22 557.32C2102.89 575.85 2087.64 586.93 2079.08 605.86C2084.7 607.81 2089.49 607.49 2093.4 604.54L2139.58 569.72C2143.12 567.05 2148.87 563.95 2152.76 563.8C2164.27 575.72 2150.12 588.71 2154.39 598.78C2157.95 607.19 2182.73 599.73 2190.39 597.16C2222.17 586.51 2250.27 569.99 2278 549.54C2290.39 560.81 2286.48 574.29 2281.06 590.59L2311.75 570.21C2326.92 560.14 2324.04 581.34 2352.21 590.54C2417.62 611.88 2689.53 594.33 2773.8 590.18L3025.17 577.83C3031.23 584.71 3035.3 595.28 3032.86 602.92C3023.01 610.89 3010.63 606.75 2999.62 605.62C2979.5 603.56 2961 604.32 2940.22 604.92L2490.3 617.93H2490.29ZM1922.79 562.11C1915.02 564.04 1907.51 570.8 1902.91 580.24C1911.08 577.79 1917.44 571.35 1922.79 562.11ZM1776.86 595.53C1782.55 588.48 1786.35 581.77 1789.04 573.59C1780.67 578.12 1775.28 585.65 1776.86 595.53ZM1767.05 606.4L1762.58 573.99C1749.04 579.07 1720.49 614.77 1725.28 621.94C1731.48 631.2 1763.18 618.54 1767.05 606.4Z" fill="black"/>
</g>
<defs>
<clipPath id="clip0_40_65">
<rect width="3033.64" height="1080" fill="white"/>
</clipPath>
</defs>
</svg>
