<?xml version="1.0" encoding="UTF-8"?>
<svg id="Layer_1" data-name="Layer 1" xmlns="http://www.w3.org/2000/svg" viewBox="0 0 2283.94 398.48">
  <rect x="799.48" y="50.71" width="1484.45" height="4.67"/>
  <path d="M141.29,20.54C126.59,6.85,107.22,0,83.17,0S40.41,6.85,25.05,20.54C8.35,37.25,0,59.12,0,86.18v186.38c0,27.05,8.35,48.94,25.05,65.63,15.36,13.7,34.73,20.54,58.12,20.54s43.42-6.84,58.12-20.54c16.7-16.03,25.05-37.91,25.05-65.63v-45.09h-55.11v45.09c0,12.36-2.34,20.72-7.01,25.05-4.35,4.01-11.36,6.01-21.04,6.01s-16.21-2-20.54-6.01c-5.01-4.67-7.51-13.02-7.51-25.05V86.18c0-12.03,2.5-20.37,7.51-25.05,4.34-4.01,11.19-6.01,20.54-6.01s16.7,2,21.04,6.01c4.67,4.35,7.01,12.7,7.01,25.05v31.07h55.11v-31.07c0-27.72-8.35-49.6-25.05-65.63h0Z"/>
  <path d="M245.51,4.01l-70.15,350.72h56.12l10.02-55.61h63.13l10.02,55.61h56.12L300.62,4.01h-55.11ZM251.02,244l22.04-125.76,22.04,125.76h-44.09,0Z"/>
  <path d="M529.09,25.05c-15.03-14.03-34.41-21.04-58.12-21.04h-83.17v350.72h55.11v-140.79h25.05l28.56,140.79h56.12l-31.57-154.82c3.01-2,5.68-4.17,8.02-6.52,16.7-15.36,25.05-37.24,25.05-65.63v-37.58c0-28.06-8.35-49.77-25.05-65.14ZM499.02,127.76c0,12.03-2.5,20.38-7.51,25.05-4.35,4.01-11.19,6.01-20.54,6.01h-28.06V59.12h28.06c9.34,0,16.2,2,20.54,6.01,5.01,5.01,7.51,13.36,7.51,25.05v37.58h0Z"/>
  <polygon points="631.79 4.01 576.68 4.01 576.68 354.73 721.98 354.73 721.98 299.62 631.79 299.62 631.79 4.01"/>
  <polygon points="887.25 154.03 919.58 247.07 931.32 247.07 971.05 133.69 957.86 133.69 925.3 228.55 892.73 133.69 882.12 133.69 849.41 227.65 817.31 133.69 803.47 133.69 843.2 247.07 854.62 247.07 887.25 154.03"/>
  <path d="M1069.31,133.69v68.51c0,15.12,3.88,26.61,11.66,34.5,7.77,7.88,19.06,11.82,33.85,11.82s26.03-3.94,33.69-11.82c7.66-7.88,11.5-19.38,11.5-34.5v-68.51h-13.19v67.86c0,11.79-2.68,20.61-8.04,26.45s-13.35,8.76-23.96,8.76-18.65-2.92-24.12-8.76-8.2-14.66-8.2-26.45v-67.86h-13.19,0Z"/>
  <polygon points="1339.17 144.79 1339.17 133.69 1267.6 133.69 1267.6 247.07 1339.17 247.07 1339.17 235.97 1280.47 235.97 1280.47 195.12 1335.79 195.12 1335.79 184.03 1280.47 184.03 1280.47 144.79 1339.17 144.79"/>
  <polygon points="1522.67 247.07 1532.64 247.07 1532.64 133.69 1520.42 133.69 1520.42 224.87 1452.06 133.69 1441.77 133.69 1441.77 247.07 1454.16 247.07 1454.16 155.67 1522.67 247.07"/>
  <path d="M1699.33,231.39c-4.67,3.59-11.82,5.39-21.47,5.39-5.26,0-10.11-.46-14.55-1.37-4.45-.91-8.58-2.31-12.38-4.18-3.8-1.87-7.53-4.16-11.18-6.84l-4.67,10.62c3.54,2.9,7.48,5.33,11.82,7.32,4.34,1.99,9.11,3.51,14.31,4.58s10.75,1.61,16.65,1.61c8.58,0,16-1.34,22.27-4.02,6.27-2.68,11.1-6.46,14.48-11.34,3.38-4.87,5.06-10.43,5.06-16.65,0-7.82-2.6-14.02-7.8-18.58-5.2-4.55-13.21-7.96-24.04-10.21l-16.73-3.54c-7.19-1.39-12.36-3.59-15.52-6.59s-4.74-7.07-4.74-12.22c0-4.29,1.15-8.07,3.46-11.34,2.31-3.27,5.52-5.76,9.65-7.48,4.13-1.71,9.03-2.57,14.71-2.57,6.65,0,12.65.99,18.01,2.97,5.36,1.99,10.45,5.17,15.28,9.57l4.67-10.29c-3-3-6.46-5.55-10.37-7.64-3.92-2.09-8.17-3.67-12.79-4.74s-9.49-1.61-14.64-1.61c-8.04,0-15.19,1.4-21.47,4.18-6.27,2.79-11.15,6.7-14.64,11.74-3.48,5.04-5.23,10.94-5.23,17.69,0,8.15,2.49,14.66,7.48,19.54,4.99,4.88,12.52,8.39,22.6,10.53l16.73,3.38c5.25,1.07,9.51,2.41,12.79,4.02,3.27,1.61,5.63,3.54,7.07,5.79,1.44,2.25,2.17,4.93,2.17,8.04,0,5.9-2.33,10.64-7,14.23h0Z"/>
  <path d="M1869.88,144.3c6.43,0,12.31,1.05,17.61,3.14,5.31,2.09,10.43,5.45,15.36,10.05l5.15-10.78c-4.5-4.71-10.08-8.3-16.73-10.78-6.65-2.47-13.89-3.7-21.71-3.7-11.15,0-20.69,2.36-28.62,7.07-7.94,4.72-14.02,11.4-18.26,20.02-4.24,8.63-6.35,18.95-6.35,30.96s2.12,22.35,6.35,31.04c4.23,8.69,10.32,15.38,18.26,20.1,7.94,4.72,17.47,7.07,28.62,7.07,7.82,0,15.06-1.26,21.71-3.78s12.22-6.08,16.73-10.69l-5.15-10.78c-4.93,4.61-10.05,7.96-15.36,10.05-5.31,2.09-11.18,3.14-17.61,3.14-12.76,0-22.51-4.05-29.27-12.14-6.75-8.1-10.13-19.43-10.13-34.02s3.38-25.89,10.13-33.93c6.75-8.04,16.51-12.06,29.27-12.06h0Z"/>
  <polygon points="2009.15 133.69 2009.15 247.07 2022.33 247.07 2022.33 195.28 2090.37 195.28 2090.37 247.07 2103.55 247.07 2103.55 133.69 2090.37 133.69 2090.37 183.86 2022.33 183.86 2022.33 133.69 2009.15 133.69"/>
  <polygon points="2283.51 144.79 2283.51 133.69 2211.95 133.69 2211.95 247.07 2283.51 247.07 2283.51 235.97 2224.81 235.97 2224.81 195.12 2280.13 195.12 2280.13 184.03 2224.81 184.03 2224.81 144.79 2283.51 144.79"/>
  <rect x="799.48" y="324.38" width="1484.45" height="4.67"/>
  <g>
    <path d="M1878.87,385.67c-.45-.28-.93-.49-1.45-.64.56-.16,1.12-.34,1.62-.58,1.57-.74,2.76-1.8,3.57-3.17s1.22-3.01,1.22-4.92c0-2.91-.91-5.19-2.73-6.83-1.82-1.64-4.4-2.46-7.73-2.46h-14.29v29.63h7.73v-11.06h2.31c.48,0,.9.05,1.26.15s.7.27,1.01.51c.31.24.58.55.8.95l5.17,9.46h8.45l-4.62-8.41c-.62-1.18-1.39-2.05-2.31-2.63h0ZM1871.94,380.18h-5.13v-7.19h5.13c1.49,0,2.61.3,3.38.88.77.59,1.15,1.5,1.15,2.73s-.39,2.1-1.15,2.69c-.77.59-1.9.88-3.38.88h0Z"/>
    <polygon points="1917.33 396.7 1938.26 396.7 1938.26 390.74 1924.69 390.74 1924.69 384.64 1937.34 384.64 1937.34 378.67 1924.69 378.67 1924.69 373.04 1938.26 373.04 1938.26 367.07 1917.33 367.07 1917.33 396.7"/>
    <path d="M1981.51,367.07l-13.79,29.63h7.65l2.56-5.97h13.3l2.56,5.97h7.73l-13.87-29.63h-6.15ZM1984.54,375.14h.08l4.03,9.62h-8.14l4.03-9.62Z"/>
    <polygon points="2039.64 367.07 2031.91 367.07 2031.91 396.7 2052.8 396.7 2052.8 390.27 2039.64 390.27 2039.64 367.07"/>
    <polygon points="2077.09 373.38 2086.47 373.38 2086.47 396.7 2094.19 396.7 2094.19 373.38 2103.61 373.38 2103.61 367.07 2077.09 367.07 2077.09 373.38"/>
    <path d="M2158.61,370.77c-1.33-1.34-2.92-2.38-4.77-3.11-1.85-.73-3.89-1.09-6.13-1.09s-4.29.37-6.13,1.11c-1.85.74-3.45,1.78-4.79,3.11s-2.37,2.93-3.09,4.79c-.71,1.87-1.07,3.95-1.07,6.24s.36,4.39,1.09,6.28,1.75,3.51,3.07,4.86c1.32,1.34,2.9,2.39,4.75,3.13s3.91,1.11,6.18,1.11,4.29-.37,6.13-1.11c1.85-.74,3.44-1.79,4.77-3.13s2.35-2.95,3.07-4.83c.71-1.88,1.07-3.98,1.07-6.31s-.36-4.38-1.07-6.24c-.71-1.86-1.74-3.47-3.07-4.82h0ZM2153.88,386.62c-.56,1.32-1.36,2.32-2.4,3.03-1.03.7-2.28,1.05-3.74,1.05s-2.75-.35-3.8-1.05-1.87-1.71-2.44-3.03c-.58-1.32-.86-2.9-.86-4.75s.29-3.43.86-4.75,1.39-2.32,2.44-3.01c1.05-.68,2.31-1.03,3.76-1.03s2.71.34,3.76,1.03c1.05.69,1.85,1.69,2.42,3.01.56,1.32.84,2.9.84,4.75s-.28,3.43-.84,4.75h0Z"/>
    <path d="M2215.71,385.67c-.45-.28-.93-.49-1.45-.64.56-.16,1.12-.34,1.62-.58,1.57-.74,2.76-1.8,3.57-3.17s1.22-3.01,1.22-4.92c0-2.91-.91-5.19-2.73-6.83-1.82-1.64-4.4-2.46-7.73-2.46h-14.29v29.63h7.73v-11.06h2.31c.48,0,.9.05,1.26.15s.7.27,1.01.51c.31.24.58.55.8.95l5.17,9.46h8.45l-4.62-8.41c-.62-1.18-1.39-2.05-2.31-2.63h0ZM2208.77,380.18h-5.13v-7.19h5.13c1.49,0,2.61.3,3.38.88.77.59,1.15,1.5,1.15,2.73s-.39,2.1-1.15,2.69c-.77.59-1.9.88-3.38.88h0Z"/>
  </g>
  <g>
    <path d="M2258.55,389.11v-16.34h6.93c1.28,0,2.39.2,3.34.59s1.69.97,2.22,1.74c.52.76.78,1.68.78,2.76,0,.79-.14,1.49-.42,2.09-.28.6-.65,1.11-1.12,1.52-.47.41-.98.74-1.54.97l4.04,6.68h-5.55l-3.06-5.62h-.91v5.62h-4.71ZM2263.26,379.77h1.73c.65,0,1.15-.12,1.52-.35s.55-.65.55-1.24-.18-1.01-.55-1.24c-.37-.23-.87-.34-1.5-.34h-1.75v3.17h0Z"/>
    <path d="M2264.78,398.48c-9.67,0-17.53-7.86-17.53-17.53s7.86-17.53,17.53-17.53,17.53,7.86,17.53,17.53-7.86,17.53-17.53,17.53ZM2264.78,367.71c-7.3,0-13.23,5.94-13.23,13.23s5.94,13.23,13.23,13.23,13.23-5.94,13.23-13.23-5.94-13.23-13.23-13.23Z"/>
  </g>
</svg>