<?xml version="1.0" encoding="UTF-8"?>
<svg id="Layer_1" xmlns="http://www.w3.org/2000/svg" version="1.1" viewBox="0 0 6589.83 2732.38">
  <!-- Generator: Adobe Illustrator 29.8.1, SVG Export Plug-In . SVG Version: 2.1.1 Build 2)  -->
  <path d="M4641.76.22c7.26,7.32-21.99,41.94-28.09,49.87-147.19,191.43-335.38,389.94-503.78,564.22-215.1,222.6-442.58,432.69-675.46,636.46,82.63,148.72,175.97,291.33,269.38,433.4l7.98,4.09c397.21-65.74,797.1-111.53,1200.17-123.89,128.38-3.94,263.33-11.86,392-4.33,58.82,3.44,119.29,20.18,177.57,28.43l-2.06,15.79c-71.94-2.61-143.88-2.47-215.85-3.89-243.49-4.81-484.92-5.19-727.79,11.88-270.52,19.01-539.02,59.36-806.02,103.98-3.8,3.42,24.35,42.84,28.72,49.24,204.14,299.69,512.96,600.22,671.96,916.04,4.52,8.98,26.61,45.5,9.18,50.66-14.19,4.2-57.77-56.27-67.46-68.39-77.97-97.6-146.05-203.19-220.85-303.15-156.53-209.2-321.07-412.52-465.6-630.61-9.1-4.47-76.03,12.65-92.03,16.11-164.26,35.52-326.76,81.54-481.57,146.77-40.3,7.68-59.53-45.69-3.23-67.57,68.23-26.52,178.5-46.14,252.81-63.19,99.52-22.83,199.8-42.68,300.05-61.97l-256.07-423.95c-3.71-2.64-21.27,12.73-25.77,16.13-129.86,98.14-251.96,207.34-392.07,291.93-35.61,105.18-69.7,210.96-103.15,316.85-7.42,23.48-39.54,145.33-48.04,153.96-23.84,24.19-62.7-4.22-49.93-35.97l135.01-394.91c-74.79,34.51-218.82,112.58-276.81,14.81-56.13-94.63,15.63-307.37,48.83-406.79l-271.87,106.09c-22.04,14.48-71.52,24.83-89.22,41.67-8.32,7.92-23.42,111.24-28.14,132.96-67.98,312.35-235.79,844.92-542.68,997.32-269.34,133.75-401.81-81.04-315.06-331.06,123.07-354.72,527.61-647.07,840.61-827.39,4.83-1.99,4.82-5.79,6.21-9.79,6.15-17.75,11.24-78.77,12.14-99.91.26-6,2.73-11.55-5.92-9.89l-146.01,154.02c-34.97,25.2-102.65,107.34-149.14,97.19-31.24-6.82-32.9-43.79-30.84-69.18,1.39-17.09,9.64-33.48,9.95-50.04-45.76,34.7-82.31,86.26-128.1,119.9-68.06,50.01-83.14,22.5-97.82-46.08-1.19-5.57,3.41-11.56-6.05-9.81-17.99,20.5-33.64,43.95-51.99,64.03-23.05,25.21-81.95,88.56-112.97,95.05-26.15,5.47-52.65-10.35-56.83-37.37-13.51-87.29,84.2-238.17,141.69-301.8,32.18-35.61,94.07-99.09,144.03-59.92,29.65,23.24,37.01,103.23,4.02,127.91-13.63-.02-21.95-71.01-36.27-79.88-21.07-4.54-109.59,122.39-123.39,144.29-29.21,46.32-57.72,97.9-70.3,151.66,5.37,6.7,86.88-76.53,94.02-83.94,16.48-17.12,52.22-69.75,72.96-75.15,60.18-15.66,22.6,80.39,46.81,103.52,6.84,6.54,35.75-15.77,43.44-21.17,41.15-28.93,116.14-93.75,148.79-131.21,43.09-49.44,59.04-109.47,115.86-156.14,70.88-58.24,138.93-33.44,142.13,60.09,21.26-7.83,37.31-43.63,61-39.38,40.84,7.33,23.93,102.05,22.98,131.36,117.54-54.77,236.53-113.56,368.04-125.92,59.14-123.38,125.16-305.83,238.63-389.37,95.12-70.02,166.5-13.16,237.27,55.31,40.31-121.91,79.51-244.92,125.04-364.99,9.51-25.08,19.6-57.3,31.5-80.5,2.9-5.66,5.54-14.7,13.46-14.54,9.9-.18-17.85,92.36-19.97,100.03-36.89,133.6-85.92,263.93-122.1,397.8,69.26,90.85,121.04,193.47,184,288.3,3.27,4.92,12.54,23.99,18.01,21.84,181.06-159.75,356.8-325.76,526.21-497.82,208.7-211.97,408.15-450.73,621.79-654.21,11.98-11.41,53.74-50.08,65.94-54.06,5.36-1.75,10.55-2.43,16.15-1.81ZM2936.55,1574.99l228.49-673.79c1.09-11.44-29.55-45.99-39.09-55.16-69.08-66.36-130.97-65.12-200.26.06-130.16,122.45-297.84,531.78-284.05,708.24,3.02,38.58,17.18,93.06,60.03,103.97,70.17,17.87,175.35-49.94,234.88-83.33ZM3201.71,940.23l-195.88,587.97c130.27-88.21,252.24-188.29,371.5-290.76l-175.61-297.2ZM2029.83,1432.2c72.96-38.7,127.45-103.31,185.96-160.1,5.58-12.08-10.56-68.42-22.02-74.03-26.26-12.87-76.36,55.14-89.62,74.5-13.01,18.99-84.53,146.36-74.33,159.63ZM2281.77,1408.22c-7.9-1.32-13.55,2.74-20.14,5.82-279.72,130.81-681.05,464.75-787.91,760.08-39.64,109.55-61.92,295.83,84.8,335.34,190.14,51.2,381.89-192.02,463.96-334.58,133.62-232.1,205.97-505.58,259.29-766.67Z"/>
  <path d="M5413.8,1220.19c40.46,1.78,84.06-90.12,114.27-91.96,14.99-.92,58.67,31.06,76.28,39.4,187.49,88.7,601.88,66.68,796.51-2.34,36.67-13,149.84-74.38,180.94-59.08,3.51,1.73,5.95,5.23,7.32,8.85,6.73,23-36.45,56.48-54.08,68.4-70.41,47.58-202.58,57.71-287.29,64.71-142.53,11.77-310.03,15.39-451.93,0-91.82-9.96-185.24-28.96-264.1-78.84-35.55,29.78-74.4,98.26-128.13,91.11-59.49-7.92-28.01-126.07-21.83-164.21-63.44,24.41-131.12,45.1-199.96,31.98,4.37,63.74-40.1,169.88-97.19,200.83-61.96,33.6-75.1-23.89-70.76-74.76,1.67-19.55,11.54-38.18,9.96-58.05-75.05,85.86-145.95,184.92-231.91,260.09-105.43,92.2-169.78,69.58-153.61-77.61,6.86-62.44,28.98-126.73,47.5-186.46l-103.15,62.81c-71.15,32.94-134.15,44.35-190.9-18.8-8.36-9.3-17.1-34.14-30.06-30.53-8.43,2.35-52.98,48.52-61.95,58.42-52.11,57.47-101.03,143.04-153.99,194.02-11.8,11.36-36.03,22.88-45.96,2.06-16.47-34.55,48.74-163.44,57.96-204.02-47.81,33.32-118.45,106-181.75,95.75-29.95-4.85-32.93-39.92-41.83-62.24-1.63-4.08,2.17-6.87-6.32-5.48-48.62,37.78-128.54,163.28-185.94,178.07-35.2,9.07-58.27-8.83-60.18-44.27-4.37-81.31,135.04-319.22,215.95-339.94,91.18-23.36,91.25,91.68,70.02,150.02-4.32,11.88-17.78,27.34-18.09,37.88-.33,10.95,11.6,62.16,20.36,68.02,33.57,22.43,114.69-40.38,141.72-61.92,13.91-11.09,55.77-45.43,64.94-57.01,13.75-17.37,43.92-105.7,56.46-133.59,101.68-226.1,217.56-498.48,351.05-704.95,22.88-35.39,90.4-137.88,137.67-126.61,62.79,14.98,13.24,151.88-1.02,191.25-69.06,190.75-217.9,405.4-341.4,566.6-50,65.26-98.43,109.49-134.29,185.71-26.39,56.1-47.37,115.45-71.36,172.65l137.9-162.1c17.4-11.54,40.27-39.41,63.22-35.21,31.11,5.69,42.92,74.78,94.71,85.6,61.19,12.78,165.32-49.89,210.12-90.35,37.11-33.52,55.74-111.81,76.25-159.75,94.44-220.79,213.53-469.74,347.35-668.65,25.81-38.36,99.22-144.89,144.85-151.29,78.83-11.06,35.59,128.18,22.76,166.9-67.99,205.28-241.14,469.48-381.18,634.82-31.87,37.63-107.86,104.54-128.74,139.26-25.25,41.97-78.7,215.7-83.1,264.9-1.24,13.86-2.34,77.15,3.83,84.01,7.14,7.93,18.34,5.38,27.3,3.25,71.05-16.95,228.93-215.07,278.38-277.73,14.64-18.55,95.11-132.27,105.31-135.01,11.77-3.16,16.82,5.93,23.78,6.6,8.52.81,13.45-10.33,29.45-5.52,20.56,6.18,21.02,35.08,43.59,40.62,49.07,12.05,115.73-7.2,160.46-28.1,12.29-5.74,31.24-22.7,42.65-25.34,76.68-17.73,9.29,130.85,21.19,167.15ZM5257.76,228.22c-10.47-11.49-72.95,73.97-79.24,82.72-43.79,60.94-84.39,133.01-121.43,198.57-99.7,176.42-187.84,360.24-267.27,546.69,61.37-59.36,116.89-129.67,167.23-198.73,85.06-116.68,168.25-252.32,228.17-383.83,34.87-76.53,70.07-160.35,72.54-245.41ZM4717.76,292.22c-9.66-10.88-63.72,65.53-68.89,73.07-83.8,122.3-158.65,289.98-222.52,425.48-39.95,84.74-85.59,177.55-120.08,263.92-2.31,5.79-5.68,10.76-4.45,17.49l61.54-76.39c94.39-128.81,187.22-261.1,260.5-403.5,46.75-90.84,97.25-196.03,93.89-300.07ZM5057.81,1300.18c55.26-17.25,102-120.73,91.88-173.89-1.67-8.78-17.93-23.64-26.16-25.88s-4.59,2.01-6.08,5.4c-11.47,26.27-74.69,177.78-59.65,194.37ZM3925.74,1132.21c-15.94-11.22-74.88,67.43-84.85,81.1-44.1,60.48-85.33,131.09-107.1,202.86,12.91,12.89,134.66-113.33,147.92-126.03,9.1-8.72,33.89-23.61,39.62-32.38,16.85-25.79,15.23-96.45,4.4-125.55Z"/>
  <path d="M1420.77,1247.21c65.62-236.54,142.83-513.29,116.97-760.96-40.99-392.59-412.37-382.93-703.9-267.99-270.87,106.8-544.49,330.04-686.14,585.86C-27.06,1119.72-21.08,1517.85,356.73,1667.25c18.5,7.32,85.74,24.22,95.31,32.69,14.93,13.2,7.15,38.52-19.13,35.39-126.85-15.11-280.15-112.53-348.78-219.47-198.22-308.84-12.79-712.79,211.61-951.72,220.77-235.07,674.26-507.55,1006.92-418.81,343.36,91.6,289.02,538.9,241.88,807.6-95.26,542.94-367.58,1089.4-650.05,1557.95-24.07,39.93-100.25,174.72-135.19,192.8-58.1,30.05-64.89-60.81-69.47-97.52-20.59-164.98-13.47-370.76,28.28-531.66,92.24-355.48,385.94-657.28,702.67-827.31ZM741.72,2628.19c89.89-167.08,192.61-327.28,284.75-493.29,147.43-265.61,279.83-541.72,375.27-830.69-271.22,143.4-531.12,399.18-632.04,693.92-59.08,172.54-82.42,437.61-38.6,614.86,1.86,7.54-.04,18.09,10.62,15.2Z"/>
</svg>