<?xml version="1.0" encoding="UTF-8"?>
<svg id="Layer_1" data-name="Layer 1" xmlns="http://www.w3.org/2000/svg" viewBox="0 0 2066.76 972.76">
  <path d="M57.93,972.76c-18.52,0-32.81-4.35-42.85-13.04-10.05-8.7-15.07-19.82-15.07-33.37s4.79-27.56,14.39-42.69c9.6-15.13,24.11-29.58,43.53-43.36,10.61-7.45,21.06-13.21,31.33-17.28,10.28-4.06,19.7-6.43,28.29-7.11,2.93,0,4.96.46,6.09,1.36.22.23.45.68.68,1.36.22.67.11,1.35-.34,2.03-.46.46-.97.74-1.52.85-.56.12-1.19.29-1.87.51-8.36.91-17.16,3.67-26.42,8.3-9.27,4.63-18.52,10.33-27.78,17.11-17.39,12.87-29.98,25.35-37.77,37.43-7.79,12.08-11.69,22.86-11.69,32.35,0,10.61,4.8,19.43,14.4,26.42,9.6,7,23.54,10.51,41.84,10.51,22.8,0,46.29-4.07,70.46-12.2,24.17-8.13,48.66-19.26,73.51-33.37,24.84-14.11,49.46-29.98,73.85-47.6-8.36-1.58-16.93-3.44-25.75-5.59-8.81-2.14-15.81-4.8-21-7.96-2.94-1.81-5.42-3.84-7.45-6.1-2.03-2.26-3.05-4.63-3.05-7.11,0-1.81.68-3.73,2.03-5.76,1.81-2.03,4.12-3.5,6.94-4.4,2.82-.9,5.82-1.36,8.98-1.36,5.87,0,12.47.96,19.82,2.88,7.34,1.92,14.79,4.46,22.36,7.62,7.56,3.17,14.51,6.44,20.84,9.83,17.39-13.55,34.38-27.66,50.98-42.34,16.6-14.68,32.81-29.36,48.62-44.04,2.48-5.19,5.13-10.28,7.96-15.25,2.82-4.96,5.7-9.82,8.64-14.56,2.48-3.84,5.64-8.98,9.48-15.42,3.84-6.43,8.13-12.7,12.88-18.8,4.74-6.32,9.99-11.91,15.75-16.77,5.76-4.85,11.69-7.62,17.79-8.3,4.06-.44,7.05.51,8.97,2.88,1.92,2.37,2.88,5.03,2.88,7.96,0,6.33-1.81,12.03-5.42,17.11-3.61,5.08-7.68,9.89-12.19,14.4-13.1,12.87-27.33,26.08-42.68,39.64-10.39,17.61-20.1,35.85-29.14,54.71-9.03,18.86-16.15,35.97-21.34,51.32,14-1.58,25.58-4.35,34.72-8.3,9.15-3.94,13.39-9.77,12.71-17.44,0-3.39,1.24-5.08,3.73-5.08,1.57,0,2.93.68,4.06,2.03,1.13,1.36,1.69,3.05,1.69,5.09,0,6.55-2.99,11.97-8.98,16.26-5.98,4.3-13.55,7.68-22.7,10.17-9.14,2.49-18.46,4.4-27.95,5.76-1.35,4.74-2.6,9.26-3.72,13.55-1.14,4.29-1.92,8.36-2.37,12.2,0,1.36.05,2.77.17,4.23.11,1.48.28,2.88.5,4.24.45,1.36.79,2.48,1.02,3.38.22.9.34,1.58.34,2.04.9,3.83-.4,7.22-3.9,10.16-3.5,2.93-7.06,4.41-10.67,4.41-3.84,0-6.21-1.7-7.11-5.08-.23-.68-.33-1.36-.33-2.04s-.12-1.24-.34-1.69c-1.35-3.16-3.5-7.06-6.43-11.69-2.94-4.62-6.1-9.2-9.48-13.72-3.39-4.52-6.43-8.42-9.15-11.69-2.71-3.27-4.52-5.02-5.42-5.25-.46-.22-2.15-.62-5.08-1.19-2.94-.56-6.44-1.07-10.51-1.53-1.58-.45-3.28-.79-5.08-1.01-1.81-.22-3.62-.45-5.42-.68-20.78,15.13-41.78,29.37-63.01,42.69-21.23,13.32-42.3,25.01-63.18,35.06-20.9,10.05-41.28,17.95-61.15,23.72-19.88,5.76-38.84,8.64-56.91,8.64M302.18,852.49l2.37-2.03c-12.65-6.32-26.09-10.17-40.31-11.52h-2.37c-2.71,0-4.06.34-4.06,1.01,0,.46.56,1.01,1.69,1.69,1.13.68,2.14,1.24,3.05,1.69,4.51,1.59,10.55,3.22,18.12,4.92,7.56,1.69,14.74,3.1,21.51,4.23M354.35,856.9h6.94c2.37,0,4.8-.11,7.28-.34,3.61-10.16,8.18-21.56,13.72-34.22,5.53-12.64,11.46-25.52,17.79-38.62-12.2,10.62-24.79,21.29-37.78,32.01-12.99,10.73-26.26,21.29-39.8,31.68,2.48,1.58,4.68,3.1,6.6,4.57,1.92,1.48,3.56,2.77,4.92,3.9,4.74.68,11.51,1.02,20.33,1.02M359.42,889.76c.22-.45.34-.96.34-1.52s.11-1.07.34-1.53c.68-3.61,1.52-7.17,2.54-10.67,1.02-3.5,1.97-6.95,2.88-10.33-4.29.23-8.3.4-12.02.51-3.73.11-7.06.17-9.99.17,2.48,2.94,5.19,6.5,8.13,10.67,2.94,4.18,5.54,8.42,7.79,12.7M459.02,718c3.16-3.16,6.38-6.32,9.66-9.48,3.27-3.16,6.38-6.32,9.32-9.48,1.8-1.81,3.94-3.95,6.44-6.44,2.48-2.48,3.73-4.51,3.73-6.1,0-.9-.34-1.36-1.02-1.36-1.35,0-2.94,1.13-4.74,3.39-3.61,4.07-7.4,8.59-11.34,13.55-3.96,4.97-7.97,10.28-12.03,15.92"/>
  <path d="M420.91,908.05c-3.84,0-5.76-1.81-5.76-5.41,0-2.26.62-4.75,1.86-7.45,1.24-2.71,2.77-5.64,4.57-8.81,2.94-5.19,6.27-10.61,9.99-16.26,3.73-5.64,6.95-10.28,9.65-13.89,2.26-2.94,5.42-7.11,9.49-12.53,4.06-5.42,7.9-11.18,11.51-17.28,4.96-8.13,7.46-14.91,7.46-20.33,0-2.93-.91-5.19-2.71-6.77-.9-.9-1.81-1.97-2.71-3.22-.91-1.24-1.36-2.32-1.36-3.22,0-2.26.9-3.39,2.71-3.39s3.5.68,5.08,2.03c1.58.91,3.33,2.15,5.25,3.73,1.91,1.58,3.67,3.39,5.25,5.42.68.9,1.4,1.75,2.2,2.54.79.79,1.4,1.75,1.86,2.87.68,1.14,1.24,2.32,1.69,3.56.45,1.24.68,2.66.68,4.24,0,3.16-1.36,7-4.06,11.51-4.06,7.01-8.87,13.5-14.4,19.48-5.53,5.99-10.89,11.92-16.09,17.78-.68.91-1.42,1.75-2.2,2.54-.79.8-1.53,1.64-2.2,2.55,8.81-8.13,18.34-16.54,28.63-25.24,10.27-8.69,19.25-15.52,26.93-20.49,2.48-1.58,5.76-3.1,9.83-4.57,4.06-1.46,7.9-2.2,11.52-2.2,3.39,0,6.38.97,8.97,2.88,2.59,1.92,3.9,5.48,3.9,10.67,0,4.52-.91,9.65-2.71,15.41-1.81,5.76-3.61,11.02-5.42,15.76-1.58,3.61-2.83,7.06-3.73,10.33-.91,3.28-1.36,6.15-1.36,8.64,0,7.91,4.29,11.85,12.88,11.85,2.25,0,4.91-.28,7.96-.85,3.05-.56,6.38-1.53,9.99-2.88,11.52-4.29,23.21-10.28,35.06-17.96,11.85-7.67,22.53-15.46,32.01-23.37,1.13-.89,2.26-1.75,3.38-2.54,1.13-.79,2.15-1.52,3.05-2.2,1.13-.9,2.2-1.75,3.22-2.54,1.02-.79,2.2-1.75,3.56-2.88,1.36-.45,2.26-.68,2.71-.68,1.35,0,2.03.8,2.03,2.38s-.46,2.94-1.36,4.06c-1.35,1.81-4.63,5.08-9.82,9.82-5.2,4.74-11.58,10.06-19.14,15.93-7.57,5.88-15.81,11.52-24.73,16.94-8.92,5.42-17.9,9.71-26.93,12.87-8.13,2.71-16.6,4.06-25.41,4.06-6.78,0-12.87-1.58-18.29-4.74-5.42-3.16-8.13-8.58-8.13-16.26,0-4.51,1.13-9.82,3.39-15.92,1.57-4.06,3.33-8.24,5.25-12.53,1.92-4.29,3.1-8.58,3.56-12.87.22-.9.34-1.75.34-2.54v-1.86c0-2.71-.4-4.41-1.18-5.09-.79-.68-1.64-1.01-2.54-1.01-2.26,0-5.03.85-8.3,2.54-3.28,1.69-6.27,3.45-8.98,5.25-2.49,1.58-6.38,4.69-11.69,9.32-5.31,4.63-11.06,9.82-17.27,15.58-6.21,5.76-12.14,11.24-17.79,16.43-3.61,3.39-7.06,6.83-10.33,10.33-3.28,3.51-6.27,6.72-8.98,9.66-2.94,3.16-5.41,5.76-7.45,7.79-2.04,2.03-3.51,3.04-4.41,3.04"/>
  <path d="M607.56,900.26c-1.81,0-3.11-.56-3.9-1.69-.79-1.13-1.18-2.48-1.18-4.06,0-2.48.56-4.86,1.69-7.11,1.13-2.26,1.8-3.73,2.03-4.41,1.81-3.61,4.63-8.52,8.47-14.74,3.84-6.21,8.3-12.81,13.38-19.81,5.08-7,10.34-13.6,15.76-19.82,5.42-6.21,10.55-11.34,15.41-15.41,4.86-4.07,9.09-6.1,12.71-6.1.9,0,2.87.73,5.92,2.2,3.05,1.47,5.25,2.65,6.61,3.55,1.58.91,2.37,2.26,2.37,4.06,0,2.71-1.24,4.07-3.73,4.07-1.36,0-2.26.11-2.71.34-.46,0-1.58.34-3.39,1.01-3.84,1.58-8.64,4.92-14.39,9.99-5.76,5.09-11.63,10.9-17.62,17.45-5.98,6.55-11.34,12.76-16.09,18.63,6.99-6.1,14.95-12.2,23.88-18.3,8.92-6.1,17.33-10.72,25.24-13.89,2.71-1.13,5.25-1.97,7.62-2.54,2.37-.57,4.57-.85,6.61-.85,7,0,11.63,2.6,13.89,7.79,2.25,5.2,3.73,10.39,4.4,15.58.45,2.03.73,4.06.85,6.1.11,2.03.28,3.95.51,5.76.9,8.36,2.59,13.89,5.09,16.6,2.48,2.71,5.53,4.07,9.14,4.07,2.94,0,6.32-.62,10.16-1.87,3.84-1.24,8.02-2.99,12.54-5.25,9.26-4.52,18.85-10.22,28.8-17.11,9.93-6.89,19.42-14.06,28.45-21.51l21-16.94c1.81-1.36,3.27-2.03,4.41-2.03s1.8.22,2.03.67v.68c0,.46-.11,1.19-.34,2.2-.23,1.02-.68,2.09-1.36,3.22-1.58,2.26-3.96,5.2-7.11,8.81-3.16,3.61-7.23,7.34-12.2,11.18-5.87,4.74-12.59,9.99-20.16,15.75-7.56,5.76-15.47,11.18-23.71,16.26-8.25,5.08-16.43,9.26-24.56,12.53-8.13,3.27-15.92,4.91-23.37,4.91s-12.93-2.09-16.43-6.27c-3.5-4.17-5.87-9.26-7.11-15.24-1.24-5.99-2.43-11.57-3.55-16.77-.23-1.57-.57-3.05-1.02-4.4-.46-1.36-.9-2.59-1.35-3.73-2.03-4.96-5.08-7.45-9.15-7.45-2.71,0-5.88.74-9.48,2.2-3.62,1.47-8.13,4.02-13.55,7.62-7,4.74-13.33,9.55-18.97,14.4-5.65,4.86-10.73,9.54-15.25,14.06-1.35,1.13-2.77,2.55-4.23,4.24-1.47,1.69-3,3.33-4.57,4.91l-4.06,4.06c-.91.9-1.81,1.7-2.71,2.37h-1.69Z"/>
  <path d="M959.05,940.24c-7.68,0-13.78-3.16-18.29-9.48-4.53-6.33-7.74-14.18-9.66-23.55-1.92-9.37-2.88-18.46-2.88-27.27,0-5.19.28-9.99.85-14.39.56-4.41,1.3-8.41,2.2-12.03-1.58-3.16-2.71-6.72-3.39-10.67-.68-3.95-1.01-6.38-1.01-7.29,0-2.93.56-5.36,1.69-7.28,1.13-1.91,2.14-2.88,3.05-2.88,1.8,3.84,3.32,7.01,4.57,9.48,1.24,2.49,2.2,4.53,2.87,6.1,3.61,7.23,8.98,14.86,16.09,22.87,7.11,8.02,15.29,15.53,24.56,22.53,9.26,7,19.08,12.87,29.47,17.61,9.71-8.81,18.24-17.44,25.58-25.91,7.33-8.47,14.17-17.22,20.5-26.26,6.54-9.26,12.81-18.85,18.8-28.8,5.98-9.93,12.47-20.78,19.48-32.52.45-1.12.9-2.31,1.36-3.55.45-1.24.79-2.31,1.01-3.22-7.68,7-16.49,14.17-26.42,21.51-9.94,7.34-20.33,14.12-31.17,20.33-10.84,6.21-21.57,11.24-32.18,15.07-10.62,3.84-20.45,5.88-29.47,6.1-6.1,0-10.73-1.75-13.89-5.25-3.16-3.5-4.74-7.4-4.74-11.69,0-6.32,1.69-12.76,5.08-19.31,3.39-6.55,7.74-12.76,13.04-18.63,5.31-5.87,10.78-11.06,16.43-15.58.68-.45,1.36-.73,2.03-.85.68-.11,1.35-.17,2.03-.17,1.58,0,2.93.34,4.07,1.01,1.12.68,1.69,1.36,1.69,2.04-.23,1.13-.68,1.81-1.36,2.03-4.06,3.17-8.42,6.72-13.04,10.67-4.63,3.96-8.52,8.36-11.69,13.21-3.16,4.86-4.74,10.22-4.74,16.09,0,3.61,1.07,6.43,3.22,8.47,2.14,2.03,5.93,3.05,11.35,3.05,14.45,0,28.9-3.73,43.36-11.18,14.45-7.45,28.57-17.11,42.34-28.96,13.77-11.85,26.98-24.11,39.64-36.75,4.52-5.87,8.92-9.88,13.21-12.03,4.29-2.14,8.01-3.22,11.18-3.22,7.46,0,11.18,2.26,11.18,6.78,0,1.59-.34,3.05-1.02,4.41-.68,1.35-1.35,2.6-2.03,3.72-7.68,9.94-15.92,21-24.73,33.2-8.81,12.2-18.07,24.62-27.78,37.26-9.71,12.65-19.65,25.18-29.81,37.6-10.16,12.43-20.33,23.94-30.49,34.56-2.94,2.93-6.78,6.44-11.52,10.5l1.36.68c9.93,3.61,19.93,6.49,29.98,8.64,10.05,2.14,20.38,3.22,31,3.22,8.36,0,17.39-.68,27.1-2.03,9.71-1.36,19.36-3.45,28.96-6.27,9.6-2.82,18.34-6.55,26.26-11.18,7.9-4.63,14.23-10.27,18.97-16.94,4.74-6.66,7.11-14.39,7.11-23.2,0-7.91-2.54-14.46-7.62-19.65-5.08-5.19-11.47-9.03-19.14-11.51-7.68-2.48-15.36-3.73-23.04-3.73h-1.35c-.68.68-1.7,1.01-3.05,1.01-3.62,0-6.16-1.41-7.62-4.23-1.47-2.82-2.2-5.02-2.2-6.61,0-2.93,1.52-4.91,4.57-5.93,3.05-1.01,6.04-1.52,8.97-1.52h3.39c7.9-.45,16.48-2.77,25.75-6.94,9.26-4.18,18.18-9.6,26.76-16.26,8.58-6.66,15.58-13.94,21-21.85,5.42-7.91,8.13-15.58,8.13-23.04,0-8.35-3.17-15.13-9.48-20.32-6.33-5.19-14.86-9.2-25.58-12.02-10.73-2.82-22.53-4.75-35.4-5.76-12.87-1.01-25.97-1.52-39.29-1.52-14.9,0-31,1.01-48.27,3.05-17.28,2.04-34.84,5.2-52.68,9.49-17.85,4.29-35.06,9.66-51.66,16.09-16.6,6.43-31.79,14.06-45.57,22.86-13.78,8.81-25.29,18.75-34.55,29.81-9.26,11.06-15.47,23.49-18.63,37.26-.68,3.39-1.02,6.44-1.02,9.15,0,9.03,2.88,16.72,8.64,23.04,5.76,6.33,11.8,9.94,18.12,10.84,2.25.23,3.73.79,4.4,1.69.68.91,1.02,1.58,1.02,2.04,0,.9-.85,1.97-2.54,3.22-1.7,1.24-3.56,1.86-5.59,1.86-6.09,0-12.31-2.37-18.63-7.11-6.32-4.74-11.57-10.9-15.75-18.46-4.18-7.56-6.27-15.41-6.27-23.54,0-3.61.34-7.11,1.01-10.5,2.93-14,9.09-26.76,18.46-38.28,9.37-11.52,21.12-21.79,35.23-30.82,14.11-9.03,29.7-16.82,46.75-23.37,17.05-6.55,34.73-11.97,53.02-16.26,18.29-4.29,36.47-7.51,54.54-9.66,18.06-2.14,35-3.22,50.81-3.22,11.06,0,22.92.51,35.57,1.53,12.64,1.01,25.07,2.6,37.26,4.74,12.19,2.15,23.25,5.2,33.2,9.15,9.93,3.96,17.9,8.81,23.88,14.57,5.98,5.76,8.97,12.59,8.97,20.49,0,9.04-3.1,17.67-9.32,25.91-6.21,8.25-14.17,15.7-23.88,22.36-9.71,6.66-19.99,12.31-30.83,16.94-10.84,4.63-20.78,7.85-29.81,9.65,8.13,2.04,16.32,5.25,24.56,9.66,8.24,4.4,15.13,9.99,20.67,16.77,5.53,6.78,8.3,15.02,8.3,24.73,0,12.43-3.22,23.09-9.66,32.01-6.43,8.92-14.9,16.26-25.4,22.02-10.5,5.76-21.91,10.05-34.21,12.88-12.31,2.82-24.45,4.23-36.42,4.23-9.94,0-18.98-.5-27.1-1.53-8.13-1.01-15.81-2.42-23.04-4.23-7-1.81-13.84-3.84-20.49-6.1-6.66-2.26-13.61-4.63-20.84-7.11-7.23,5.64-15.36,10.67-24.39,15.07-9.04,4.41-17.05,6.61-24.05,6.61M970.57,924.99c3.84,0,8.01-1.13,12.53-3.39,4.51-2.26,9.03-4.86,13.55-7.79-12.42-6.1-23.66-13.38-33.71-21.85-10.05-8.47-18.24-17.22-24.56-26.26,0,5.88.62,12.25,1.86,19.14,1.24,6.89,3.1,13.38,5.59,19.48,2.48,6.1,5.76,11.06,9.83,14.9,4.06,3.84,9.03,5.76,14.9,5.76"/>
  <path d="M1323.99,901.28c-10.84,0-18.3-2.37-22.36-7.11-4.06-4.74-6.1-10.61-6.1-17.62,0-3.39.45-6.95,1.36-10.67.9-3.72,1.92-7.28,3.05-10.67-3.62,3.84-7.97,8.24-13.04,13.21-5.08,4.97-10.62,9.82-16.6,14.56-5.99,4.74-11.92,8.64-17.79,11.69-5.88,3.05-11.52,4.57-16.94,4.57-6.78,0-12.31-2.93-16.6-8.81-2.71-4.06-4.07-8.24-4.07-12.53,0-5.19,1.41-10.22,4.24-15.08,2.82-4.85,6.1-9.59,9.82-14.23,3.73-4.63,6.95-8.86,9.66-12.7,5.19-7.68,9.6-15.02,13.21-22.02,3.61-7,5.42-12.65,5.42-16.94,0-2.49-.8-4.41-2.37-5.76-2.71-2.03-4.07-4.4-4.07-7.11,0-1.8,1.02-2.71,3.05-2.71,1.36,0,3.05.68,5.08,2.03,1.58.91,3.27,2.15,5.08,3.73,1.81,1.58,3.5,3.39,5.08,5.42.9.91,1.69,1.81,2.37,2.71.68.9,1.36,1.81,2.04,2.71.45,1.13.9,2.32,1.35,3.56.45,1.24.68,2.65.68,4.23,0,3.61-1.24,7.57-3.73,11.86-2.48,4.29-5.59,8.93-9.31,13.89-3.73,4.97-7.62,10.06-11.69,15.25-1.81,2.26-4.57,6.05-8.3,11.35-3.73,5.31-7.06,10.56-9.99,15.76-1.36,2.71-2.54,5.19-3.56,7.45-1.01,2.26-1.52,4.29-1.52,6.1,0,2.94,1.7,4.41,5.08,4.41,3.16,0,7.05-1.3,11.69-3.9,4.63-2.59,9.09-5.53,13.38-8.81,4.29-3.27,7.46-5.7,9.48-7.28,7.23-6.1,14.74-12.47,22.53-19.14,7.79-6.66,15.3-13.04,22.53-19.14,1.13-.9,2.59-1.36,4.41-1.36,3.16,0,5.64.91,7.46,2.71.89.68,1.35,1.93,1.35,3.73,0,3.62-1.81,8.81-5.42,15.58-.91,2.03-1.92,4.12-3.05,6.27-1.13,2.15-2.15,4.35-3.05,6.61-.9,2.26-1.75,4.4-2.54,6.44-.79,2.03-1.3,4.06-1.52,6.1-.23.68-.34,1.36-.34,2.04v2.03c0,3.61,1.01,6.04,3.05,7.29,2.03,1.24,4.51,1.86,7.45,1.86,4.29,0,8.75-.73,13.38-2.2,4.63-1.47,8.42-2.65,11.35-3.55,11.52-4.52,23.21-10.62,35.06-18.3,11.85-7.68,22.53-15.36,32.01-23.04,2.26-2.03,4.46-3.84,6.61-5.42,2.14-1.57,4.35-3.49,6.6-5.76,1.58-1.58,2.82-2.49,3.73-2.71h.68c1.81,0,2.37,1.01,1.69,3.04-.46,1.81-1.36,3.62-2.71,5.42-2.03,3.39-5.76,7.62-11.18,12.71-5.42,5.08-11.92,10.39-19.48,15.92-7.57,5.54-15.64,10.79-24.22,15.75-8.58,4.97-17.17,8.98-25.74,12.03-8.58,3.05-16.49,4.57-23.71,4.57"/>
  <path d="M1452.72,898.23c-4.97,0-9.94-.73-14.9-2.2-4.97-1.46-9.6-3.9-13.89-7.28-4.06-3.16-7-6.66-8.81-10.5-1.81-3.84-2.71-7.9-2.71-12.19,0-7.68,2.54-15.36,7.62-23.04,5.08-7.68,11.35-14.85,18.8-21.51,7.46-6.66,14.68-12.02,21.68-16.09,2.71-1.58,6.04-2.77,9.99-3.56,3.95-.79,7.73-1.18,11.35-1.18h4.06c1.36,0,2.48.22,3.38.67,5.87,1.59,10.22,4.02,13.04,7.29,2.82,3.28,4.24,7.06,4.24,11.34,0,6.33-2.09,11.58-6.27,15.76-4.18,4.18-9.37,7.57-15.58,10.16-6.21,2.6-12.48,4.57-18.8,5.92-6.32,1.36-11.74,2.26-16.26,2.71-1.58.23-3.1.34-4.57.34h-4.57c-1.59,0-3.22-.06-4.92-.17-1.69-.11-3.1-.28-4.23-.51-1.58,2.49-2.94,4.97-4.06,7.45-1.13,2.48-1.92,4.86-2.37,7.11-.23.68-.34,1.36-.34,2.03v2.03c0,4.29,1.81,8.08,5.42,11.35,3.61,3.28,9.93,4.91,18.97,4.91s18.51-1.91,28.45-5.76c9.93-3.84,19.82-8.86,29.64-15.08,9.83-6.21,19.2-12.76,28.12-19.65,8.92-6.89,16.88-13.38,23.88-19.48,1.13-.68,2.04-1.01,2.71-1.01,2.04,0,3.05.91,3.05,2.71,0,1.14-.45,2.26-1.35,3.39-2.49,3.61-6.72,7.96-12.71,13.04-5.99,5.08-12.53,10.28-19.65,15.58-7.11,5.31-13.61,9.94-19.48,13.89-5.88,3.96-9.94,6.61-12.2,7.96-6.77,3.39-14.23,6.49-22.35,9.32-8.13,2.83-16.26,4.24-24.4,4.24M1436.12,847.75c4.29.46,9.15,0,14.57-1.36,3.39-.68,7.56-1.8,12.53-3.39,4.96-1.58,9.93-3.61,14.9-6.1,4.96-2.48,9.15-5.42,12.53-8.81,3.38-3.39,5.08-7.11,5.08-11.18,0-2.93-2.15-4.4-6.44-4.4-1.58,0-3.61.28-6.09.85-2.49.56-5.31,1.64-8.47,3.22-6.33,2.94-13.04,7.23-20.16,12.88-7.11,5.64-13.27,11.74-18.46,18.29"/>
  <path d="M1523.18,900.26c-1.81,0-3.11-.56-3.9-1.69-.79-1.13-1.18-2.48-1.18-4.06,0-2.48.56-4.86,1.69-7.11,1.13-2.26,1.8-3.73,2.03-4.41,1.81-3.61,4.63-8.52,8.47-14.74,3.84-6.21,8.3-12.81,13.38-19.81,5.08-7,10.34-13.6,15.76-19.82,5.42-6.21,10.55-11.34,15.41-15.41,4.86-4.07,9.09-6.1,12.71-6.1.9,0,2.88.73,5.93,2.2,3.05,1.47,5.25,2.65,6.61,3.55,1.58.91,2.37,2.26,2.37,4.06,0,2.71-1.24,4.07-3.73,4.07-1.36,0-2.26.11-2.71.34-.46,0-1.58.34-3.39,1.01-3.84,1.58-8.64,4.92-14.39,9.99-5.76,5.09-11.63,10.9-17.62,17.45-5.98,6.55-11.34,12.76-16.09,18.63,6.99-6.1,14.95-12.2,23.88-18.3,8.92-6.1,17.33-10.72,25.24-13.89,2.71-1.13,5.25-1.97,7.62-2.54,2.37-.57,4.57-.85,6.61-.85,7,0,11.63,2.6,13.89,7.79,2.25,5.2,3.73,10.39,4.4,15.58.45,2.03.73,4.06.85,6.1.11,2.03.28,3.95.51,5.76.9,8.36,2.59,13.89,5.09,16.6,2.48,2.71,5.53,4.07,9.14,4.07,2.94,0,6.32-.62,10.16-1.87,3.84-1.24,8.02-2.99,12.54-5.25,9.26-4.52,18.85-10.22,28.8-17.11,9.93-6.89,19.42-14.06,28.45-21.51l21-16.94c1.81-1.36,3.27-2.03,4.41-2.03s1.8.22,2.03.67v.68c0,.46-.11,1.19-.34,2.2-.23,1.02-.68,2.09-1.36,3.22-1.58,2.26-3.96,5.2-7.11,8.81-3.16,3.61-7.23,7.34-12.2,11.18-5.87,4.74-12.59,9.99-20.16,15.75-7.56,5.76-15.47,11.18-23.71,16.26-8.25,5.08-16.43,9.26-24.56,12.53-8.13,3.27-15.92,4.91-23.37,4.91s-12.93-2.09-16.43-6.27c-3.5-4.17-5.87-9.26-7.11-15.24-1.24-5.99-2.43-11.57-3.55-16.77-.23-1.57-.57-3.05-1.02-4.4-.46-1.36-.9-2.59-1.35-3.73-2.03-4.96-5.08-7.45-9.15-7.45-2.71,0-5.88.74-9.48,2.2-3.62,1.47-8.13,4.02-13.55,7.62-7,4.74-13.33,9.55-18.97,14.4-5.65,4.86-10.73,9.54-15.25,14.06-1.35,1.13-2.77,2.55-4.23,4.24-1.47,1.69-3,3.33-4.57,4.91l-4.06,4.06c-.91.9-1.81,1.7-2.71,2.37h-1.69Z"/>
  <path d="M1985.59,903.98c-1.81.45-3.05.68-3.73.68-1.35,0-2.71-.46-4.06-1.36-.91-.9-1.36-1.69-1.36-2.37,0-1.13.9-1.92,2.71-2.37,8.58-3.84,17.05-7.73,25.41-11.69,8.35-3.95,16.37-9.09,24.05-15.41,5.87-4.96,10.67-10.72,14.4-17.28,3.73-6.54,5.59-12.76,5.59-18.63,0-6.32-2.32-11.23-6.95-14.74-4.63-3.49-10.73-5.98-18.29-7.45-7.57-1.46-15.76-2.2-24.56-2.2s-17.73.46-26.08,1.36c-8.36.91-14.8,1.58-19.31,2.03-21.68,2.26-43.2,4.8-64.54,7.62-21.34,2.83-42.63,4.8-63.86,5.93-.46,10.16-4.12,19.81-11.01,28.96-6.89,9.15-15.41,17.22-25.58,24.22-10.16,7-20.72,12.48-31.68,16.43-10.95,3.95-20.84,5.93-29.64,5.93-8.13,0-14.12-2.26-17.95-6.78-3.84-4.51-5.76-9.6-5.76-15.24,0-2.94.56-6.32,1.69-10.17,1.81-5.19,4.68-10.67,8.64-16.43,3.95-5.76,8.47-10.78,13.55-15.07,5.08-4.29,10.11-6.89,15.08-7.79.9-.22,2.59.11,5.08,1.01,2.49.91,4.92,2.04,7.29,3.39,2.37,1.35,3.77,2.49,4.23,3.39.22.23.45.68.68,1.36.22.68.33,1.35.33,2.03-.23,1.58-.9,2.37-2.03,2.37-.46,0-.91-.11-1.36-.34-.46-.22-.91-.45-1.36-.68-2.03-1.36-4.97-.68-8.8,2.04-3.84,2.71-7.68,5.98-11.52,9.82-3.84,3.85-6.89,7.11-9.15,9.83-2.48,2.94-4.69,6.38-6.6,10.33-1.92,3.95-2.88,7.51-2.88,10.67,0,1.81.68,3.44,2.04,4.91,1.36,1.47,3.95,2.2,7.79,2.2,1.13,0,2.31-.05,3.55-.17,1.24-.11,2.65-.28,4.24-.51,4.29-.9,9.71-2.93,16.26-6.1,6.55-3.16,13.43-7.17,20.66-12.02,7.23-4.86,13.89-10.1,19.99-15.75,4.74-4.51,9.26-9.6,13.55-15.25,4.29-5.64,7.11-11.06,8.47-16.26-3.39.23-6.77.34-10.16.34h-17.79c-2.6,0-5.25-.11-7.96-.34-5.42-.22-10.73-.62-15.92-1.18-5.2-.56-10.39-1.41-15.58-2.54-8.81-1.8-15.36-3.78-19.65-5.92-4.29-2.14-7.68-5.7-10.16-10.67-.23-.45-.4-.9-.5-1.36-.12-.45-.17-.9-.17-1.35,0-1.58.9-2.71,2.71-3.39.45-.22,1.36-.34,2.71-.34.9,0,1.75.06,2.55.17.79.11,1.63.29,2.54.51,2.93.68,5.93,1.92,8.97,3.72,3.05,1.81,5.14,4.07,6.27,6.78.89.68,1.69,1.3,2.37,1.87.67.56,1.35,1.07,2.03,1.52,8.58-5.64,17.56-9.54,26.93-11.69,9.37-2.15,17.21-3.22,23.54-3.22s12.53,1.3,17.95,3.9c5.42,2.6,8.92,6.95,10.51,13.04,21.22-1.81,42.51-4.18,63.86-7.11,21.34-2.93,42.96-5.64,64.87-8.13,6.32-.9,14.51-1.87,24.56-2.88,10.04-1.02,20.26-1.53,30.66-1.53s20.44.96,30.15,2.88c9.71,1.92,17.16,5.59,22.35,11.01,4.96,5.42,7,11.85,6.1,19.31-1.14,9.03-4.46,17.33-10,24.9-5.53,7.57-12.36,14.34-20.49,20.32-8.13,5.98-16.66,11.24-25.58,15.75-8.93,4.52-17.22,8.24-24.9,11.18M1776.23,820.31c6.1,0,12.2-.17,18.3-.51,6.1-.34,12.31-.62,18.63-.84-.91-2.49-2.71-4.52-5.42-6.1-2.71-1.58-7.34-2.37-13.89-2.37s-12.59.79-18.8,2.37c-6.22,1.59-11.92,3.61-17.11,6.1,3.16.23,6.27.51,9.32.84,3.05.34,6.04.51,8.97.51"/>
  <path d="M1284.8,401.97c-7.88-16.29-18.78-29.48-32.67-39.53-13.9-10.06-30.15-17.66-48.75-22.81-18.6-5.14-38.96-7.71-61.07-7.71v-1.31c11.17-1.53,22.35-3.83,33.53-6.9,11.17-3.07,22.79-7.49,34.84-13.3,12.05-5.8,22.63-12.43,31.73-19.87,9.09-7.44,16.59-16.8,22.51-28.09,5.92-11.27,8.88-23.59,8.88-36.95,0-16.86-3.12-31.58-9.37-44.17-6.25-12.59-14.45-22.71-24.64-30.38-10.18-7.66-22.83-13.84-37.94-18.56-15.12-4.7-30.39-7.93-45.83-9.69-15.44-1.75-32.58-2.63-51.41-2.63h-84.78L979.83,0h-14.77l-136.74,408.13s-7.64,18.99-21.19,37.97c-9.81,13.74-36.98,20.46-36.98,20.46v15.33h102.69v-15.33s-17.34-8.35-21.09-12.18c-13.57-13.85-8.96-34.37-7-40.96l.7-2.17h0s94.01-289.2,94.01-289.2h1.31l130.19,404.42h119.98c-3.34,4.99-7.11,9.66-11.36,13.98-19.83,20.16-47.16,30.24-81.99,30.24-3.27,0-19.59.22-40.88.53,0,0-24.32.25-55.03.57v-125.71h-76.15v126.52c-21.67.24-39.21.44-45.57.54h0v15.33h238.67c18.16,0,35.57-1.42,52.21-4.26,16.63-2.84,32.66-7.54,48.1-14.1,15.43-6.56,28.84-14.76,40.22-24.61,11.38-9.85,20.47-22.26,27.25-37.24,6.78-14.98,10.18-31.87,10.18-50.68,0-20.78-3.95-39.31-11.82-55.61M1088.44,326.07l-63.13-189.51c31.89.64,66.61,1.31,72.34,1.31,30.71,0,53.53,7.9,68.45,23.69,14.92,15.8,22.39,37.73,22.39,65.81,0,65.81-33.24,98.71-99.72,98.71-.11,0-.22,0-.33,0M1200.32,508.84c-30.68-.52-57.77-20.33-67.5-49.53l-38.45-115.43c35.81.13,63.9,9.93,84.24,29.42,20.48,19.62,30.73,47.94,30.73,84.98,0,19.05-3.02,35.9-9.02,50.57"/>
</svg>