<?xml version="1.0" encoding="UTF-8"?>
<svg id="Layer_1" data-name="Layer 1" xmlns="http://www.w3.org/2000/svg" xmlns:xlink="http://www.w3.org/1999/xlink" viewBox="0 0 2011.88 546.8">
  <defs>
    <style>
      .cls-1 {
        fill: none;
      }

      .cls-2 {
        clip-path: url(#clippath-1);
      }

      .cls-3 {
        clip-path: url(#clippath);
      }
    </style>
    <clipPath id="clippath">
      <rect class="cls-1" width="2011.88" height="546.8"/>
    </clipPath>
    <clipPath id="clippath-1">
      <rect class="cls-1" width="2011.88" height="546.8"/>
    </clipPath>
  </defs>
  <g class="cls-3">
    <g class="cls-2">
      <path d="M.19,426.36c.78-.72.9-1.96,1.07-2.97,9.38-55.89,39.19-114.83,65.01-165.15,4.9-9.55,15.34-25.01,17.5-34.61,4.18-18.54,6.98-42.79,8.26-61.84,1.35-20.18,3.28-66.08-10.84-81.58-6.52-7.16-11.5-2.46-18.21-4.14-10.01-2.5-10.23-16.87-.14-19.76,19.43-5.57,35.94,9.14,41.89,26.41,11.38,33.06,4.32,68.28,1.58,102.03-.05.68-.45,2.31.61,2.15,7.22-13.09,15.24-25.82,23.33-38.4,25.04-38.93,62.34-96.62,101.46-121.27,33.74-21.26,40.99,8.53,39.69,36.57-1.72,37.01-14.62,81.65-24.41,117.66-13.94,51.29-31.95,101.77-40.77,154.32,6.1-7.69,10.78-16.49,15.61-25.02,19.43-34.31,35.78-70.35,55.64-104.43,6.79-11.66,21.8-38.16,32.79-44.76,8.23-4.94,17.12-.92,19.65,8.07,4.65,16.57-7.46,50.39-10.04,68.52-1.76,12.36-5.28,36.37,12.06,38.63,19.71,2.57,44.81-12.03,61.74-20.82-6.65-14.51,3.78-28.45,17.33-33.4,6.97-2.54,10.12-.71,16.36-1.14,2.29-.16,10.68-4.3,12.54-1.69,1.16,3.7-3.21,3.33-4.59,5.92,7.97,9.71,8.33,24.35,5.59,36.13l.91,1.34,25.3-4.95,10.01-27.84c4.3-5.57,11.08-3.36,12.11,3.39l-13.69,52.41c8.53-11.33,15.03-24.23,23.95-35.29,5.63-6.99,14.39-16.9,23.51-8.12,10.64,10.25-4.64,35.65,10.85,40.64,11.88,3.82,34.55-12.96,40.61-22.7,3.04-4.89,5.66-17.56,10.34-20.06,4.12-2.2,9.6.78,9.9,5.51-1.93,12.51-23.69,49.55,4.48,45.45,10.85-1.58,37.04-21.32,42.31-30.9,2.67-4.85,4.67-12.46,7.48-17.95,4.8-9.4,11.02-18.98,20.61-24.06,20.1-10.65,24.06,15.8,12.01,26.89-5.49,5.05-12.7.31-11.07-6.72.34-1.47,1.79-2.05,1.72-3.54-6.79,6.23-12,15.9-15.61,24.39-5.82,13.68-17.13,51.65,11.89,39.79,11.81-4.82,31.19-25.35,38.37-36.08,7.95-11.87,16.84-40.31,35.21-38.68,4.13.37,11.15,4.87,11.94,9.18.39,2.13-.61,3.38-.49,4.79.12,1.34,2.33,3.32,2.43,5.65.19,4.47-2.25,12.67-2.43,17.95-.36,10.68,1.71,33.05,16.89,31.16,13.19-1.64,30.23-24.31,36.75-35.24l1.19-.55,1.53,1.61c.32,1.6-14.17,20.72-16.34,23.18-18.25,20.61-39.01,24.5-47.66-6.35-.45-1.6-1.19-8.35-2.1-8.57l-2.59.13c-5.72,9.61-14.81,31.42-27.8,31.93-1.98.08-4.74-.86-6.38-2-6.72-4.67-3.97-15.79-3.45-22.59-10.72,10.5-23.26,27.6-38.2,31.91-25.39,7.33-29.58-16.07-26.66-35.64-7.74,6.87-15.33,14.08-24.24,19.49-11.17,6.79-28.42,13.68-38.32,1.18-1.18-1.49-3.83-6.93-3.83-8.58v-12.1c-16.7,17.71-52.95,33.09-59.41-2.34-1.13-6.22-.19-12.97-2.44-18.79-5.46-1.23-13.25,12.07-15.99,16.22-4.41,6.68-17.67,31.53-23.58,34.11-1.84.8-2.78.79-4.72.28-6.53-1.72-5.47-12.07-4.78-17.22.96-7.05,3.39-13.99,4.79-20.95l-26.43,6.14c-4.25,10.28-8.07,22.21-18.3,28.23-13.11,7.72-24.37-3.45-25.41-16.68-.57-7.24.94-12.25,1.61-18.92.1-.97.46-1.1-.66-1.87-13.57,7.32-28.21,15.4-43.13,19.52-36.2,10-43.68-6.67-39.63-39.61,1.84-14.95,13.83-57.48,8.64-68.98-4.58-10.16-13.68,1.59-17.39,6.27-18.25,23.02-33.76,58.94-47.1,85.67-12.62,25.28-24.61,55.68-40.17,78.95-4.15,6.2-11.93,17.93-20.71,12.12-9.33-6.19-3.39-31.7-1.7-41.34,12.14-68.99,35.8-136.17,48.53-205.19,3.24-17.57,8.1-42.95,5.08-60.31-1.16-6.67-1.84-10.34-9.78-8.89-15.56,2.84-48.13,42.43-58.55,55.61-29.95,37.87-55.22,79.88-79.44,121.57-15.81,70.96-32.11,148.58-63.55,214.37-5.12,10.72-14.87,33.32-29.48,22.43-6.3-4.7-6.18-10.44-8.48-17.26v-8.06ZM413.93,227.97c-6.43.36-15.29,10.61-15.95,16.95-.16,1.5-.19,6.73,1.56,7.14,1.35.32,4.22-7.48,5.16-9.1,2.87-4.97,6.54-9.55,10.65-13.55.19-.88-.66-1.48-1.42-1.43M432.58,263.69c2.7-7.22,4.09-16.05,3.25-23.74-.23-2.07-3.07-10.27-5.27-10.27-4.38,0-19.57,26.28-18.98,31.93.28,1.03,18.77,4.22,21,2.08M716.94,283.06l16.27-28.09c1.35-2.33,9.72-14.74,9.81-15.67.48-5-6.95,1.54-8.32,2.89-7.52,7.39-16.84,28.49-18.2,38.88-.09.67-.69,2.13.44,1.99M16.94,441.86c13.54-22.37,22.27-48.05,30.43-72.87,11.47-34.85,21.06-70.45,28.53-106.39l-16.04,31.41c-13.99,30.85-28.66,61.68-38.58,94.19-3.43,11.24-12.8,42.61-6.46,52.39.5.77,1.06,1.48,2.12,1.28M411.2,286.59c3.26,3.02,7.12-.25,9.75-2.59,2.01-1.79,10.01-11.84,8.42-14-2.77-1.27-6.29-.3-9.34-.6-1.61-.16-9.11-1.96-9.65-1.6-1.85,3.76-2.22,15.96.83,18.78"/>
      <path d="M988.75,546.7c-.92.08-2.18.08-3.1,0-9.34-.84-17.51-5.86-19.69-15.37-7.02-30.73,37.14-35.6,42.49-11.46,3.18,14.33-5.15,25.51-19.7,26.83M983.63,507.15c-11.21,1.79-13.43,14.27-12.2,23.68,2.31,17.68,29.21,18.35,31.53-.64,1.62-13.32-4.07-25.48-19.33-23.04"/>
      <path d="M1286.01,546.7c-.92.08-2.18.08-3.1,0-12.2-1.1-20.99-9.33-20.51-22.04.97-25.29,38.54-26.55,43.32-4.8,3.14,14.29-5.17,25.52-19.71,26.83M1280.88,507.15c-11.18,1.75-13.44,14.19-12.2,23.68,2.31,17.68,29.21,18.35,31.53-.64,1.63-13.36-4.06-25.44-19.33-23.04"/>
      <path d="M1366.68,546.7l-28.86-31.63c-1.4-.26-.85.61-.92,1.54-.68,9.32.24,19.53.62,28.86h-4.35s1.25-40.94,1.25-40.94l29.48,31.01c1.4.26.85-.61.92-1.54.69-9.37-.5-18.88-.62-28.24h3.73l-.62,40.94h-.62Z"/>
      <path d="M1187.34,546.7c-1.49-.18-7.26-2.21-8.13-3.39l.69-5.3c1.76-.27,1.47,1.8,2.79,3.11,4.38,4.36,14.07,3.43,15.16-3.45,2-12.58-15.78-8.86-17.81-18.71-2.68-12.98,11.35-17.65,20.91-11.88l-2.43,5.5c-2.17-9.68-16.82-5.82-13.87,3.62,2.44,7.81,18.74,5.91,18.23,17.75-.3,6.82-6.62,11.97-13.05,12.75-.7.08-1.78.08-2.48,0"/>
      <path d="M581.66,546.7c-1.12-.14-7.56-2.47-7.99-3.2l.55-5.48c1.91.18,2.46,2.49,4.03,3.72,6.3,4.89,15.8.74,14.45-7.59-1.2-7.36-14.68-6.42-17.7-14.59-4.41-11.91,11.13-18.96,20.04-12.55l-.97,5.58c-1.93-1.34-2.07-4.13-4.5-5.11-6.29-2.56-12.18,2.8-10.11,9.49,2.29,7.4,19.21,3.97,17.72,18.27-.71,6.78-6.72,10.7-13.03,11.47-.7.09-1.78.09-2.48,0"/>
      <path d="M1138.31,546.7c-2.64-.33-5.47-2.47-8.05-3.14l1.23-5.54c2.25,1.62,2.82,4.16,5.75,5.11,7.01,2.28,13.91-1.83,12.11-9.63-1.6-6.92-16.03-6.29-17.72-14.54-2.67-13.04,11.25-17.65,20.93-11.9-.23.9-1.72,6.1-2.45,5.53-2.44-9.7-16.61-5.92-13.98,3.74,1.97,7.26,18.45,5.87,18.26,16.98-.12,7.22-6.05,12.56-12.97,13.4-.84.1-2.27.11-3.1,0"/>
      <path d="M1306.49,274.07c.11-.92,2.07-2.85-.63-.63-15.24,22.44-43.22,41.41-54.42,3.56-.74-2.5-1.04-6.79-1.86-8.68-.65-1.52-2.39-.83-3.3.15-5.81,8.92-14.88,30.44-27.13,31.19-18.59,1.14-9.59-30.32-5.13-39.54-14.31,6.83-28.32,15.09-43.8,19.18-65.56,17.32-30.66-61.98-28.78-94.52.77-13.32-2.35-26.59-15.56-11.83-18.7,20.91-36.69,62.29-49.54,88.19-10.68,21.52-20.18,43.65-31.74,64.73,14.79-.12,29.6.17,44.4.03,60.66-.58,121.76.74,182.45-.62,14.35-.32,25.78-1.94,39.77-3.67,23.05-2.84,37.62.89,59.47,2.43,6.77.48,14.18-.31,21.02-.13,29.46-37.21,52.54-79.07,72.4-122.09-5.33,1.58-10.6,3.45-16.01,4.78-44.7,10.94-117.82,7.7-143.98-36.85-20.18-34.35-4.52-77.69,32.61-91.22,42.82-15.6,88.93,11.39,121.03,37.81.86,2.72-.41,5.38-3.54,4.53-27.3-22.38-63.84-45.32-100.88-40.63-53.1,6.73-70.92,68.3-30.12,103.28,32.21,27.61,102.05,28.7,139.79,13.17,1.8-.74,4.11-1.14,4.94-3.13,14.23-30.61,24.16-62.84,35.85-94.43,10.15-27.4,33.26-87.39,62.71-97.35,34.11-11.53,28.84,36.94,24.49,56.12-13.52,59.69-59.32,114.99-115.05,139.94-14.98,43.99-31.65,87.88-58.4,126.16l243.88,2.49c10.63-63.02,34.9-122.64,55.86-182.68l-2.78,5.28c-6.63,16.53-13.18,33.09-19.9,49.58-5.03,12.35-15.62,32.27-18.62,44.04-1.74,6.81,1.02,17.17-8.39,20.3-4.91,9.75-8.35,20.97-13.28,30.61-5.27,10.31-14.01,20.29-24.87,8.68-8.66-9.26-6.43-28.6-2.77-39.72l-26.9,6.14c-3.18,7.42-5.4,15.41-10.71,21.7-6.73,7.99-16.52,12.87-25.71,5.35-3.71-3.03-7.43-11.44-7.43-16.14v-8.99l-13.02,14.59c-9.86,10.04-27.16,20.25-40.36,9.93-18.41-14.38-2.88-53.15,12.1-65.47,5.03-4.14,14.21-8.19,19.22-1.81,7.96,10.15-9.71,29.98-18.07,35.21-2.02,1.27-6.29,2.31-7.1,4.07-2.15,4.69-1.32,17.77,1.66,22.05,7.99,11.46,27.91-5.67,34.1-12.36,1.82-1.96,12.59-15.6,12.51-17.06-14.36-15.29,2.71-36.7,19.82-38.71,3.72-.44,7.81.57,11.02.35,3.4-.23,7.99-4.14,11.92-1.71,1.92,3.37-4.12,3.81-4.11,5.93,0,.64,3.23,4.53,3.89,6.08,2.42,5.68,3.37,15.11,3,21.24-.14,2.42-2.68,10.03.28,10.23l25.13-5.3c6.37-15.91,20.49-43.13,41.28-29.45l4.65,5.58c10.61-24.62,21.38-49.19,31.95-73.83,7.88-18.37,15.03-39.77,23.99-57.28,2.26-4.41,7.48-14.86,13.53-11.19,3.34,2.02,2.78,6.17,2.1,9.44-1.3,6.25-6.05,16.14-8.58,22.44-11.53,28.6-24.35,56.69-35.51,85.47-14.77,38.11-28.71,77.07-36.15,117.39,9.59,1.11,19.25.32,28.88.6,8.17.24,16.6,1.02,24.77,1.29,67.3,2.24,135.41,4.33,202.24,13.71,20.2,2.84,74.46,10.77,87.26,26.29,4.6,5.58,4.35,13,0,18.58-14.74,18.91-75.42,30.73-99.16,34.87-58.13,10.13-129.22,15.85-187.83,9.49-17.75-1.92-38.65-5.35-51.6-18.5-14.35,6.66-29.99,11.41-45.84,12.92-78.46,7.5-149.02-60.24-219.11-84.99-2.46-.15-4.86,4.3-6.44,5.92-31.82,32.64-76.38,55.66-122.58,58.6-65.43,4.16-50.74-49.2-8.79-70.2l16.55-7.33c-6.3.12-12.64-.17-18.95-.03-30.47.65-61.32,1.13-91.79,1.3-43.04.23-86.08-.23-129.11-.03-.54,0-.87.27-1.25.61-.77.69-4.48,8.12-5.63,9.88-3.99,6.13-10.72,17.41-19.38,15.13-9.1-2.39-8.18-17.85-6.94-25-32.35.54-64.79-.72-97.14-.03-1.47.03-2.82.63-4.29.67-6.08.17-12.2-.23-18.27.04-10,33.27-20.29,67.61-35.32,98.99-5.31,11.07-14.78,33.53-29.85,22.18-14.65-11.03-4.06-46.67.41-61.53,6.17-20.48,14.71-40.09,23.13-59.69l-248.21,9.59c-4.4-4.42-1.42-7.8,4.03-8.35,17.19-1.73,37.12-.7,54.63-1.22,50.13-1.5,100.5-3.03,150.75-3.77,13.52-.2,27.06.29,40.57-.08,10.09-22.57,20.78-44.9,32.04-66.9,4.57-8.93,14.56-23.72,17.39-32.25,2.58-7.8,4.01-22.2,5.19-30.79,3.82-27.93,10.09-86.63-3.53-111.05-2.59-4.65-5.99-8.87-11.66-9.44-3.31-.33-5.87.92-9.09.4-9.9-1.58-11.59-15.55-2.95-19.4,9.09-4.04,22.8-.29,30.36,5.64,29.23,22.95,17.5,89.97,14.95,122.16-.05.68-.46,2.31.61,2.15,7.64-13.69,16.06-27.07,24.57-40.26,23.84-36.92,67.26-103.5,106.35-123.21,10.98-5.53,23.33-4.55,29.46,7.2,9.08,17.38,1.53,59.33-2.44,78.75-11.81,57.77-31.01,113.57-46.06,170.45-4.02,15.2-8.41,30.48-10.73,46.04,5.6.88,5.77-1.23,8.18-5.17,26.14-42.76,45.07-90.55,72.49-132.87,5.15-7.96,18.01-28.5,28.31-28.77,8.88-.24,13.4,8.79,13.9,16.39,1.78,27.03-17.92,63.96-11.49,89.65,5.46,21.86,39.27,8.02,52.88,1.95,4.87-2.17,25.29-11.87,28.08-14.73,1.5-1.54,3.28-6.07,4.75-8.28,5.87-8.84,13.63-21.13,25.97-19.24,3.68.56,10.09,5.38,10.77,9.11.39,2.13-.61,3.37-.49,4.79.13,1.5,2.41,3.11,2.51,5.61.12,2.99-1.56,8.39-1.9,11.78-1.18,11.75-.74,41.74,18.26,36.86,7.85-2.01,18.78-12.65,23.91-18.9,9.53-11.6,11.64-24.92,19.38-37.7,5.4-8.93,18.96-25.23,30.72-18.55,9.01,5.11,4.56,22.07-1.65,27.76-4.51,4.13-11.71,1.31-11.74-4.37-.01-2.33,2.24-3.83,2.09-5.89-10.73,11.75-19.33,29.98-21.85,45.77-1.52,9.53-1.84,22,11.23,20.53,14.06-1.58,31.26-20.82,40.08-31.27,2.21-2.62,8.44-12.07,10.21-13.36,2.91-2.13,5.25.51,3.76,3.75-14.14,15.34-36.4,48.21-59.53,47.79-8-.14-13.62-5.93-16.15-13.06-.26-.72-1.56-4.98-1.56-5.26,0-4.87-.57-11.53,0-16.13M1478.38,190.02c42.32-19.12,76.13-56.82,95.05-98.83,8.72-19.35,19.18-51.88,14.25-72.77-2.6-10.99-8.29-14.95-19.46-11.22-25.24,8.42-46.52,60.6-55.55,84.04-12.52,32.49-22.48,66.03-34.28,98.78M1011.1,325.87c10.88-69.1,33.45-135.56,47.59-203.96,4.25-20.55,12.1-56.5,7.98-76.45-1.75-8.47-4.63-9.76-12.91-6.64-15.17,5.71-41.87,37.75-52.57,51.04-27.53,34.21-54.37,75.67-75.83,114.02-2.06,3.69-5.46,8.69-6.69,12.55-4.71,14.86-7.14,35.26-10.88,51.15-4.61,19.56-10.12,38.88-15.21,58.3h118.53ZM1573.77,227.95c-9.44,2.83-19.31,14.1-14.39,24.09,1.63.36,4.76-7.97,5.78-9.72.82-1.4,1.76-2.8,2.7-4.12,1.4-1.97,6.62-6.98,7.02-7.87.23-.5.46-.96.31-1.54l-1.42-.85ZM1589.9,229.78c-1.12.29-4.66,4.96-5.65,6.2-5.93,7.48-9.92,15.91-12.7,24.99.11.48.53.69.9.93,2.15,1.41,16.66,3.14,19.06,2.42,2.12-.63,3.62-8.63,3.98-10.91.53-3.36,1.04-7.61.78-10.99-.2-2.63-2.7-13.63-6.38-12.66M1513.75,247.7c1.81,1.41,9.92-8.52,9.3-11.16-4.15,2.79-6.29,7.35-9.3,11.16M1248.15,237.17c-6.38,1.56-12.16,9.14-15.39,14.7-5.34,9.18-9.3,20.81-11.28,31.2l7.94-11.59c3.67-6.49,7.04-13.17,10.79-19.61,1.78-3.06,6.62-8.99,7.61-11.62.39-1.04.44-1.99.33-3.07M1657.57,239.14c-6.32,1.25-14.13,17.77-16.15,23.59-2.72,7.86-6.01,23.07-4.75,31.14,1.4,9.06,11.15-6.62,12.63-9.01,2.2-3.54,11.56-20.96,12.05-23.99.25-1.5-.62-3.51-.56-5.43.11-3.47,3.45-14.17-.58-16.13-.86-.5-1.72-.36-2.64-.18M877.67,326.49l15.2-63.28-30.1,63.28h14.89ZM1570.61,267.6c-1.91.56-1.76,11.69-1.46,13.75.42,2.86,2.21,6.84,5.64,6.51,5.2-.5,13.86-12.46,15.29-17.5-.32-1.63-7.79-.78-9.61-.96-1.7-.16-9.38-1.95-9.86-1.81M1660.83,328.97c-81-2.52-162.31-3.16-243.6-3.14-2.93.4-5.56,6.19-7.71,8.41,6.27,3.17,13.26,5.31,19.82,8.08,37.73,15.91,72.63,37.64,109.64,54.79,39.97,18.53,85.3,32.35,127.44,11.24-12.95-24.21-9.88-53.23-5.59-79.39M1339.25,326.67c-32.44.26-62.64,2.46-87.7,25.85-30.99,28.93-11.98,50.73,26.07,47.15,43.48-4.09,77.98-34.41,105.8-65.44,0-1.36-19.17-5.28-21.59-5.7-7.97-1.36-14.51-1.94-22.58-1.87M1389.64,326.49l-6.2.61c2.03-.19,5,1.91,6.2-.61M1696.67,373.16c2.24,2.24-1.45,13.46-2.84,16.4-2.56,5.44-7.93,11.51-12.52,15.4-2.1,1.78-6.65,4.09-8.05,5.6-.61.66-.9.52-.36,1.54,3.33,6.32,19.8,11.56,26.51,13.21,50.87,12.46,126.24,4.56,178.2-3.4,32.94-5.05,85.77-14.07,114.39-30.19,11.68-6.58,20.99-14.15,5.74-23.94-19.84-12.74-66.26-18.73-90.33-21.98-76.81-10.38-157.12-13.86-234.51-16.19-2.58-.08-8.02-2.27-8.95.93-1.57,5.41-2.62,15.84-3.12,21.69-1.58,18.34-1.25,37.65,7.47,54.25,2.06,1.45,14.02-9.61,15.8-11.75,4.07-4.88,6.31-9.76,7.59-15.98.43-2.07-.73-6.04,2.35-6.36.7-.07,2.13.28,2.62.78M1027.85,329.59h-3.73s-.61,6.2-.61,6.2l4.34-6.2ZM876.43,330.21h-15.2c-5.41,11.15-10.28,22.78-14.59,34.42-6.17,16.65-20.21,56.43-15.7,72.79.32,1.15,1.53,4.48,2.98,4.46,7.91-11.25,13.18-24.27,18.16-37.07,9.47-24.35,17.02-49.53,24.36-74.59"/>
      <path d="M300.23,505.76c1.81.3,5.24,2.76,6.16,4.39,4.19,7.51-3.58,15.02-10.81,15.76l15.51,19.54c-1.89-.28-5.22.58-6.82-.31-1.15-.64-9.28-12.83-11.48-15.2-1.37-1.48-3.17-3.9-5.28-3.71v19.23h-5.59s0-39.7,0-39.7c5.55.65,13.01-.88,18.31,0M287.51,523.75c7.63,2.65,18.77-4.04,13.56-12.62-2.37-3.91-9.97-4.61-13.56-2.57v15.2Z"/>
      <path d="M931.35,505.76c7.96,1.32,9.67,11.35,4,16.4-2.19,1.95-4.64,2.4-7.18,3.39-.64.25-1.06-.33-.85.98l14.89,18.93-6.82-.31-13.98-18.28-2.78-.63v18.3c0,.13.93.7.62.92h-6.21s0-39.69,0-39.69c5.55.65,13.02-.88,18.31,0M918.63,523.75c5.85,1.77,14.94-1.15,14.94-8.37s-9.44-9.43-14.94-6.82v15.2Z"/>
      <path d="M687.15,504.52l17.38,40.93-6.52-.6-5.87-14.6c-.81-.49-11.14-.52-12.77-.33-1.08.12-1.39.05-2.08,1.02-1.63,2.28-4.5,13.96-5.08,14.46l-4.28.06,17.52-39.86,1.71-1.07ZM691.5,527.47c-.68-1.19-5.94-14.92-6.82-14.27l-5.59,14.27h12.41Z"/>
      <path d="M417.83,545.45l-6.12-.08-5.6-15.05-14.99-.08-5.65,15.14-4.25.08,18-40.94,1.71,1.08,16.9,39.86ZM392.39,527.47h12.41l-5.9-14.27-2.27,3.93-4.23,10.34Z"/>
      <path d="M1411.97,504.52l17.38,40.93-6.12-.08-5.74-15.35-14.83.22-5.63,15.15-4.28.06,17.52-39.86,1.71-1.07ZM1416.33,527.47c-.5-1.23-5.89-14.96-6.82-14.27l-5.59,14.27h12.41Z"/>
      <path d="M879.84,505.76c7.42,1.23,9.4,11.35,4.98,16.76-4.66,5.7-11.82,4.37-18.05,5.53v17.42s-5.24,0-5.24,0v-39.7c5.55.65,13.02-.88,18.31,0M867.52,507.7l-.75.49v16.2c6.44,2.82,14.51-.33,15.12-7.97.68-8.57-7.87-9.64-14.37-8.73"/>
      <path d="M1105.42,505.76v3.1s-15.51-.62-15.51-.62v14.89h12.1c.19,0,.87-.86,1.55-.62l.62,3.71-14.27-.61v17.37l15.52-.62v3.1h-21.1v-39.7h21.1Z"/>
      <path d="M798.24,505.76v3.1c-1.1,1.14-13.47-2.33-15.51.31v13.96h12.1c.32,0,1.3-.98,2.17-.62v3.72s-14.27-.62-14.27-.62v17.37l15.16-.66.97,3.14h-21.1v-39.7h20.48Z"/>
      <path d="M357.64,505.76v3.1c-1.1,1.14-13.47-2.33-15.51.31v13.96h12.1c.32,0,1.3-.98,2.17-.62v3.72s-14.27-.62-14.27-.62v17.37l15.16-.66.97,3.14h-21.1v-39.7h20.48Z"/>
      <path d="M548.15,505.76v3.1s-14.89-.62-14.89-.62l-.63,14.88h12.1c.32,0,1.3-.98,2.17-.62v3.72c-.87.87-12.42-2.31-14.27.31v15.51c2,2.64,15.26-.59,16.14.31v3.1h-21.1v-39.7h20.48Z"/>
      <polygon points="1057.64 505.76 1057.64 508.86 1041.5 508.23 1041.5 523.13 1056.4 522.51 1056.4 526.22 1041.5 525.61 1041.5 545.46 1035.92 545.46 1035.92 505.76 1057.64 505.76"/>
      <polygon points="650.55 505.76 650.55 508.86 638.13 508.86 638.13 545.46 632.55 545.46 633.17 508.86 620.76 508.86 620.76 505.76 650.55 505.76"/>
      <polygon points="751.7 505.76 751.7 508.86 739.29 508.86 739.29 545.46 733.7 545.45 734.32 508.86 721.91 508.86 721.91 505.76 751.7 505.76"/>
      <path d="M1454.8,545.46v-39.7s6.21,0,6.21,0c.31.22-.62.79-.62.92v36.29l16.14-.62v3.1h-21.72Z"/>
      <path d="M443.9,505.76h5.59s-.62,37.22-.62,37.22l16.14-.63v3.1h-21.72c-.17-.46.62-.74.62-.93v-38.77Z"/>
      <path d="M1230.16,505.76c1.38.41,5.63-1.01,5.61.94l-.02,38.76h-5.59s0-39.7,0-39.7Z"/>
      <path d="M600.68,205.09c8.59-.47,3.86,14.48-4.51,15.29-9.64.94-3.99-14.83,4.51-15.29"/>
    </g>
  </g>
</svg>