<?xml version="1.0" encoding="UTF-8"?>
<svg id="Layer_1" xmlns="http://www.w3.org/2000/svg" version="1.1" viewBox="0 0 1799.14 554.41">
  <!-- Generator: Adobe Illustrator 29.6.1, SVG Export Plug-In . SVG Version: 2.1.1 Build 9)  -->
  <defs>
    <style>
      .st0, .st1 {
        fill: #fff;
      }

      .st1 {
        font-family: Poppins-Light, Poppins;
        font-size: 73.2px;
        font-weight: 300;
        letter-spacing: .52em;
      }
    </style>
  </defs>
  <g>
    <path class="st0" d="M378.82,255.97c-8.44-26.88-50.09-78.58-123.81-153.64-1.21-1.23-2.21-2.25-2.97-3.03-1.19-1.21-2.85-1.88-4.53-1.81-1.7.06-3.29.84-4.38,2.14-1.63,1.94-6.23,6.79-12.05,12.92-51.31,54.07-110.73,120.45-114.79,154-3.94,32.59,6.85,58.29,29.61,70.52,23.52,12.64,55.16,8.97,82.06-8.67-3.74,23.33-16.88,45.23-39.88,66.61-1.81,1.68-2.41,4.3-1.5,6.61.9,2.3,3.13,3.82,5.6,3.82h113.32c2.45,0,4.65-1.48,5.57-3.75.92-2.26.38-4.86-1.37-6.57-19.41-18.95-37.11-52.84-41.34-70.21,15.6,9.24,31.45,14.7,46.38,15.91,16.96,1.37,32.33-2.6,44.47-11.49,21.38-15.67,28.9-43.78,19.62-73.36h-.01Z"/>
    <g>
      <path class="st0" d="M131.89,14.4C121.61,4.84,108.44,0,92.75,0s-29.35,4.84-39.64,14.4c-10.38,9.66-15.64,21.92-15.64,36.44s5.26,26.3,15.65,35.95c10.28,9.56,23.61,14.4,39.64,14.4s28.87-4.85,39.14-14.4c10.38-9.65,15.65-21.74,15.65-35.95s-5.26-26.79-15.65-36.45h0Z"/>
      <path class="st0" d="M135.14,119.79H50.85c-2.76,0-5,2.24-5,5v311.56c0,6.71-1.45,11.45-4.29,14.06-2.94,2.69-8.59,4.11-16.34,4.11H5c-2.76,0-5,2.24-5,5v71.48c0,2.76,2.24,5,5,5h33.03c31.66,0,56.82-7.96,74.77-23.67,18.14-15.88,27.34-41.78,27.34-76.97V124.79c0-2.76-2.24-5-5-5Z"/>
      <path class="st0" d="M1638.96,259.05c-12.31-4.89-28.43-9.92-47.93-14.96-.05,0-.1-.03-.16-.04-16.46-3.66-28.67-7.33-36.29-10.92-8.27-3.89-9.23-9.04-9.23-12.58,0-4.74,1.75-8.2,5.52-10.91,4.16-2.99,10.48-4.5,18.8-4.5,9.79,0,17.71,2.34,23.54,6.95,5.77,4.57,9.11,10.62,10.2,18.49.33,2.35,2.34,4.1,4.71,4.1h74.09c1.35,0,2.63-.57,3.53-1.57s1.34-2.34,1.2-3.68c-2.93-28-14.44-50.82-34.22-67.83-19.72-16.94-46.88-25.53-80.71-25.53-22.76,0-42.74,3.77-59.38,11.2-16.86,7.53-29.84,17.96-38.59,31-1.89,2.82-3.57,5.72-5.06,8.69v-32.19c0-2.76-2.24-5-5-5h-84.3c-2.76,0-5,2.24-5,5v119.37c0,17.01-4.36,30.29-12.95,39.47-8.63,9.22-20.17,13.7-35.29,13.7s-26.18-4.48-34.8-13.7c-8.59-9.17-12.95-22.45-12.95-39.47v-118.37c0-2.76-2.24-5-5-5h-83.8c-2.76,0-5,2.24-5,5v37.84c-6.18-12.82-15.39-23.65-27.6-32.41-24.06-17.27-59.1-26.03-104.15-26.03-30.97,0-56.97,4.09-77.27,12.17-20.49,8.15-36.53,19.06-47.67,32.43-8.86,10.62-15.46,22.16-19.71,34.41-3.58-26.14-13.04-47.74-28.27-64.42h0c-19.96-21.85-46.75-32.93-79.61-32.93-19.07,0-36.56,3.82-51.99,11.35-10.8,5.28-20.11,11.91-27.8,19.77V35.07c0-2.76-2.24-5-5-5h-84.3c-2.76,0-5,2.24-5,5v84.72h-92.61c-1.58,0-3.07.75-4.01,2.01l-74.3,99.8V35.07c0-2.76-2.24-5-5-5h-84.3c-2.76,0-5,2.24-5,5v364.8c0,2.76,2.24,5,5,5h84.3c2.76,0,5-2.24,5-5v-99.96l74.76,102.9c.94,1.29,2.44,2.06,4.04,2.06h181.41c2.76,0,5-2.24,5-5v-149.37c0-17.01,4.36-30.29,12.95-39.47,8.62-9.22,20.01-13.7,34.8-13.7s26.17,4.48,34.8,13.7c8.59,9.19,12.95,22.47,12.95,39.47v149.37c0,2.76,2.24,5,5,5h83.8c2.76,0,5-2.24,5-5v-38.32c5.32,10.48,13.37,19.36,24.12,26.57,20.54,13.78,47.61,20.77,80.46,20.77,18.92,0,36.72-2.12,52.91-6.31,13.15-3.4,24.73-8.67,34.56-15.72l1.07,12.69c.21,2.49,2.3,4.41,4.8,4.41h84.64c1.37,0,2.68-.58,3.59-1.6.91-1.02,1.35-2.38,1.2-3.75-.9-8.09-1.59-15.72-2.04-22.69-.45-7-.76-14.63-.91-22.69-.07-3.8-.13-8.04-.17-12.78,1.32,3.39,2.77,6.7,4.36,9.88,9.28,18.55,22.54,32.94,39.42,42.75,16.8,9.77,36.39,14.73,58.22,14.73,18.45,0,35.55-3.91,50.81-11.63,10.65-5.39,19.86-12.07,27.5-19.95v23.62c0,2.76,2.24,5,5,5h84.3c2.76,0,5-2.24,5-5v-33.15c.56.78,1.12,1.56,1.7,2.33,10.77,14.2,25.6,25.5,44.08,33.6,18.34,8.04,39.49,12.12,62.87,12.12,21.79,0,41.27-3.6,57.9-10.7,16.83-7.19,29.97-17.27,39.05-29.98,9.14-12.8,13.78-27.54,13.78-43.88-.33-19.18-5.53-34.78-15.44-46.38-9.68-11.32-21.12-19.66-33.98-24.78l.05.02ZM1475.58,267.52c9.53,11.02,21.05,19.2,34.23,24.3,12.62,4.9,28.62,9.62,47.46,14.01,17.13,4.29,29.64,8.21,37.15,11.66,8.03,3.7,8.96,8.81,8.96,12.33,0,4.73-1.97,8.34-6.22,11.37-4.62,3.3-11.5,4.97-20.45,4.97-9.98,0-18.09-2.45-24.81-7.49-6.45-4.84-9.98-10.97-10.78-18.72-.25-2.42-2.29-4.27-4.73-4.27h-67.39v-57.68c1.88,3.43,4.07,6.6,6.58,9.51h0ZM626.54,146.4v230.98l-96.44-114.58,96.44-116.4ZM1007.34,312.99c4.27-2.87,10.38-4.93,18.09-6.12l70.48-9.6v11.73c0,8.12-2.66,14.33-8.14,19-5.93,5.05-13.7,8.68-23.1,10.79-9.82,2.21-20.16,3.33-30.74,3.33-12.02,0-20.54-1.76-25.31-5.24-4.42-3.21-6.48-7.06-6.48-12.12,0-7.42,2.96-10.27,5.19-11.77h0ZM910.03,229.54l89.22,6.9c2.28.18,4.36-1.27,5-3.46,2.71-9.34,7.58-15.9,14.91-20.06,7.62-4.32,18.6-6.52,32.62-6.52,18.5,0,42.94,2.93,44.1,27.8l-94.02,9.89c-35.09,3.72-60.66,13.02-76.02,27.66-6.64,6.34-11.87,13.34-15.7,20.97v-53.56c0-3.27-.08-6.48-.23-9.64.04,0,.09,0,.13.02h0Z"/>
      <path class="st0" d="M1783.53,321.8c-10.28-9.74-23.46-14.68-39.18-14.68s-29.39,4.94-39.67,14.68c-10.36,9.81-15.61,22.15-15.61,36.66s5.26,26.3,15.64,35.95c10.27,9.56,23.61,14.4,39.64,14.4s28.87-4.85,39.14-14.4c10.38-9.65,15.65-21.74,15.65-35.95s-5.25-26.84-15.61-36.66Z"/>
    </g>
  </g>
  <text class="st1" transform="translate(249.12 513.13)"><tspan x="0" y="0">REAL ESTATE MEDIA</tspan></text>
</svg>